# MagicaVoxel @ Ephtracy

# group
g HealthPotion

# material
mtllib HealthPotion.mtl
usemtl palette

# normals
vn -1 0 0
vn 1 0 0
vn 0 0 1
vn 0 0 -1
vn 0 -1 0
vn 0 1 0

# texcoords
vt 0.841797 0.5
vt 0.845703 0.5
vt 0.876953 0.5
vt 0.958984 0.5
vt 0.994141 0.5

# verts
v -9 2 1
v -9 2 -1
v -9 4 2
v -9 4 1
v -9 4 -1
v -9 4 -2
v -9 6 2
v -9 6 1
v -9 6 -1
v -9 6 -2
v -9 8 1
v -9 8 -1
v -8 1 3
v -8 1 -3
v -8 2 1
v -8 2 -1
v -8 4 2
v -8 4 1
v -8 4 -1
v -8 4 -2
v -8 6 2
v -8 6 1
v -8 6 -1
v -8 6 -2
v -8 8 1
v -8 8 -1
v -8 9 3
v -8 9 -3
v -7 1 4
v -7 1 3
v -7 1 -3
v -7 1 -4
v -7 9 4
v -7 9 3
v -7 9 -3
v -7 9 -4
v -6 1 5
v -6 1 4
v -6 1 -4
v -6 1 -5
v -6 9 5
v -6 9 4
v -6 9 3
v -6 9 -3
v -6 9 -4
v -6 9 -5
v -6 11 3
v -6 11 -3
v -5 1 6
v -5 1 5
v -5 1 -5
v -5 1 -6
v -5 9 6
v -5 9 5
v -5 9 4
v -5 9 3
v -5 9 -3
v -5 9 -4
v -5 9 -5
v -5 9 -6
v -5 11 4
v -5 11 3
v -5 11 -3
v -5 11 -4
v -4 1 7
v -4 1 6
v -4 1 -6
v -4 1 -7
v -4 9 7
v -4 9 6
v -4 9 5
v -4 9 4
v -4 9 -4
v -4 9 -5
v -4 9 -6
v -4 9 -7
v -4 11 5
v -4 11 4
v -4 11 3
v -4 11 -3
v -4 11 -4
v -4 11 -5
v -4 12 3
v -4 12 -3
v -3 1 8
v -3 1 7
v -3 1 -7
v -3 1 -8
v -3 9 8
v -3 9 7
v -3 9 6
v -3 9 5
v -3 9 -5
v -3 9 -6
v -3 9 -7
v -3 9 -8
v -3 11 6
v -3 11 5
v -3 11 4
v -3 11 3
v -3 11 -3
v -3 11 -4
v -3 11 -5
v -3 11 -6
v -3 12 4
v -3 12 3
v -3 12 -3
v -3 12 -4
v -3 19 3
v -3 19 -3
v -3 21 3
v -3 21 -3
v -2 4 9
v -2 4 8
v -2 4 -8
v -2 4 -9
v -2 6 9
v -2 6 8
v -2 6 -8
v -2 6 -9
v -2 12 2
v -2 12 -2
v -2 17 2
v -2 17 -2
v -2 19 2
v -2 19 -2
v -2 21 2
v -2 21 -2
v -2 22 2
v -2 22 -2
v -1 2 9
v -1 2 8
v -1 2 -8
v -1 2 -9
v -1 4 9
v -1 4 8
v -1 4 -8
v -1 4 -9
v -1 6 9
v -1 6 8
v -1 6 -8
v -1 6 -9
v -1 8 9
v -1 8 8
v -1 8 -8
v -1 8 -9
v 1 2 9
v 1 2 8
v 1 2 -8
v 1 2 -9
v 1 4 9
v 1 4 8
v 1 4 -8
v 1 4 -9
v 1 6 9
v 1 6 8
v 1 6 -8
v 1 6 -9
v 1 8 9
v 1 8 8
v 1 8 -8
v 1 8 -9
v 2 4 9
v 2 4 8
v 2 4 -8
v 2 4 -9
v 2 6 9
v 2 6 8
v 2 6 -8
v 2 6 -9
v 2 12 2
v 2 12 -2
v 2 17 2
v 2 17 -2
v 2 19 2
v 2 19 -2
v 2 21 2
v 2 21 -2
v 2 22 2
v 2 22 -2
v 3 1 8
v 3 1 7
v 3 1 -7
v 3 1 -8
v 3 9 8
v 3 9 7
v 3 9 6
v 3 9 5
v 3 9 -5
v 3 9 -6
v 3 9 -7
v 3 9 -8
v 3 11 6
v 3 11 5
v 3 11 4
v 3 11 3
v 3 11 -3
v 3 11 -4
v 3 11 -5
v 3 11 -6
v 3 12 4
v 3 12 3
v 3 12 -3
v 3 12 -4
v 3 19 3
v 3 19 -3
v 3 21 3
v 3 21 -3
v 4 1 7
v 4 1 6
v 4 1 -6
v 4 1 -7
v 4 9 7
v 4 9 6
v 4 9 5
v 4 9 4
v 4 9 -4
v 4 9 -5
v 4 9 -6
v 4 9 -7
v 4 11 5
v 4 11 4
v 4 11 3
v 4 11 -3
v 4 11 -4
v 4 11 -5
v 4 12 3
v 4 12 -3
v 5 1 6
v 5 1 5
v 5 1 -5
v 5 1 -6
v 5 9 6
v 5 9 5
v 5 9 4
v 5 9 3
v 5 9 -3
v 5 9 -4
v 5 9 -5
v 5 9 -6
v 5 11 4
v 5 11 3
v 5 11 -3
v 5 11 -4
v 6 1 5
v 6 1 4
v 6 1 -4
v 6 1 -5
v 6 9 5
v 6 9 4
v 6 9 3
v 6 9 -3
v 6 9 -4
v 6 9 -5
v 6 11 3
v 6 11 -3
v 7 1 4
v 7 1 3
v 7 1 -3
v 7 1 -4
v 7 9 4
v 7 9 3
v 7 9 -3
v 7 9 -4
v 8 1 3
v 8 1 -3
v 8 2 1
v 8 2 -1
v 8 4 2
v 8 4 1
v 8 4 -1
v 8 4 -2
v 8 6 2
v 8 6 1
v 8 6 -1
v 8 6 -2
v 8 8 1
v 8 8 -1
v 8 9 3
v 8 9 -3
v 9 2 1
v 9 2 -1
v 9 4 2
v 9 4 1
v 9 4 -1
v 9 4 -2
v 9 6 2
v 9 6 1
v 9 6 -1
v 9 6 -2
v 9 8 1
v 9 8 -1
v -2 4 9
v -2 6 9
v -1 2 9
v -1 4 9
v -1 6 9
v -1 8 9
v 1 2 9
v 1 4 9
v 1 6 9
v 1 8 9
v 2 4 9
v 2 6 9
v -3 1 8
v -3 9 8
v -2 4 8
v -2 6 8
v -1 2 8
v -1 4 8
v -1 6 8
v -1 8 8
v 1 2 8
v 1 4 8
v 1 6 8
v 1 8 8
v 2 4 8
v 2 6 8
v 3 1 8
v 3 9 8
v -4 1 7
v -4 9 7
v -3 1 7
v -3 9 7
v 3 1 7
v 3 9 7
v 4 1 7
v 4 9 7
v -5 1 6
v -5 9 6
v -4 1 6
v -4 9 6
v -3 9 6
v -3 11 6
v 3 9 6
v 3 11 6
v 4 1 6
v 4 9 6
v 5 1 6
v 5 9 6
v -6 1 5
v -6 9 5
v -5 1 5
v -5 9 5
v -4 9 5
v -4 11 5
v -3 9 5
v -3 11 5
v 3 9 5
v 3 11 5
v 4 9 5
v 4 11 5
v 5 1 5
v 5 9 5
v 6 1 5
v 6 9 5
v -7 1 4
v -7 9 4
v -6 1 4
v -6 9 4
v -5 9 4
v -5 11 4
v -4 9 4
v -4 11 4
v -3 11 4
v -3 12 4
v 3 11 4
v 3 12 4
v 4 9 4
v 4 11 4
v 5 9 4
v 5 11 4
v 6 1 4
v 6 9 4
v 7 1 4
v 7 9 4
v -8 1 3
v -8 9 3
v -7 1 3
v -7 9 3
v -6 9 3
v -6 11 3
v -5 9 3
v -5 11 3
v -4 11 3
v -4 12 3
v -3 11 3
v -3 12 3
v -3 19 3
v -3 21 3
v 3 11 3
v 3 12 3
v 3 19 3
v 3 21 3
v 4 11 3
v 4 12 3
v 5 9 3
v 5 11 3
v 6 9 3
v 6 11 3
v 7 1 3
v 7 9 3
v 8 1 3
v 8 9 3
v -9 4 2
v -9 6 2
v -8 4 2
v -8 6 2
v -2 12 2
v -2 17 2
v -2 19 2
v -2 21 2
v -2 22 2
v 2 12 2
v 2 17 2
v 2 19 2
v 2 21 2
v 2 22 2
v 8 4 2
v 8 6 2
v 9 4 2
v 9 6 2
v -9 2 1
v -9 4 1
v -9 6 1
v -9 8 1
v -8 2 1
v -8 4 1
v -8 6 1
v -8 8 1
v 8 2 1
v 8 4 1
v 8 6 1
v 8 8 1
v 9 2 1
v 9 4 1
v 9 6 1
v 9 8 1
v -9 2 -1
v -9 4 -1
v -9 6 -1
v -9 8 -1
v -8 2 -1
v -8 4 -1
v -8 6 -1
v -8 8 -1
v 8 2 -1
v 8 4 -1
v 8 6 -1
v 8 8 -1
v 9 2 -1
v 9 4 -1
v 9 6 -1
v 9 8 -1
v -9 4 -2
v -9 6 -2
v -8 4 -2
v -8 6 -2
v -2 12 -2
v -2 17 -2
v -2 19 -2
v -2 21 -2
v -2 22 -2
v 2 12 -2
v 2 17 -2
v 2 19 -2
v 2 21 -2
v 2 22 -2
v 8 4 -2
v 8 6 -2
v 9 4 -2
v 9 6 -2
v -8 1 -3
v -8 9 -3
v -7 1 -3
v -7 9 -3
v -6 9 -3
v -6 11 -3
v -5 9 -3
v -5 11 -3
v -4 11 -3
v -4 12 -3
v -3 11 -3
v -3 12 -3
v -3 19 -3
v -3 21 -3
v 3 11 -3
v 3 12 -3
v 3 19 -3
v 3 21 -3
v 4 11 -3
v 4 12 -3
v 5 9 -3
v 5 11 -3
v 6 9 -3
v 6 11 -3
v 7 1 -3
v 7 9 -3
v 8 1 -3
v 8 9 -3
v -7 1 -4
v -7 9 -4
v -6 1 -4
v -6 9 -4
v -5 9 -4
v -5 11 -4
v -4 9 -4
v -4 11 -4
v -3 11 -4
v -3 12 -4
v 3 11 -4
v 3 12 -4
v 4 9 -4
v 4 11 -4
v 5 9 -4
v 5 11 -4
v 6 1 -4
v 6 9 -4
v 7 1 -4
v 7 9 -4
v -6 1 -5
v -6 9 -5
v -5 1 -5
v -5 9 -5
v -4 9 -5
v -4 11 -5
v -3 9 -5
v -3 11 -5
v 3 9 -5
v 3 11 -5
v 4 9 -5
v 4 11 -5
v 5 1 -5
v 5 9 -5
v 6 1 -5
v 6 9 -5
v -5 1 -6
v -5 9 -6
v -4 1 -6
v -4 9 -6
v -3 9 -6
v -3 11 -6
v 3 9 -6
v 3 11 -6
v 4 1 -6
v 4 9 -6
v 5 1 -6
v 5 9 -6
v -4 1 -7
v -4 9 -7
v -3 1 -7
v -3 9 -7
v 3 1 -7
v 3 9 -7
v 4 1 -7
v 4 9 -7
v -3 1 -8
v -3 9 -8
v -2 4 -8
v -2 6 -8
v -1 2 -8
v -1 4 -8
v -1 6 -8
v -1 8 -8
v 1 2 -8
v 1 4 -8
v 1 6 -8
v 1 8 -8
v 2 4 -8
v 2 6 -8
v 3 1 -8
v 3 9 -8
v -2 4 -9
v -2 6 -9
v -1 2 -9
v -1 4 -9
v -1 6 -9
v -1 8 -9
v 1 2 -9
v 1 4 -9
v 1 6 -9
v 1 8 -9
v 2 4 -9
v 2 6 -9
v -3 1 8
v 3 1 8
v -4 1 7
v -3 1 7
v 3 1 7
v 4 1 7
v -5 1 6
v -4 1 6
v 4 1 6
v 5 1 6
v -6 1 5
v -5 1 5
v 5 1 5
v 6 1 5
v -7 1 4
v -6 1 4
v 6 1 4
v 7 1 4
v -8 1 3
v -7 1 3
v 7 1 3
v 8 1 3
v -8 1 -3
v -7 1 -3
v 7 1 -3
v 8 1 -3
v -7 1 -4
v -6 1 -4
v 6 1 -4
v 7 1 -4
v -6 1 -5
v -5 1 -5
v 5 1 -5
v 6 1 -5
v -5 1 -6
v -4 1 -6
v 4 1 -6
v 5 1 -6
v -4 1 -7
v -3 1 -7
v 3 1 -7
v 4 1 -7
v -3 1 -8
v 3 1 -8
v -1 2 9
v 1 2 9
v -1 2 8
v 1 2 8
v -9 2 1
v -8 2 1
v 8 2 1
v 9 2 1
v -9 2 -1
v -8 2 -1
v 8 2 -1
v 9 2 -1
v -1 2 -8
v 1 2 -8
v -1 2 -9
v 1 2 -9
v -2 4 9
v -1 4 9
v 1 4 9
v 2 4 9
v -2 4 8
v -1 4 8
v 1 4 8
v 2 4 8
v -9 4 2
v -8 4 2
v 8 4 2
v 9 4 2
v -9 4 1
v -8 4 1
v 8 4 1
v 9 4 1
v -9 4 -1
v -8 4 -1
v 8 4 -1
v 9 4 -1
v -9 4 -2
v -8 4 -2
v 8 4 -2
v 9 4 -2
v -2 4 -8
v -1 4 -8
v 1 4 -8
v 2 4 -8
v -2 4 -9
v -1 4 -9
v 1 4 -9
v 2 4 -9
v -3 19 3
v 3 19 3
v -2 19 2
v 2 19 2
v -2 19 -2
v 2 19 -2
v -3 19 -3
v 3 19 -3
v -2 6 9
v -1 6 9
v 1 6 9
v 2 6 9
v -2 6 8
v -1 6 8
v 1 6 8
v 2 6 8
v -9 6 2
v -8 6 2
v 8 6 2
v 9 6 2
v -9 6 1
v -8 6 1
v 8 6 1
v 9 6 1
v -9 6 -1
v -8 6 -1
v 8 6 -1
v 9 6 -1
v -9 6 -2
v -8 6 -2
v 8 6 -2
v 9 6 -2
v -2 6 -8
v -1 6 -8
v 1 6 -8
v 2 6 -8
v -2 6 -9
v -1 6 -9
v 1 6 -9
v 2 6 -9
v -1 8 9
v 1 8 9
v -1 8 8
v 1 8 8
v -9 8 1
v -8 8 1
v 8 8 1
v 9 8 1
v -9 8 -1
v -8 8 -1
v 8 8 -1
v 9 8 -1
v -1 8 -8
v 1 8 -8
v -1 8 -9
v 1 8 -9
v -3 9 8
v 3 9 8
v -4 9 7
v -3 9 7
v 3 9 7
v 4 9 7
v -5 9 6
v -4 9 6
v -3 9 6
v 3 9 6
v 4 9 6
v 5 9 6
v -6 9 5
v -5 9 5
v -4 9 5
v -3 9 5
v 3 9 5
v 4 9 5
v 5 9 5
v 6 9 5
v -7 9 4
v -6 9 4
v -5 9 4
v -4 9 4
v 4 9 4
v 5 9 4
v 6 9 4
v 7 9 4
v -8 9 3
v -7 9 3
v -6 9 3
v -5 9 3
v 5 9 3
v 6 9 3
v 7 9 3
v 8 9 3
v -8 9 -3
v -7 9 -3
v -6 9 -3
v -5 9 -3
v 5 9 -3
v 6 9 -3
v 7 9 -3
v 8 9 -3
v -7 9 -4
v -6 9 -4
v -5 9 -4
v -4 9 -4
v 4 9 -4
v 5 9 -4
v 6 9 -4
v 7 9 -4
v -6 9 -5
v -5 9 -5
v -4 9 -5
v -3 9 -5
v 3 9 -5
v 4 9 -5
v 5 9 -5
v 6 9 -5
v -5 9 -6
v -4 9 -6
v -3 9 -6
v 3 9 -6
v 4 9 -6
v 5 9 -6
v -4 9 -7
v -3 9 -7
v 3 9 -7
v 4 9 -7
v -3 9 -8
v 3 9 -8
v -3 11 6
v 3 11 6
v -4 11 5
v -3 11 5
v 3 11 5
v 4 11 5
v -5 11 4
v -4 11 4
v -3 11 4
v 3 11 4
v 4 11 4
v 5 11 4
v -6 11 3
v -5 11 3
v -4 11 3
v -3 11 3
v 3 11 3
v 4 11 3
v 5 11 3
v 6 11 3
v -6 11 -3
v -5 11 -3
v -4 11 -3
v -3 11 -3
v 3 11 -3
v 4 11 -3
v 5 11 -3
v 6 11 -3
v -5 11 -4
v -4 11 -4
v -3 11 -4
v 3 11 -4
v 4 11 -4
v 5 11 -4
v -4 11 -5
v -3 11 -5
v 3 11 -5
v 4 11 -5
v -3 11 -6
v 3 11 -6
v -3 12 4
v 3 12 4
v -4 12 3
v -3 12 3
v 3 12 3
v 4 12 3
v -2 12 2
v 2 12 2
v -2 12 -2
v 2 12 -2
v -4 12 -3
v -3 12 -3
v 3 12 -3
v 4 12 -3
v -3 12 -4
v 3 12 -4
v -3 21 3
v 3 21 3
v -2 21 2
v 2 21 2
v -2 21 -2
v 2 21 -2
v -3 21 -3
v 3 21 -3
v -2 22 2
v 2 22 2
v -2 22 -2
v 2 22 -2

# faces
f 4/2/1 2/2/1 1/2/1
f 5/2/1 2/2/1 4/2/1
f 7/2/1 4/2/1 3/2/1
f 7/2/1 6/2/1 5/2/1
f 7/2/1 5/2/1 4/2/1
f 8/2/1 6/2/1 7/2/1
f 9/2/1 6/2/1 8/2/1
f 10/2/1 6/2/1 9/2/1
f 11/2/1 9/2/1 8/2/1
f 12/2/1 9/2/1 11/2/1
f 15/1/1 14/1/1 13/1/1
f 16/1/1 14/1/1 15/1/1
f 17/1/1 15/1/1 13/1/1
f 18/1/1 15/1/1 17/1/1
f 19/1/1 14/1/1 16/1/1
f 20/1/1 14/1/1 19/1/1
f 21/1/1 17/1/1 13/1/1
f 24/1/1 14/1/1 20/1/1
f 25/1/1 22/1/1 21/1/1
f 26/1/1 24/1/1 23/1/1
f 27/1/1 25/1/1 21/1/1
f 27/1/1 26/1/1 25/1/1
f 27/1/1 21/1/1 13/1/1
f 28/1/1 24/1/1 26/1/1
f 28/1/1 26/1/1 27/1/1
f 28/1/1 14/1/1 24/1/1
f 33/1/1 30/1/1 29/1/1
f 34/1/1 30/1/1 33/1/1
f 35/1/1 32/1/1 31/1/1
f 36/1/1 32/1/1 35/1/1
f 41/1/1 38/1/1 37/1/1
f 42/1/1 38/1/1 41/1/1
f 45/1/1 40/1/1 39/1/1
f 46/1/1 40/1/1 45/1/1
f 47/1/1 44/1/1 43/1/1
f 48/1/1 44/1/1 47/1/1
f 53/1/1 50/1/1 49/1/1
f 54/1/1 50/1/1 53/1/1
f 59/1/1 52/1/1 51/1/1
f 60/1/1 52/1/1 59/1/1
f 61/1/1 56/1/1 55/1/1
f 62/1/1 56/1/1 61/1/1
f 63/1/1 58/1/1 57/1/1
f 64/1/1 58/1/1 63/1/1
f 69/1/1 66/1/1 65/1/1
f 70/1/1 66/1/1 69/1/1
f 75/1/1 68/1/1 67/1/1
f 76/1/1 68/1/1 75/1/1
f 77/1/1 72/1/1 71/1/1
f 78/1/1 72/1/1 77/1/1
f 81/1/1 74/1/1 73/1/1
f 82/1/1 74/1/1 81/1/1
f 83/1/1 80/1/1 79/1/1
f 84/1/1 80/1/1 83/1/1
f 89/1/1 86/1/1 85/1/1
f 90/1/1 86/1/1 89/1/1
f 95/1/1 88/1/1 87/1/1
f 96/1/1 88/1/1 95/1/1
f 97/1/1 92/1/1 91/1/1
f 98/1/1 92/1/1 97/1/1
f 103/1/1 94/1/1 93/1/1
f 104/1/1 94/1/1 103/1/1
f 105/1/1 100/1/1 99/1/1
f 106/1/1 100/1/1 105/1/1
f 107/1/1 102/1/1 101/1/1
f 108/1/1 102/1/1 107/1/1
f 111/4/1 110/4/1 109/4/1
f 112/4/1 110/4/1 111/4/1
f 117/2/1 114/2/1 113/2/1
f 118/2/1 114/2/1 117/2/1
f 119/2/1 116/2/1 115/2/1
f 120/2/1 116/2/1 119/2/1
f 123/1/1 122/1/1 121/1/1
f 124/1/1 122/1/1 123/1/1
f 125/3/1 124/3/1 123/3/1
f 126/3/1 124/3/1 125/3/1
f 129/5/1 128/5/1 127/5/1
f 130/5/1 128/5/1 129/5/1
f 135/2/1 132/2/1 131/2/1
f 136/2/1 132/2/1 135/2/1
f 137/2/1 134/2/1 133/2/1
f 138/2/1 134/2/1 137/2/1
f 143/2/1 140/2/1 139/2/1
f 144/2/1 140/2/1 143/2/1
f 145/2/1 142/2/1 141/2/1
f 146/2/1 142/2/1 145/2/1
f 147/2/2 148/2/2 151/2/2
f 151/2/2 148/2/2 152/2/2
f 149/2/2 150/2/2 153/2/2
f 153/2/2 150/2/2 154/2/2
f 155/2/2 156/2/2 159/2/2
f 159/2/2 156/2/2 160/2/2
f 157/2/2 158/2/2 161/2/2
f 161/2/2 158/2/2 162/2/2
f 163/2/2 164/2/2 167/2/2
f 167/2/2 164/2/2 168/2/2
f 165/2/2 166/2/2 169/2/2
f 169/2/2 166/2/2 170/2/2
f 171/1/2 172/1/2 173/1/2
f 173/1/2 172/1/2 174/1/2
f 173/3/2 174/3/2 175/3/2
f 175/3/2 174/3/2 176/3/2
f 177/5/2 178/5/2 179/5/2
f 179/5/2 178/5/2 180/5/2
f 181/1/2 182/1/2 185/1/2
f 185/1/2 182/1/2 186/1/2
f 183/1/2 184/1/2 191/1/2
f 191/1/2 184/1/2 192/1/2
f 187/1/2 188/1/2 193/1/2
f 193/1/2 188/1/2 194/1/2
f 189/1/2 190/1/2 199/1/2
f 199/1/2 190/1/2 200/1/2
f 195/1/2 196/1/2 201/1/2
f 201/1/2 196/1/2 202/1/2
f 197/1/2 198/1/2 203/1/2
f 203/1/2 198/1/2 204/1/2
f 205/4/2 206/4/2 207/4/2
f 207/4/2 206/4/2 208/4/2
f 209/1/2 210/1/2 213/1/2
f 213/1/2 210/1/2 214/1/2
f 211/1/2 212/1/2 219/1/2
f 219/1/2 212/1/2 220/1/2
f 215/1/2 216/1/2 221/1/2
f 221/1/2 216/1/2 222/1/2
f 217/1/2 218/1/2 225/1/2
f 225/1/2 218/1/2 226/1/2
f 223/1/2 224/1/2 227/1/2
f 227/1/2 224/1/2 228/1/2
f 229/1/2 230/1/2 233/1/2
f 233/1/2 230/1/2 234/1/2
f 231/1/2 232/1/2 239/1/2
f 239/1/2 232/1/2 240/1/2
f 235/1/2 236/1/2 241/1/2
f 241/1/2 236/1/2 242/1/2
f 237/1/2 238/1/2 243/1/2
f 243/1/2 238/1/2 244/1/2
f 245/1/2 246/1/2 249/1/2
f 249/1/2 246/1/2 250/1/2
f 247/1/2 248/1/2 253/1/2
f 253/1/2 248/1/2 254/1/2
f 251/1/2 252/1/2 255/1/2
f 255/1/2 252/1/2 256/1/2
f 257/1/2 258/1/2 261/1/2
f 261/1/2 258/1/2 262/1/2
f 259/1/2 260/1/2 263/1/2
f 263/1/2 260/1/2 264/1/2
f 265/1/2 266/1/2 267/1/2
f 267/1/2 266/1/2 268/1/2
f 265/1/2 267/1/2 269/1/2
f 269/1/2 267/1/2 270/1/2
f 268/1/2 266/1/2 271/1/2
f 271/1/2 266/1/2 272/1/2
f 265/1/2 269/1/2 273/1/2
f 272/1/2 266/1/2 276/1/2
f 273/1/2 274/1/2 277/1/2
f 275/1/2 276/1/2 278/1/2
f 273/1/2 277/1/2 279/1/2
f 277/1/2 278/1/2 279/1/2
f 265/1/2 273/1/2 279/1/2
f 278/1/2 276/1/2 280/1/2
f 279/1/2 278/1/2 280/1/2
f 276/1/2 266/1/2 280/1/2
f 281/2/2 282/2/2 284/2/2
f 284/2/2 282/2/2 285/2/2
f 283/2/2 284/2/2 287/2/2
f 285/2/2 286/2/2 287/2/2
f 284/2/2 285/2/2 287/2/2
f 287/2/2 286/2/2 288/2/2
f 288/2/2 286/2/2 289/2/2
f 289/2/2 286/2/2 290/2/2
f 288/2/2 289/2/2 291/2/2
f 291/2/2 289/2/2 292/2/2
f 296/2/3 294/2/3 293/2/3
f 297/2/3 294/2/3 296/2/3
f 299/2/3 296/2/3 295/2/3
f 299/2/3 298/2/3 297/2/3
f 299/2/3 297/2/3 296/2/3
f 300/2/3 298/2/3 299/2/3
f 301/2/3 298/2/3 300/2/3
f 302/2/3 298/2/3 301/2/3
f 303/2/3 301/2/3 300/2/3
f 304/2/3 301/2/3 303/2/3
f 307/1/3 306/1/3 305/1/3
f 308/1/3 306/1/3 307/1/3
f 309/1/3 307/1/3 305/1/3
f 310/1/3 307/1/3 309/1/3
f 311/1/3 306/1/3 308/1/3
f 312/1/3 306/1/3 311/1/3
f 313/1/3 309/1/3 305/1/3
f 316/1/3 306/1/3 312/1/3
f 317/1/3 314/1/3 313/1/3
f 318/1/3 316/1/3 315/1/3
f 319/1/3 317/1/3 313/1/3
f 319/1/3 318/1/3 317/1/3
f 319/1/3 313/1/3 305/1/3
f 320/1/3 316/1/3 318/1/3
f 320/1/3 318/1/3 319/1/3
f 320/1/3 306/1/3 316/1/3
f 323/1/3 322/1/3 321/1/3
f 324/1/3 322/1/3 323/1/3
f 327/1/3 326/1/3 325/1/3
f 328/1/3 326/1/3 327/1/3
f 331/1/3 330/1/3 329/1/3
f 332/1/3 330/1/3 331/1/3
f 335/1/3 334/1/3 333/1/3
f 336/1/3 334/1/3 335/1/3
f 339/1/3 338/1/3 337/1/3
f 340/1/3 338/1/3 339/1/3
f 343/1/3 342/1/3 341/1/3
f 344/1/3 342/1/3 343/1/3
f 347/1/3 346/1/3 345/1/3
f 348/1/3 346/1/3 347/1/3
f 351/1/3 350/1/3 349/1/3
f 352/1/3 350/1/3 351/1/3
f 355/1/3 354/1/3 353/1/3
f 356/1/3 354/1/3 355/1/3
f 359/1/3 358/1/3 357/1/3
f 360/1/3 358/1/3 359/1/3
f 363/1/3 362/1/3 361/1/3
f 364/1/3 362/1/3 363/1/3
f 367/1/3 366/1/3 365/1/3
f 368/1/3 366/1/3 367/1/3
f 371/1/3 370/1/3 369/1/3
f 372/1/3 370/1/3 371/1/3
f 375/1/3 374/1/3 373/1/3
f 376/1/3 374/1/3 375/1/3
f 379/1/3 378/1/3 377/1/3
f 380/1/3 378/1/3 379/1/3
f 383/1/3 382/1/3 381/1/3
f 384/1/3 382/1/3 383/1/3
f 387/1/3 386/1/3 385/1/3
f 388/1/3 386/1/3 387/1/3
f 393/4/3 390/4/3 389/4/3
f 394/4/3 390/4/3 393/4/3
f 395/1/3 392/1/3 391/1/3
f 396/1/3 392/1/3 395/1/3
f 399/1/3 398/1/3 397/1/3
f 400/1/3 398/1/3 399/1/3
f 403/1/3 402/1/3 401/1/3
f 404/1/3 402/1/3 403/1/3
f 407/2/3 406/2/3 405/2/3
f 408/2/3 406/2/3 407/2/3
f 414/1/3 410/1/3 409/1/3
f 415/3/3 411/3/3 410/3/3
f 415/1/3 410/1/3 414/1/3
f 416/3/3 411/3/3 415/3/3
f 417/5/3 413/5/3 412/5/3
f 418/5/3 413/5/3 417/5/3
f 421/2/3 420/2/3 419/2/3
f 422/2/3 420/2/3 421/2/3
f 427/2/3 424/2/3 423/2/3
f 428/2/3 424/2/3 427/2/3
f 429/2/3 426/2/3 425/2/3
f 430/2/3 426/2/3 429/2/3
f 435/2/3 432/2/3 431/2/3
f 436/2/3 432/2/3 435/2/3
f 437/2/3 434/2/3 433/2/3
f 438/2/3 434/2/3 437/2/3
f 439/2/4 440/2/4 443/2/4
f 443/2/4 440/2/4 444/2/4
f 441/2/4 442/2/4 445/2/4
f 445/2/4 442/2/4 446/2/4
f 447/2/4 448/2/4 451/2/4
f 451/2/4 448/2/4 452/2/4
f 449/2/4 450/2/4 453/2/4
f 453/2/4 450/2/4 454/2/4
f 455/2/4 456/2/4 457/2/4
f 457/2/4 456/2/4 458/2/4
f 459/1/4 460/1/4 464/1/4
f 460/3/4 461/3/4 465/3/4
f 464/1/4 460/1/4 465/1/4
f 465/3/4 461/3/4 466/3/4
f 462/5/4 463/5/4 467/5/4
f 467/5/4 463/5/4 468/5/4
f 469/2/4 470/2/4 471/2/4
f 471/2/4 470/2/4 472/2/4
f 473/1/4 474/1/4 475/1/4
f 475/1/4 474/1/4 476/1/4
f 477/1/4 478/1/4 479/1/4
f 479/1/4 478/1/4 480/1/4
f 481/1/4 482/1/4 483/1/4
f 483/1/4 482/1/4 484/1/4
f 485/4/4 486/4/4 489/4/4
f 489/4/4 486/4/4 490/4/4
f 487/1/4 488/1/4 491/1/4
f 491/1/4 488/1/4 492/1/4
f 493/1/4 494/1/4 495/1/4
f 495/1/4 494/1/4 496/1/4
f 497/1/4 498/1/4 499/1/4
f 499/1/4 498/1/4 500/1/4
f 501/1/4 502/1/4 503/1/4
f 503/1/4 502/1/4 504/1/4
f 505/1/4 506/1/4 507/1/4
f 507/1/4 506/1/4 508/1/4
f 509/1/4 510/1/4 511/1/4
f 511/1/4 510/1/4 512/1/4
f 513/1/4 514/1/4 515/1/4
f 515/1/4 514/1/4 516/1/4
f 517/1/4 518/1/4 519/1/4
f 519/1/4 518/1/4 520/1/4
f 521/1/4 522/1/4 523/1/4
f 523/1/4 522/1/4 524/1/4
f 525/1/4 526/1/4 527/1/4
f 527/1/4 526/1/4 528/1/4
f 529/1/4 530/1/4 531/1/4
f 531/1/4 530/1/4 532/1/4
f 533/1/4 534/1/4 535/1/4
f 535/1/4 534/1/4 536/1/4
f 537/1/4 538/1/4 539/1/4
f 539/1/4 538/1/4 540/1/4
f 541/1/4 542/1/4 543/1/4
f 543/1/4 542/1/4 544/1/4
f 545/1/4 546/1/4 547/1/4
f 547/1/4 546/1/4 548/1/4
f 549/1/4 550/1/4 551/1/4
f 551/1/4 550/1/4 552/1/4
f 553/1/4 554/1/4 555/1/4
f 555/1/4 554/1/4 556/1/4
f 557/1/4 558/1/4 559/1/4
f 559/1/4 558/1/4 560/1/4
f 557/1/4 559/1/4 561/1/4
f 561/1/4 559/1/4 562/1/4
f 560/1/4 558/1/4 563/1/4
f 563/1/4 558/1/4 564/1/4
f 557/1/4 561/1/4 565/1/4
f 564/1/4 558/1/4 568/1/4
f 565/1/4 566/1/4 569/1/4
f 567/1/4 568/1/4 570/1/4
f 565/1/4 569/1/4 571/1/4
f 569/1/4 570/1/4 571/1/4
f 557/1/4 565/1/4 571/1/4
f 570/1/4 568/1/4 572/1/4
f 571/1/4 570/1/4 572/1/4
f 568/1/4 558/1/4 572/1/4
f 573/2/4 574/2/4 576/2/4
f 576/2/4 574/2/4 577/2/4
f 575/2/4 576/2/4 579/2/4
f 577/2/4 578/2/4 579/2/4
f 576/2/4 577/2/4 579/2/4
f 579/2/4 578/2/4 580/2/4
f 580/2/4 578/2/4 581/2/4
f 581/2/4 578/2/4 582/2/4
f 580/2/4 581/2/4 583/2/4
f 583/2/4 581/2/4 584/2/4
f 588/1/5 586/1/5 585/1/5
f 589/1/5 586/1/5 588/1/5
f 592/1/5 588/1/5 587/1/5
f 592/1/5 590/1/5 589/1/5
f 592/1/5 589/1/5 588/1/5
f 593/1/5 590/1/5 592/1/5
f 596/1/5 592/1/5 591/1/5
f 596/1/5 594/1/5 593/1/5
f 596/1/5 593/1/5 592/1/5
f 597/1/5 594/1/5 596/1/5
f 600/1/5 596/1/5 595/1/5
f 600/1/5 598/1/5 597/1/5
f 600/1/5 597/1/5 596/1/5
f 601/1/5 598/1/5 600/1/5
f 604/1/5 600/1/5 599/1/5
f 604/1/5 602/1/5 601/1/5
f 604/1/5 601/1/5 600/1/5
f 605/1/5 602/1/5 604/1/5
f 607/1/5 604/1/5 603/1/5
f 607/1/5 606/1/5 605/1/5
f 607/1/5 605/1/5 604/1/5
f 608/1/5 606/1/5 607/1/5
f 609/1/5 606/1/5 608/1/5
f 610/1/5 606/1/5 609/1/5
f 611/1/5 609/1/5 608/1/5
f 612/1/5 609/1/5 611/1/5
f 613/1/5 609/1/5 612/1/5
f 614/1/5 609/1/5 613/1/5
f 615/1/5 613/1/5 612/1/5
f 616/1/5 613/1/5 615/1/5
f 617/1/5 613/1/5 616/1/5
f 618/1/5 613/1/5 617/1/5
f 619/1/5 617/1/5 616/1/5
f 620/1/5 617/1/5 619/1/5
f 621/1/5 617/1/5 620/1/5
f 622/1/5 617/1/5 621/1/5
f 623/1/5 621/1/5 620/1/5
f 624/1/5 621/1/5 623/1/5
f 625/1/5 621/1/5 624/1/5
f 626/1/5 621/1/5 625/1/5
f 627/1/5 625/1/5 624/1/5
f 628/1/5 625/1/5 627/1/5
f 631/2/5 630/2/5 629/2/5
f 632/2/5 630/2/5 631/2/5
f 637/2/5 634/2/5 633/2/5
f 638/2/5 634/2/5 637/2/5
f 639/2/5 636/2/5 635/2/5
f 640/2/5 636/2/5 639/2/5
f 643/2/5 642/2/5 641/2/5
f 644/2/5 642/2/5 643/2/5
f 649/2/5 646/2/5 645/2/5
f 650/2/5 646/2/5 649/2/5
f 651/2/5 648/2/5 647/2/5
f 652/2/5 648/2/5 651/2/5
f 657/2/5 654/2/5 653/2/5
f 658/2/5 654/2/5 657/2/5
f 659/2/5 656/2/5 655/2/5
f 660/2/5 656/2/5 659/2/5
f 665/2/5 662/2/5 661/2/5
f 666/2/5 662/2/5 665/2/5
f 667/2/5 664/2/5 663/2/5
f 668/2/5 664/2/5 667/2/5
f 673/2/5 670/2/5 669/2/5
f 674/2/5 670/2/5 673/2/5
f 675/2/5 672/2/5 671/2/5
f 676/2/5 672/2/5 675/2/5
f 679/4/5 678/4/5 677/4/5
f 680/4/5 678/4/5 679/4/5
f 681/4/5 679/4/5 677/4/5
f 682/4/5 678/4/5 680/4/5
f 683/4/5 681/4/5 677/4/5
f 683/4/5 682/4/5 681/4/5
f 684/4/5 678/4/5 682/4/5
f 684/4/5 682/4/5 683/4/5
f 685/2/6 686/2/6 689/2/6
f 689/2/6 686/2/6 690/2/6
f 687/2/6 688/2/6 691/2/6
f 691/2/6 688/2/6 692/2/6
f 693/2/6 694/2/6 697/2/6
f 697/2/6 694/2/6 698/2/6
f 695/2/6 696/2/6 699/2/6
f 699/2/6 696/2/6 700/2/6
f 701/2/6 702/2/6 705/2/6
f 705/2/6 702/2/6 706/2/6
f 703/2/6 704/2/6 707/2/6
f 707/2/6 704/2/6 708/2/6
f 709/2/6 710/2/6 713/2/6
f 713/2/6 710/2/6 714/2/6
f 711/2/6 712/2/6 715/2/6
f 715/2/6 712/2/6 716/2/6
f 717/2/6 718/2/6 719/2/6
f 719/2/6 718/2/6 720/2/6
f 721/2/6 722/2/6 725/2/6
f 725/2/6 722/2/6 726/2/6
f 723/2/6 724/2/6 727/2/6
f 727/2/6 724/2/6 728/2/6
f 729/2/6 730/2/6 731/2/6
f 731/2/6 730/2/6 732/2/6
f 733/1/6 734/1/6 736/1/6
f 736/1/6 734/1/6 737/1/6
f 735/1/6 736/1/6 740/1/6
f 737/1/6 738/1/6 740/1/6
f 736/1/6 737/1/6 740/1/6
f 740/1/6 738/1/6 741/1/6
f 741/1/6 738/1/6 742/1/6
f 742/1/6 738/1/6 743/1/6
f 739/1/6 740/1/6 746/1/6
f 740/1/6 741/1/6 746/1/6
f 746/1/6 741/1/6 747/1/6
f 747/1/6 741/1/6 748/1/6
f 742/1/6 743/1/6 749/1/6
f 743/1/6 744/1/6 749/1/6
f 749/1/6 744/1/6 750/1/6
f 750/1/6 744/1/6 751/1/6
f 746/1/6 747/1/6 754/1/6
f 745/1/6 746/1/6 754/1/6
f 754/1/6 747/1/6 755/1/6
f 755/1/6 747/1/6 756/1/6
f 751/1/6 752/1/6 757/1/6
f 750/1/6 751/1/6 757/1/6
f 757/1/6 752/1/6 758/1/6
f 758/1/6 752/1/6 759/1/6
f 754/1/6 755/1/6 762/1/6
f 753/1/6 754/1/6 762/1/6
f 762/1/6 755/1/6 763/1/6
f 763/1/6 755/1/6 764/1/6
f 759/1/6 760/1/6 765/1/6
f 758/1/6 759/1/6 765/1/6
f 765/1/6 760/1/6 766/1/6
f 766/1/6 760/1/6 767/1/6
f 762/1/6 763/1/6 769/1/6
f 761/1/6 762/1/6 769/1/6
f 769/1/6 763/1/6 770/1/6
f 770/1/6 763/1/6 771/1/6
f 767/1/6 768/1/6 774/1/6
f 766/1/6 767/1/6 774/1/6
f 774/1/6 768/1/6 775/1/6
f 775/1/6 768/1/6 776/1/6
f 771/1/6 772/1/6 777/1/6
f 770/1/6 771/1/6 777/1/6
f 777/1/6 772/1/6 778/1/6
f 778/1/6 772/1/6 779/1/6
f 774/1/6 775/1/6 782/1/6
f 773/1/6 774/1/6 782/1/6
f 782/1/6 775/1/6 783/1/6
f 783/1/6 775/1/6 784/1/6
f 779/1/6 780/1/6 785/1/6
f 778/1/6 779/1/6 785/1/6
f 785/1/6 780/1/6 786/1/6
f 786/1/6 780/1/6 787/1/6
f 782/1/6 783/1/6 790/1/6
f 781/1/6 782/1/6 790/1/6
f 790/1/6 783/1/6 791/1/6
f 791/1/6 783/1/6 792/1/6
f 787/1/6 788/1/6 793/1/6
f 786/1/6 787/1/6 793/1/6
f 793/1/6 788/1/6 794/1/6
f 794/1/6 788/1/6 795/1/6
f 790/1/6 791/1/6 796/1/6
f 789/1/6 790/1/6 796/1/6
f 796/1/6 791/1/6 797/1/6
f 797/1/6 791/1/6 798/1/6
f 794/1/6 795/1/6 799/1/6
f 796/1/6 797/1/6 799/1/6
f 795/1/6 796/1/6 799/1/6
f 799/1/6 797/1/6 800/1/6
f 800/1/6 797/1/6 801/1/6
f 801/1/6 797/1/6 802/1/6
f 800/1/6 801/1/6 803/1/6
f 803/1/6 801/1/6 804/1/6
f 805/1/6 806/1/6 808/1/6
f 808/1/6 806/1/6 809/1/6
f 807/1/6 808/1/6 812/1/6
f 809/1/6 810/1/6 812/1/6
f 808/1/6 809/1/6 812/1/6
f 812/1/6 810/1/6 813/1/6
f 813/1/6 810/1/6 814/1/6
f 814/1/6 810/1/6 815/1/6
f 811/1/6 812/1/6 818/1/6
f 812/1/6 813/1/6 818/1/6
f 818/1/6 813/1/6 819/1/6
f 819/1/6 813/1/6 820/1/6
f 814/1/6 815/1/6 821/1/6
f 815/1/6 816/1/6 821/1/6
f 821/1/6 816/1/6 822/1/6
f 822/1/6 816/1/6 823/1/6
f 818/1/6 819/1/6 825/1/6
f 817/1/6 818/1/6 825/1/6
f 825/1/6 819/1/6 826/1/6
f 826/1/6 819/1/6 827/1/6
f 823/1/6 824/1/6 830/1/6
f 822/1/6 823/1/6 830/1/6
f 830/1/6 824/1/6 831/1/6
f 831/1/6 824/1/6 832/1/6
f 827/1/6 828/1/6 833/1/6
f 826/1/6 827/1/6 833/1/6
f 833/1/6 828/1/6 834/1/6
f 834/1/6 828/1/6 835/1/6
f 830/1/6 831/1/6 836/1/6
f 829/1/6 830/1/6 836/1/6
f 836/1/6 831/1/6 837/1/6
f 837/1/6 831/1/6 838/1/6
f 834/1/6 835/1/6 839/1/6
f 836/1/6 837/1/6 839/1/6
f 835/1/6 836/1/6 839/1/6
f 839/1/6 837/1/6 840/1/6
f 840/1/6 837/1/6 841/1/6
f 841/1/6 837/1/6 842/1/6
f 840/1/6 841/1/6 843/1/6
f 843/1/6 841/1/6 844/1/6
f 845/1/6 846/1/6 848/1/6
f 848/1/6 846/1/6 849/1/6
f 847/1/6 848/1/6 851/1/6
f 849/1/6 850/1/6 851/1/6
f 848/1/6 849/1/6 851/1/6
f 851/1/6 850/1/6 852/1/6
f 847/1/6 851/1/6 853/1/6
f 852/1/6 850/1/6 854/1/6
f 847/1/6 853/1/6 855/1/6
f 853/1/6 854/1/6 855/1/6
f 855/1/6 854/1/6 856/1/6
f 854/1/6 850/1/6 857/1/6
f 856/1/6 854/1/6 857/1/6
f 857/1/6 850/1/6 858/1/6
f 856/1/6 857/1/6 859/1/6
f 859/1/6 857/1/6 860/1/6
f 861/4/6 862/4/6 863/4/6
f 863/4/6 862/4/6 864/4/6
f 861/4/6 863/4/6 865/4/6
f 864/4/6 862/4/6 866/4/6
f 861/4/6 865/4/6 867/4/6
f 865/4/6 866/4/6 867/4/6
f 866/4/6 862/4/6 868/4/6
f 867/4/6 866/4/6 868/4/6
f 869/5/6 870/5/6 871/5/6
f 871/5/6 870/5/6 872/5/6
