# MagicaVoxel @ Ephtracy

# group
g Axe

# material
mtllib Axe.mtl
usemtl palette

# normals
vn -1 0 0
vn 1 0 0
vn 0 0 1
vn 0 0 -1
vn 0 -1 0
vn 0 1 0

# texcoords
vt 0.177734 0.5
vt 0.923828 0.5
vt 0.927734 0.5
vt 0.931641 0.5
vt 0.935547 0.5
vt 0.966797 0.5
vt 0.970703 0.5
vt 0.974609 0.5
vt 0.978516 0.5
vt 0.982422 0.5

# verts
v -5.5 19 0.5
v -5.5 19 -0.5
v -5.5 22 0.5
v -5.5 22 -0.5
v -4.5 17 0.5
v -4.5 17 -0.5
v -4.5 19 0.5
v -4.5 19 -0.5
v -4.5 22 0.5
v -4.5 22 -0.5
v -4.5 24 0.5
v -4.5 24 -0.5
v -3.5 16 0.5
v -3.5 16 -0.5
v -3.5 17 0.5
v -3.5 17 -0.5
v -3.5 24 0.5
v -3.5 24 -0.5
v -3.5 25 0.5
v -3.5 25 -0.5
v -2.5 15 0.5
v -2.5 15 -0.5
v -2.5 16 0.5
v -2.5 16 -0.5
v -2.5 25 0.5
v -2.5 25 -0.5
v -2.5 26 0.5
v -2.5 26 -0.5
v -1.5 14 0.5
v -1.5 14 -0.5
v -1.5 15 0.5
v -1.5 15 -0.5
v -0.5 13 0.5
v -0.5 13 -0.5
v -0.5 14 0.5
v -0.5 14 -0.5
v -0.5 18 0.5
v -0.5 18 -0.5
v -0.5 21 0.5
v -0.5 21 -0.5
v -0.5 26 0.5
v -0.5 26 -0.5
v -0.5 27 0.5
v -0.5 27 -0.5
v 0.5 12 0.5
v 0.5 12 -0.5
v 0.5 13 0.5
v 0.5 13 -0.5
v 0.5 17 0.5
v 0.5 17 -0.5
v 0.5 18 0.5
v 0.5 18 -0.5
v 0.5 21 0.5
v 0.5 21 -0.5
v 0.5 22 0.5
v 0.5 22 -0.5
v 1.5 11 0.5
v 1.5 11 -0.5
v 1.5 12 0.5
v 1.5 12 -0.5
v 1.5 16 0.5
v 1.5 16 -0.5
v 1.5 17 0.5
v 1.5 17 -0.5
v 1.5 22 0.5
v 1.5 22 -0.5
v 1.5 23 0.5
v 1.5 23 -0.5
v 2.5 1 0.5
v 2.5 1 -0.5
v 2.5 2 0.5
v 2.5 2 -0.5
v 3.5 0 0.5
v 3.5 0 -0.5
v 3.5 1 1.5
v 3.5 1 0.5
v 3.5 1 -0.5
v 3.5 1 -1.5
v 3.5 2 1.5
v 3.5 2 0.5
v 3.5 2 -0.5
v 3.5 2 -1.5
v 3.5 3 0.5
v 3.5 3 -0.5
v 3.5 4 0.5
v 3.5 4 -0.5
v 3.5 5 0.5
v 3.5 5 -0.5
v 3.5 6 0.5
v 3.5 6 -0.5
v 3.5 7 0.5
v 3.5 7 -0.5
v 3.5 8 0.5
v 3.5 8 -0.5
v 3.5 9 0.5
v 3.5 9 -0.5
v 3.5 10 0.5
v 3.5 10 -0.5
v 3.5 11 0.5
v 3.5 11 -0.5
v 3.5 16 0.5
v 3.5 16 -0.5
v 3.5 17 0.5
v 3.5 17 -0.5
v 3.5 21 0.5
v 3.5 21 -0.5
v 3.5 22 0.5
v 3.5 22 -0.5
v 3.5 23 0.5
v 3.5 23 -0.5
v -1.5 18 0.5
v -1.5 18 -0.5
v -1.5 21 0.5
v -1.5 21 -0.5
v -0.5 17 0.5
v -0.5 17 -0.5
v -0.5 18 0.5
v -0.5 18 -0.5
v -0.5 21 0.5
v -0.5 21 -0.5
v -0.5 22 0.5
v -0.5 22 -0.5
v 0.5 16 0.5
v 0.5 16 -0.5
v 0.5 17 0.5
v 0.5 17 -0.5
v 0.5 22 0.5
v 0.5 22 -0.5
v 0.5 23 0.5
v 0.5 23 -0.5
v 1.5 26 0.5
v 1.5 26 -0.5
v 1.5 27 0.5
v 1.5 27 -0.5
v 2.5 11 0.5
v 2.5 11 -0.5
v 2.5 12 0.5
v 2.5 12 -0.5
v 2.5 14 0.5
v 2.5 14 -0.5
v 2.5 15 0.5
v 2.5 15 -0.5
v 2.5 16 0.5
v 2.5 16 -0.5
v 2.5 17 0.5
v 2.5 17 -0.5
v 2.5 18 0.5
v 2.5 18 -0.5
v 2.5 20 0.5
v 2.5 20 -0.5
v 2.5 21 0.5
v 2.5 21 -0.5
v 2.5 22 0.5
v 2.5 22 -0.5
v 2.5 23 0.5
v 2.5 23 -0.5
v 2.5 24 0.5
v 2.5 24 -0.5
v 3.5 25 0.5
v 3.5 25 -0.5
v 3.5 26 0.5
v 3.5 26 -0.5
v 4.5 0 0.5
v 4.5 0 -0.5
v 4.5 1 1.5
v 4.5 1 0.5
v 4.5 1 -0.5
v 4.5 1 -1.5
v 4.5 2 1.5
v 4.5 2 0.5
v 4.5 2 -0.5
v 4.5 2 -1.5
v 4.5 3 0.5
v 4.5 3 -0.5
v 4.5 4 0.5
v 4.5 4 -0.5
v 4.5 5 0.5
v 4.5 5 -0.5
v 4.5 6 0.5
v 4.5 6 -0.5
v 4.5 7 0.5
v 4.5 7 -0.5
v 4.5 8 0.5
v 4.5 8 -0.5
v 4.5 9 0.5
v 4.5 9 -0.5
v 4.5 10 0.5
v 4.5 10 -0.5
v 4.5 11 0.5
v 4.5 11 -0.5
v 4.5 23 0.5
v 4.5 23 -0.5
v 4.5 24 0.5
v 4.5 24 -0.5
v 4.5 25 0.5
v 4.5 25 -0.5
v 5.5 1 0.5
v 5.5 1 -0.5
v 5.5 2 0.5
v 5.5 2 -0.5
v 3.5 1 1.5
v 3.5 2 1.5
v 4.5 1 1.5
v 4.5 2 1.5
v -5.5 19 0.5
v -5.5 22 0.5
v -4.5 17 0.5
v -4.5 19 0.5
v -4.5 22 0.5
v -4.5 24 0.5
v -3.5 16 0.5
v -3.5 17 0.5
v -3.5 19 0.5
v -3.5 22 0.5
v -3.5 24 0.5
v -3.5 25 0.5
v -2.5 15 0.5
v -2.5 16 0.5
v -2.5 17 0.5
v -2.5 24 0.5
v -2.5 25 0.5
v -2.5 26 0.5
v -1.5 14 0.5
v -1.5 15 0.5
v -1.5 16 0.5
v -1.5 18 0.5
v -1.5 21 0.5
v -0.5 13 0.5
v -0.5 14 0.5
v -0.5 15 0.5
v -0.5 17 0.5
v -0.5 18 0.5
v -0.5 21 0.5
v -0.5 22 0.5
v -0.5 25 0.5
v -0.5 26 0.5
v -0.5 27 0.5
v 0.5 12 0.5
v 0.5 13 0.5
v 0.5 14 0.5
v 0.5 15 0.5
v 0.5 16 0.5
v 0.5 17 0.5
v 0.5 18 0.5
v 0.5 20 0.5
v 0.5 21 0.5
v 0.5 22 0.5
v 0.5 23 0.5
v 1.5 11 0.5
v 1.5 12 0.5
v 1.5 13 0.5
v 1.5 14 0.5
v 1.5 15 0.5
v 1.5 16 0.5
v 1.5 17 0.5
v 1.5 18 0.5
v 1.5 20 0.5
v 1.5 21 0.5
v 1.5 22 0.5
v 1.5 23 0.5
v 1.5 24 0.5
v 1.5 25 0.5
v 1.5 26 0.5
v 1.5 27 0.5
v 2.5 1 0.5
v 2.5 2 0.5
v 2.5 11 0.5
v 2.5 12 0.5
v 2.5 14 0.5
v 2.5 15 0.5
v 2.5 16 0.5
v 2.5 17 0.5
v 2.5 18 0.5
v 2.5 20 0.5
v 2.5 21 0.5
v 2.5 22 0.5
v 2.5 23 0.5
v 2.5 24 0.5
v 3.5 0 0.5
v 3.5 1 0.5
v 3.5 2 0.5
v 3.5 3 0.5
v 3.5 4 0.5
v 3.5 5 0.5
v 3.5 6 0.5
v 3.5 7 0.5
v 3.5 8 0.5
v 3.5 9 0.5
v 3.5 10 0.5
v 3.5 11 0.5
v 3.5 16 0.5
v 3.5 17 0.5
v 3.5 21 0.5
v 3.5 22 0.5
v 3.5 23 0.5
v 3.5 24 0.5
v 3.5 25 0.5
v 3.5 26 0.5
v 4.5 0 0.5
v 4.5 1 0.5
v 4.5 2 0.5
v 4.5 3 0.5
v 4.5 4 0.5
v 4.5 5 0.5
v 4.5 6 0.5
v 4.5 7 0.5
v 4.5 8 0.5
v 4.5 9 0.5
v 4.5 10 0.5
v 4.5 11 0.5
v 4.5 23 0.5
v 4.5 24 0.5
v 4.5 25 0.5
v 5.5 1 0.5
v 5.5 2 0.5
v -5.5 19 -0.5
v -5.5 22 -0.5
v -4.5 17 -0.5
v -4.5 19 -0.5
v -4.5 22 -0.5
v -4.5 24 -0.5
v -3.5 16 -0.5
v -3.5 17 -0.5
v -3.5 19 -0.5
v -3.5 22 -0.5
v -3.5 24 -0.5
v -3.5 25 -0.5
v -2.5 15 -0.5
v -2.5 16 -0.5
v -2.5 17 -0.5
v -2.5 24 -0.5
v -2.5 25 -0.5
v -2.5 26 -0.5
v -1.5 14 -0.5
v -1.5 15 -0.5
v -1.5 16 -0.5
v -1.5 18 -0.5
v -1.5 21 -0.5
v -0.5 13 -0.5
v -0.5 14 -0.5
v -0.5 15 -0.5
v -0.5 17 -0.5
v -0.5 18 -0.5
v -0.5 21 -0.5
v -0.5 22 -0.5
v -0.5 25 -0.5
v -0.5 26 -0.5
v -0.5 27 -0.5
v 0.5 12 -0.5
v 0.5 13 -0.5
v 0.5 14 -0.5
v 0.5 15 -0.5
v 0.5 16 -0.5
v 0.5 17 -0.5
v 0.5 18 -0.5
v 0.5 20 -0.5
v 0.5 21 -0.5
v 0.5 22 -0.5
v 0.5 23 -0.5
v 1.5 11 -0.5
v 1.5 12 -0.5
v 1.5 13 -0.5
v 1.5 14 -0.5
v 1.5 15 -0.5
v 1.5 16 -0.5
v 1.5 17 -0.5
v 1.5 18 -0.5
v 1.5 20 -0.5
v 1.5 21 -0.5
v 1.5 22 -0.5
v 1.5 23 -0.5
v 1.5 24 -0.5
v 1.5 25 -0.5
v 1.5 26 -0.5
v 1.5 27 -0.5
v 2.5 1 -0.5
v 2.5 2 -0.5
v 2.5 11 -0.5
v 2.5 12 -0.5
v 2.5 14 -0.5
v 2.5 15 -0.5
v 2.5 16 -0.5
v 2.5 17 -0.5
v 2.5 18 -0.5
v 2.5 20 -0.5
v 2.5 21 -0.5
v 2.5 22 -0.5
v 2.5 23 -0.5
v 2.5 24 -0.5
v 3.5 0 -0.5
v 3.5 1 -0.5
v 3.5 2 -0.5
v 3.5 3 -0.5
v 3.5 4 -0.5
v 3.5 5 -0.5
v 3.5 6 -0.5
v 3.5 7 -0.5
v 3.5 8 -0.5
v 3.5 9 -0.5
v 3.5 10 -0.5
v 3.5 11 -0.5
v 3.5 16 -0.5
v 3.5 17 -0.5
v 3.5 21 -0.5
v 3.5 22 -0.5
v 3.5 23 -0.5
v 3.5 24 -0.5
v 3.5 25 -0.5
v 3.5 26 -0.5
v 4.5 0 -0.5
v 4.5 1 -0.5
v 4.5 2 -0.5
v 4.5 3 -0.5
v 4.5 4 -0.5
v 4.5 5 -0.5
v 4.5 6 -0.5
v 4.5 7 -0.5
v 4.5 8 -0.5
v 4.5 9 -0.5
v 4.5 10 -0.5
v 4.5 11 -0.5
v 4.5 23 -0.5
v 4.5 24 -0.5
v 4.5 25 -0.5
v 5.5 1 -0.5
v 5.5 2 -0.5
v 3.5 1 -1.5
v 3.5 2 -1.5
v 4.5 1 -1.5
v 4.5 2 -1.5
v 3.5 0 0.5
v 4.5 0 0.5
v 3.5 0 -0.5
v 4.5 0 -0.5
v 3.5 1 1.5
v 4.5 1 1.5
v 2.5 1 0.5
v 3.5 1 0.5
v 4.5 1 0.5
v 5.5 1 0.5
v 2.5 1 -0.5
v 3.5 1 -0.5
v 4.5 1 -0.5
v 5.5 1 -0.5
v 3.5 1 -1.5
v 4.5 1 -1.5
v 1.5 11 0.5
v 2.5 11 0.5
v 1.5 11 -0.5
v 2.5 11 -0.5
v 0.5 12 0.5
v 1.5 12 0.5
v 0.5 12 -0.5
v 1.5 12 -0.5
v -0.5 13 0.5
v 0.5 13 0.5
v -0.5 13 -0.5
v 0.5 13 -0.5
v -1.5 14 0.5
v -0.5 14 0.5
v -1.5 14 -0.5
v -0.5 14 -0.5
v -2.5 15 0.5
v -1.5 15 0.5
v -2.5 15 -0.5
v -1.5 15 -0.5
v -3.5 16 0.5
v -2.5 16 0.5
v 2.5 16 0.5
v 3.5 16 0.5
v -3.5 16 -0.5
v -2.5 16 -0.5
v 2.5 16 -0.5
v 3.5 16 -0.5
v -4.5 17 0.5
v -3.5 17 0.5
v 0.5 17 0.5
v 1.5 17 0.5
v -4.5 17 -0.5
v -3.5 17 -0.5
v 0.5 17 -0.5
v 1.5 17 -0.5
v -0.5 18 0.5
v 0.5 18 0.5
v -0.5 18 -0.5
v 0.5 18 -0.5
v -5.5 19 0.5
v -4.5 19 0.5
v -5.5 19 -0.5
v -4.5 19 -0.5
v -1.5 21 0.5
v -0.5 21 0.5
v 2.5 21 0.5
v 3.5 21 0.5
v -1.5 21 -0.5
v -0.5 21 -0.5
v 2.5 21 -0.5
v 3.5 21 -0.5
v -0.5 22 0.5
v 0.5 22 0.5
v -0.5 22 -0.5
v 0.5 22 -0.5
v 0.5 23 0.5
v 1.5 23 0.5
v 0.5 23 -0.5
v 1.5 23 -0.5
v 2.5 24 0.5
v 3.5 24 0.5
v 4.5 24 0.5
v 2.5 24 -0.5
v 3.5 24 -0.5
v 4.5 24 -0.5
v 3.5 2 1.5
v 4.5 2 1.5
v 2.5 2 0.5
v 3.5 2 0.5
v 4.5 2 0.5
v 5.5 2 0.5
v 2.5 2 -0.5
v 3.5 2 -0.5
v 4.5 2 -0.5
v 5.5 2 -0.5
v 3.5 2 -1.5
v 4.5 2 -1.5
v 0.5 16 0.5
v 1.5 16 0.5
v 0.5 16 -0.5
v 1.5 16 -0.5
v -0.5 17 0.5
v 0.5 17 0.5
v 2.5 17 0.5
v 3.5 17 0.5
v -0.5 17 -0.5
v 0.5 17 -0.5
v 2.5 17 -0.5
v 3.5 17 -0.5
v -1.5 18 0.5
v -0.5 18 0.5
v -1.5 18 -0.5
v -0.5 18 -0.5
v -0.5 21 0.5
v 0.5 21 0.5
v -0.5 21 -0.5
v 0.5 21 -0.5
v -5.5 22 0.5
v -4.5 22 0.5
v 0.5 22 0.5
v 1.5 22 0.5
v 2.5 22 0.5
v 3.5 22 0.5
v -5.5 22 -0.5
v -4.5 22 -0.5
v 0.5 22 -0.5
v 1.5 22 -0.5
v 2.5 22 -0.5
v 3.5 22 -0.5
v 3.5 23 0.5
v 4.5 23 0.5
v 3.5 23 -0.5
v 4.5 23 -0.5
v -4.5 24 0.5
v -3.5 24 0.5
v -4.5 24 -0.5
v -3.5 24 -0.5
v -3.5 25 0.5
v -2.5 25 0.5
v 3.5 25 0.5
v 4.5 25 0.5
v -3.5 25 -0.5
v -2.5 25 -0.5
v 3.5 25 -0.5
v 4.5 25 -0.5
v -2.5 26 0.5
v -0.5 26 0.5
v 1.5 26 0.5
v 3.5 26 0.5
v -2.5 26 -0.5
v -0.5 26 -0.5
v 1.5 26 -0.5
v 3.5 26 -0.5
v -0.5 27 0.5
v 1.5 27 0.5
v -0.5 27 -0.5
v 1.5 27 -0.5

# faces
f 3/2/1 2/2/1 1/2/1
f 4/2/1 2/2/1 3/2/1
f 7/2/1 6/2/1 5/2/1
f 8/2/1 6/2/1 7/2/1
f 11/2/1 10/2/1 9/2/1
f 12/2/1 10/2/1 11/2/1
f 15/2/1 14/2/1 13/2/1
f 16/2/1 14/2/1 15/2/1
f 19/2/1 18/2/1 17/2/1
f 20/2/1 18/2/1 19/2/1
f 23/2/1 22/2/1 21/2/1
f 24/2/1 22/2/1 23/2/1
f 27/2/1 26/2/1 25/2/1
f 28/2/1 26/2/1 27/2/1
f 31/2/1 30/2/1 29/2/1
f 32/2/1 30/2/1 31/2/1
f 35/2/1 34/2/1 33/2/1
f 36/2/1 34/2/1 35/2/1
f 39/3/1 38/3/1 37/3/1
f 40/3/1 38/3/1 39/3/1
f 43/2/1 42/2/1 41/2/1
f 44/2/1 42/2/1 43/2/1
f 47/2/1 46/2/1 45/2/1
f 48/2/1 46/2/1 47/2/1
f 51/4/1 50/4/1 49/4/1
f 52/4/1 50/4/1 51/4/1
f 55/5/1 54/5/1 53/5/1
f 56/5/1 54/5/1 55/5/1
f 59/2/1 58/2/1 57/2/1
f 60/2/1 58/2/1 59/2/1
f 63/5/1 62/5/1 61/5/1
f 64/5/1 62/5/1 63/5/1
f 67/5/1 66/5/1 65/5/1
f 68/5/1 66/5/1 67/5/1
f 71/5/1 70/5/1 69/5/1
f 72/5/1 70/5/1 71/5/1
f 76/5/1 74/5/1 73/5/1
f 77/5/1 74/5/1 76/5/1
f 79/5/1 76/5/1 75/5/1
f 80/5/1 76/5/1 79/5/1
f 81/5/1 78/5/1 77/5/1
f 82/5/1 78/5/1 81/5/1
f 83/6/1 81/6/1 80/6/1
f 84/6/1 81/6/1 83/6/1
f 85/7/1 84/7/1 83/7/1
f 86/7/1 84/7/1 85/7/1
f 87/8/1 86/8/1 85/8/1
f 88/8/1 86/8/1 87/8/1
f 89/9/1 88/9/1 87/9/1
f 90/9/1 88/9/1 89/9/1
f 91/10/1 90/10/1 89/10/1
f 92/10/1 90/10/1 91/10/1
f 93/9/1 92/9/1 91/9/1
f 94/9/1 92/9/1 93/9/1
f 95/8/1 94/8/1 93/8/1
f 96/8/1 94/8/1 95/8/1
f 97/7/1 96/7/1 95/7/1
f 98/7/1 96/7/1 97/7/1
f 99/6/1 98/6/1 97/6/1
f 100/6/1 98/6/1 99/6/1
f 101/1/1 100/1/1 99/1/1
f 102/1/1 100/1/1 101/1/1
f 105/1/1 104/1/1 103/1/1
f 106/1/1 104/1/1 105/1/1
f 109/1/1 108/1/1 107/1/1
f 110/1/1 108/1/1 109/1/1
f 111/3/2 112/3/2 113/3/2
f 113/3/2 112/3/2 114/3/2
f 115/3/2 116/3/2 117/3/2
f 117/3/2 116/3/2 118/3/2
f 119/3/2 120/3/2 121/3/2
f 121/3/2 120/3/2 122/3/2
f 123/3/2 124/3/2 125/3/2
f 125/3/2 124/3/2 126/3/2
f 127/3/2 128/3/2 129/3/2
f 129/3/2 128/3/2 130/3/2
f 131/2/2 132/2/2 133/2/2
f 133/2/2 132/2/2 134/2/2
f 135/2/2 136/2/2 137/2/2
f 137/2/2 136/2/2 138/2/2
f 137/3/2 138/3/2 139/3/2
f 139/3/2 138/3/2 140/3/2
f 139/4/2 140/4/2 141/4/2
f 141/4/2 140/4/2 142/4/2
f 141/5/2 142/5/2 143/5/2
f 143/5/2 142/5/2 144/5/2
f 145/5/2 146/5/2 147/5/2
f 147/5/2 146/5/2 148/5/2
f 147/4/2 148/4/2 149/4/2
f 149/4/2 148/4/2 150/4/2
f 149/5/2 150/5/2 151/5/2
f 151/5/2 150/5/2 152/5/2
f 153/5/2 154/5/2 155/5/2
f 155/5/2 154/5/2 156/5/2
f 155/4/2 156/4/2 157/4/2
f 157/4/2 156/4/2 158/4/2
f 159/2/2 160/2/2 161/2/2
f 161/2/2 160/2/2 162/2/2
f 163/5/2 164/5/2 166/5/2
f 166/5/2 164/5/2 167/5/2
f 165/5/2 166/5/2 169/5/2
f 169/5/2 166/5/2 170/5/2
f 167/5/2 168/5/2 171/5/2
f 171/5/2 168/5/2 172/5/2
f 170/6/2 171/6/2 173/6/2
f 173/6/2 171/6/2 174/6/2
f 173/7/2 174/7/2 175/7/2
f 175/7/2 174/7/2 176/7/2
f 175/8/2 176/8/2 177/8/2
f 177/8/2 176/8/2 178/8/2
f 177/9/2 178/9/2 179/9/2
f 179/9/2 178/9/2 180/9/2
f 179/10/2 180/10/2 181/10/2
f 181/10/2 180/10/2 182/10/2
f 181/9/2 182/9/2 183/9/2
f 183/9/2 182/9/2 184/9/2
f 183/8/2 184/8/2 185/8/2
f 185/8/2 184/8/2 186/8/2
f 185/7/2 186/7/2 187/7/2
f 187/7/2 186/7/2 188/7/2
f 187/6/2 188/6/2 189/6/2
f 189/6/2 188/6/2 190/6/2
f 189/1/2 190/1/2 191/1/2
f 191/1/2 190/1/2 192/1/2
f 193/2/2 194/2/2 195/2/2
f 195/2/2 194/2/2 196/2/2
f 197/5/2 198/5/2 199/5/2
f 199/5/2 198/5/2 200/5/2
f 203/5/3 202/5/3 201/5/3
f 204/5/3 202/5/3 203/5/3
f 208/2/3 206/2/3 205/2/3
f 209/2/3 206/2/3 208/2/3
f 212/2/3 208/2/3 207/2/3
f 213/3/3 209/3/3 208/3/3
f 213/2/3 208/2/3 212/2/3
f 214/2/3 210/2/3 209/2/3
f 214/3/3 209/3/3 213/3/3
f 215/2/3 210/2/3 214/2/3
f 218/2/3 212/2/3 211/2/3
f 219/3/3 213/3/3 212/3/3
f 219/3/3 214/3/3 213/3/3
f 219/2/3 212/2/3 218/2/3
f 219/3/3 215/3/3 214/3/3
f 220/2/3 216/2/3 215/2/3
f 220/3/3 215/3/3 219/3/3
f 221/2/3 216/2/3 220/2/3
f 224/2/3 218/2/3 217/2/3
f 225/3/3 219/3/3 218/3/3
f 225/3/3 220/3/3 219/3/3
f 225/2/3 218/2/3 224/2/3
f 225/3/3 221/3/3 220/3/3
f 226/3/3 221/3/3 225/3/3
f 227/3/3 221/3/3 226/3/3
f 229/2/3 224/2/3 223/2/3
f 230/3/3 225/3/3 224/3/3
f 230/3/3 226/3/3 225/3/3
f 230/2/3 224/2/3 229/2/3
f 231/3/3 226/3/3 230/3/3
f 232/3/3 226/3/3 231/3/3
f 233/3/3 221/3/3 227/3/3
f 234/3/3 221/3/3 233/3/3
f 235/2/3 222/2/3 221/2/3
f 235/3/3 221/3/3 234/3/3
f 236/2/3 222/2/3 235/2/3
f 239/2/3 229/2/3 228/2/3
f 240/3/3 230/3/3 229/3/3
f 240/3/3 231/3/3 230/3/3
f 240/2/3 229/2/3 239/2/3
f 241/3/3 231/3/3 240/3/3
f 242/3/3 231/3/3 241/3/3
f 243/3/3 231/3/3 242/3/3
f 244/3/3 233/3/3 232/3/3
f 245/3/3 233/3/3 244/3/3
f 246/3/3 233/3/3 245/3/3
f 247/3/3 236/3/3 235/3/3
f 247/3/3 235/3/3 234/3/3
f 248/3/3 236/3/3 247/3/3
f 250/2/3 239/2/3 238/2/3
f 251/3/3 240/3/3 239/3/3
f 251/3/3 241/3/3 240/3/3
f 251/2/3 239/2/3 250/2/3
f 252/3/3 241/3/3 251/3/3
f 253/4/3 242/4/3 241/4/3
f 253/3/3 241/3/3 252/3/3
f 254/4/3 242/4/3 253/4/3
f 255/4/3 244/4/3 243/4/3
f 256/3/3 245/3/3 244/3/3
f 256/4/3 244/4/3 255/4/3
f 257/4/3 246/4/3 245/4/3
f 257/3/3 245/3/3 256/3/3
f 258/5/3 247/5/3 246/5/3
f 258/4/3 246/4/3 257/4/3
f 259/5/3 247/5/3 258/5/3
f 260/3/3 236/3/3 248/3/3
f 261/3/3 236/3/3 260/3/3
f 262/3/3 236/3/3 261/3/3
f 263/2/3 237/2/3 236/2/3
f 263/3/3 236/3/3 262/3/3
f 264/2/3 237/2/3 263/2/3
f 267/2/3 250/2/3 249/2/3
f 268/3/3 252/3/3 251/3/3
f 268/2/3 250/2/3 267/2/3
f 268/3/3 251/3/3 250/3/3
f 269/4/3 253/4/3 252/4/3
f 269/3/3 252/3/3 268/3/3
f 270/5/3 256/5/3 255/5/3
f 270/4/3 253/4/3 269/4/3
f 270/5/3 255/5/3 254/5/3
f 270/5/3 254/5/3 253/5/3
f 271/5/3 256/5/3 270/5/3
f 272/5/3 256/5/3 271/5/3
f 273/4/3 257/4/3 256/4/3
f 273/5/3 256/5/3 272/5/3
f 274/5/3 259/5/3 258/5/3
f 274/4/3 257/4/3 273/4/3
f 274/5/3 258/5/3 257/5/3
f 274/5/3 260/5/3 259/5/3
f 275/5/3 260/5/3 274/5/3
f 276/5/3 260/5/3 275/5/3
f 277/4/3 261/4/3 260/4/3
f 277/5/3 260/5/3 276/5/3
f 278/3/3 262/3/3 261/3/3
f 278/4/3 261/4/3 277/4/3
f 280/5/3 266/5/3 265/5/3
f 281/5/3 266/5/3 280/5/3
f 291/5/3 272/5/3 271/5/3
f 292/5/3 272/5/3 291/5/3
f 293/5/3 276/5/3 275/5/3
f 294/5/3 276/5/3 293/5/3
f 296/3/3 262/3/3 278/3/3
f 297/2/3 263/2/3 262/2/3
f 297/3/3 262/3/3 296/3/3
f 298/2/3 263/2/3 297/2/3
f 299/5/3 280/5/3 279/5/3
f 300/5/3 280/5/3 299/5/3
f 301/6/3 282/6/3 281/6/3
f 302/7/3 283/7/3 282/7/3
f 302/6/3 282/6/3 301/6/3
f 303/8/3 284/8/3 283/8/3
f 303/7/3 283/7/3 302/7/3
f 304/9/3 285/9/3 284/9/3
f 304/8/3 284/8/3 303/8/3
f 305/10/3 286/10/3 285/10/3
f 305/9/3 285/9/3 304/9/3
f 306/9/3 287/9/3 286/9/3
f 306/10/3 286/10/3 305/10/3
f 307/8/3 288/8/3 287/8/3
f 307/9/3 287/9/3 306/9/3
f 308/7/3 289/7/3 288/7/3
f 308/8/3 288/8/3 307/8/3
f 309/6/3 290/6/3 289/6/3
f 309/7/3 289/7/3 308/7/3
f 310/1/3 295/1/3 294/1/3
f 310/6/3 290/6/3 309/6/3
f 310/1/3 292/1/3 291/1/3
f 310/1/3 291/1/3 290/1/3
f 310/1/3 293/1/3 292/1/3
f 310/1/3 294/1/3 293/1/3
f 311/1/3 295/1/3 310/1/3
f 312/2/3 297/2/3 296/2/3
f 313/2/3 297/2/3 312/2/3
f 314/5/3 301/5/3 300/5/3
f 315/5/3 301/5/3 314/5/3
f 316/2/4 317/2/4 319/2/4
f 319/2/4 317/2/4 320/2/4
f 318/2/4 319/2/4 323/2/4
f 319/3/4 320/3/4 324/3/4
f 323/2/4 319/2/4 324/2/4
f 320/2/4 321/2/4 325/2/4
f 324/3/4 320/3/4 325/3/4
f 325/2/4 321/2/4 326/2/4
f 322/2/4 323/2/4 329/2/4
f 323/3/4 324/3/4 330/3/4
f 324/3/4 325/3/4 330/3/4
f 329/2/4 323/2/4 330/2/4
f 325/3/4 326/3/4 330/3/4
f 326/2/4 327/2/4 331/2/4
f 330/3/4 326/3/4 331/3/4
f 331/2/4 327/2/4 332/2/4
f 328/2/4 329/2/4 335/2/4
f 329/3/4 330/3/4 336/3/4
f 330/3/4 331/3/4 336/3/4
f 335/2/4 329/2/4 336/2/4
f 331/3/4 332/3/4 336/3/4
f 336/3/4 332/3/4 337/3/4
f 337/3/4 332/3/4 338/3/4
f 334/2/4 335/2/4 340/2/4
f 335/3/4 336/3/4 341/3/4
f 336/3/4 337/3/4 341/3/4
f 340/2/4 335/2/4 341/2/4
f 341/3/4 337/3/4 342/3/4
f 342/3/4 337/3/4 343/3/4
f 338/3/4 332/3/4 344/3/4
f 344/3/4 332/3/4 345/3/4
f 332/2/4 333/2/4 346/2/4
f 345/3/4 332/3/4 346/3/4
f 346/2/4 333/2/4 347/2/4
f 339/2/4 340/2/4 350/2/4
f 340/3/4 341/3/4 351/3/4
f 341/3/4 342/3/4 351/3/4
f 350/2/4 340/2/4 351/2/4
f 351/3/4 342/3/4 352/3/4
f 352/3/4 342/3/4 353/3/4
f 353/3/4 342/3/4 354/3/4
f 343/3/4 344/3/4 355/3/4
f 355/3/4 344/3/4 356/3/4
f 356/3/4 344/3/4 357/3/4
f 346/3/4 347/3/4 358/3/4
f 345/3/4 346/3/4 358/3/4
f 358/3/4 347/3/4 359/3/4
f 349/2/4 350/2/4 361/2/4
f 350/3/4 351/3/4 362/3/4
f 351/3/4 352/3/4 362/3/4
f 361/2/4 350/2/4 362/2/4
f 362/3/4 352/3/4 363/3/4
f 352/4/4 353/4/4 364/4/4
f 363/3/4 352/3/4 364/3/4
f 364/4/4 353/4/4 365/4/4
f 354/4/4 355/4/4 366/4/4
f 355/3/4 356/3/4 367/3/4
f 366/4/4 355/4/4 367/4/4
f 356/4/4 357/4/4 368/4/4
f 367/3/4 356/3/4 368/3/4
f 357/5/4 358/5/4 369/5/4
f 368/4/4 357/4/4 369/4/4
f 369/5/4 358/5/4 370/5/4
f 359/3/4 347/3/4 371/3/4
f 371/3/4 347/3/4 372/3/4
f 372/3/4 347/3/4 373/3/4
f 347/2/4 348/2/4 374/2/4
f 373/3/4 347/3/4 374/3/4
f 374/2/4 348/2/4 375/2/4
f 360/2/4 361/2/4 378/2/4
f 362/3/4 363/3/4 379/3/4
f 378/2/4 361/2/4 379/2/4
f 361/3/4 362/3/4 379/3/4
f 363/4/4 364/4/4 380/4/4
f 379/3/4 363/3/4 380/3/4
f 366/5/4 367/5/4 381/5/4
f 380/4/4 364/4/4 381/4/4
f 365/5/4 366/5/4 381/5/4
f 364/5/4 365/5/4 381/5/4
f 381/5/4 367/5/4 382/5/4
f 382/5/4 367/5/4 383/5/4
f 367/4/4 368/4/4 384/4/4
f 383/5/4 367/5/4 384/5/4
f 369/5/4 370/5/4 385/5/4
f 384/4/4 368/4/4 385/4/4
f 368/5/4 369/5/4 385/5/4
f 370/5/4 371/5/4 385/5/4
f 385/5/4 371/5/4 386/5/4
f 386/5/4 371/5/4 387/5/4
f 371/4/4 372/4/4 388/4/4
f 387/5/4 371/5/4 388/5/4
f 372/3/4 373/3/4 389/3/4
f 388/4/4 372/4/4 389/4/4
f 376/5/4 377/5/4 391/5/4
f 391/5/4 377/5/4 392/5/4
f 382/5/4 383/5/4 402/5/4
f 402/5/4 383/5/4 403/5/4
f 386/5/4 387/5/4 404/5/4
f 404/5/4 387/5/4 405/5/4
f 389/3/4 373/3/4 407/3/4
f 373/2/4 374/2/4 408/2/4
f 407/3/4 373/3/4 408/3/4
f 408/2/4 374/2/4 409/2/4
f 390/5/4 391/5/4 410/5/4
f 410/5/4 391/5/4 411/5/4
f 392/6/4 393/6/4 412/6/4
f 393/7/4 394/7/4 413/7/4
f 412/6/4 393/6/4 413/6/4
f 394/8/4 395/8/4 414/8/4
f 413/7/4 394/7/4 414/7/4
f 395/9/4 396/9/4 415/9/4
f 414/8/4 395/8/4 415/8/4
f 396/10/4 397/10/4 416/10/4
f 415/9/4 396/9/4 416/9/4
f 397/9/4 398/9/4 417/9/4
f 416/10/4 397/10/4 417/10/4
f 398/8/4 399/8/4 418/8/4
f 417/9/4 398/9/4 418/9/4
f 399/7/4 400/7/4 419/7/4
f 418/8/4 399/8/4 419/8/4
f 400/6/4 401/6/4 420/6/4
f 419/7/4 400/7/4 420/7/4
f 405/1/4 406/1/4 421/1/4
f 420/6/4 401/6/4 421/6/4
f 402/1/4 403/1/4 421/1/4
f 401/1/4 402/1/4 421/1/4
f 403/1/4 404/1/4 421/1/4
f 404/1/4 405/1/4 421/1/4
f 421/1/4 406/1/4 422/1/4
f 407/2/4 408/2/4 423/2/4
f 423/2/4 408/2/4 424/2/4
f 411/5/4 412/5/4 425/5/4
f 425/5/4 412/5/4 426/5/4
f 427/5/4 428/5/4 429/5/4
f 429/5/4 428/5/4 430/5/4
f 433/5/5 432/5/5 431/5/5
f 434/5/5 432/5/5 433/5/5
f 438/5/5 436/5/5 435/5/5
f 439/5/5 436/5/5 438/5/5
f 441/5/5 438/5/5 437/5/5
f 442/5/5 438/5/5 441/5/5
f 443/5/5 440/5/5 439/5/5
f 444/5/5 440/5/5 443/5/5
f 445/5/5 443/5/5 442/5/5
f 446/5/5 443/5/5 445/5/5
f 449/2/5 448/2/5 447/2/5
f 450/2/5 448/2/5 449/2/5
f 453/2/5 452/2/5 451/2/5
f 454/2/5 452/2/5 453/2/5
f 457/2/5 456/2/5 455/2/5
f 458/2/5 456/2/5 457/2/5
f 461/2/5 460/2/5 459/2/5
f 462/2/5 460/2/5 461/2/5
f 465/2/5 464/2/5 463/2/5
f 466/2/5 464/2/5 465/2/5
f 471/2/5 468/2/5 467/2/5
f 472/2/5 468/2/5 471/2/5
f 473/5/5 470/5/5 469/5/5
f 474/5/5 470/5/5 473/5/5
f 479/2/5 476/2/5 475/2/5
f 480/2/5 476/2/5 479/2/5
f 481/4/5 478/4/5 477/4/5
f 482/4/5 478/4/5 481/4/5
f 485/3/5 484/3/5 483/3/5
f 486/3/5 484/3/5 485/3/5
f 489/2/5 488/2/5 487/2/5
f 490/2/5 488/2/5 489/2/5
f 495/3/5 492/3/5 491/3/5
f 496/3/5 492/3/5 495/3/5
f 497/5/5 494/5/5 493/5/5
f 498/5/5 494/5/5 497/5/5
f 501/3/5 500/3/5 499/3/5
f 502/3/5 500/3/5 501/3/5
f 505/3/5 504/3/5 503/3/5
f 506/3/5 504/3/5 505/3/5
f 510/3/5 508/3/5 507/3/5
f 511/2/5 509/2/5 508/2/5
f 511/3/5 508/3/5 510/3/5
f 512/2/5 509/2/5 511/2/5
f 513/5/6 514/5/6 516/5/6
f 516/5/6 514/5/6 517/5/6
f 515/5/6 516/5/6 519/5/6
f 519/5/6 516/5/6 520/5/6
f 517/5/6 518/5/6 521/5/6
f 521/5/6 518/5/6 522/5/6
f 520/5/6 521/5/6 523/5/6
f 523/5/6 521/5/6 524/5/6
f 525/4/6 526/4/6 527/4/6
f 527/4/6 526/4/6 528/4/6
f 529/3/6 530/3/6 533/3/6
f 533/3/6 530/3/6 534/3/6
f 531/5/6 532/5/6 535/5/6
f 535/5/6 532/5/6 536/5/6
f 537/3/6 538/3/6 539/3/6
f 539/3/6 538/3/6 540/3/6
f 541/3/6 542/3/6 543/3/6
f 543/3/6 542/3/6 544/3/6
f 545/2/6 546/2/6 551/2/6
f 551/2/6 546/2/6 552/2/6
f 547/5/6 548/5/6 553/5/6
f 553/5/6 548/5/6 554/5/6
f 549/5/6 550/5/6 555/5/6
f 555/5/6 550/5/6 556/5/6
f 557/1/6 558/1/6 559/1/6
f 559/1/6 558/1/6 560/1/6
f 561/2/6 562/2/6 563/2/6
f 563/2/6 562/2/6 564/2/6
f 565/2/6 566/2/6 569/2/6
f 569/2/6 566/2/6 570/2/6
f 567/2/6 568/2/6 571/2/6
f 571/2/6 568/2/6 572/2/6
f 573/2/6 574/2/6 577/2/6
f 577/2/6 574/2/6 578/2/6
f 575/2/6 576/2/6 579/2/6
f 579/2/6 576/2/6 580/2/6
f 581/2/6 582/2/6 583/2/6
f 583/2/6 582/2/6 584/2/6
