# MagicaVoxel @ Ephtracy

# group
g Spear

# material
mtllib Spear.mtl
usemtl palette

# normals
vn -1 0 0
vn 1 0 0
vn 0 0 1
vn 0 0 -1
vn 0 -1 0
vn 0 1 0

# texcoords
vt 0.310547 0.5
vt 0.974609 0.5
vt 0.978516 0.5
vt 0.986328 0.5

# verts
v -3.5 45 0.5
v -3.5 45 -0.5
v -3.5 51 0.5
v -3.5 51 -0.5
v -2.5 44 0.5
v -2.5 44 -0.5
v -2.5 45 0.5
v -2.5 45 -0.5
v -2.5 51 0.5
v -2.5 51 -0.5
v -2.5 53 0.5
v -2.5 53 -0.5
v -1.5 1 0.5
v -1.5 1 -0.5
v -1.5 2 0.5
v -1.5 2 -0.5
v -1.5 45 1.5
v -1.5 45 0.5
v -1.5 45 -0.5
v -1.5 45 -1.5
v -1.5 50 1.5
v -1.5 50 0.5
v -1.5 50 -0.5
v -1.5 50 -1.5
v -1.5 53 0.5
v -1.5 53 -0.5
v -1.5 55 0.5
v -1.5 55 -0.5
v -0.5 0 0.5
v -0.5 0 -0.5
v -0.5 1 1.5
v -0.5 1 0.5
v -0.5 1 -0.5
v -0.5 1 -1.5
v -0.5 2 1.5
v -0.5 2 0.5
v -0.5 2 -0.5
v -0.5 2 -1.5
v -0.5 3 0.5
v -0.5 3 -0.5
v -0.5 4 0.5
v -0.5 4 -0.5
v -0.5 5 0.5
v -0.5 5 -0.5
v -0.5 6 0.5
v -0.5 6 -0.5
v -0.5 7 0.5
v -0.5 7 -0.5
v -0.5 8 0.5
v -0.5 8 -0.5
v -0.5 44 1.5
v -0.5 44 0.5
v -0.5 44 -0.5
v -0.5 44 -1.5
v -0.5 45 1.5
v -0.5 45 0.5
v -0.5 45 -0.5
v -0.5 45 -1.5
v -0.5 50 1.5
v -0.5 50 0.5
v -0.5 50 -0.5
v -0.5 50 -1.5
v -0.5 52 1.5
v -0.5 52 0.5
v -0.5 52 -0.5
v -0.5 52 -1.5
v -0.5 55 0.5
v -0.5 55 -0.5
v -0.5 57 0.5
v -0.5 57 -0.5
v 0.5 0 0.5
v 0.5 0 -0.5
v 0.5 1 1.5
v 0.5 1 0.5
v 0.5 1 -0.5
v 0.5 1 -1.5
v 0.5 2 1.5
v 0.5 2 0.5
v 0.5 2 -0.5
v 0.5 2 -1.5
v 0.5 3 0.5
v 0.5 3 -0.5
v 0.5 4 0.5
v 0.5 4 -0.5
v 0.5 5 0.5
v 0.5 5 -0.5
v 0.5 6 0.5
v 0.5 6 -0.5
v 0.5 7 0.5
v 0.5 7 -0.5
v 0.5 8 0.5
v 0.5 8 -0.5
v 0.5 44 1.5
v 0.5 44 0.5
v 0.5 44 -0.5
v 0.5 44 -1.5
v 0.5 45 1.5
v 0.5 45 0.5
v 0.5 45 -0.5
v 0.5 45 -1.5
v 0.5 46 0.5
v 0.5 46 -0.5
v 0.5 47 0.5
v 0.5 47 -0.5
v 0.5 48 0.5
v 0.5 48 -0.5
v 0.5 49 0.5
v 0.5 49 -0.5
v 0.5 50 1.5
v 0.5 50 0.5
v 0.5 50 -0.5
v 0.5 50 -1.5
v 0.5 52 1.5
v 0.5 52 0.5
v 0.5 52 -0.5
v 0.5 52 -1.5
v 0.5 55 0.5
v 0.5 55 -0.5
v 0.5 57 0.5
v 0.5 57 -0.5
v 1.5 1 0.5
v 1.5 1 -0.5
v 1.5 2 0.5
v 1.5 2 -0.5
v 1.5 48 0.5
v 1.5 48 -0.5
v 1.5 49 0.5
v 1.5 49 -0.5
v 2.5 47 0.5
v 2.5 47 -0.5
v 2.5 48 0.5
v 2.5 48 -0.5
v -1.5 45 1.5
v -1.5 50 1.5
v -0.5 1 1.5
v -0.5 2 1.5
v -0.5 44 1.5
v -0.5 45 1.5
v -0.5 50 1.5
v -0.5 52 1.5
v 0.5 1 1.5
v 0.5 2 1.5
v 0.5 44 1.5
v 0.5 45 1.5
v 0.5 50 1.5
v 0.5 52 1.5
v -3.5 45 0.5
v -3.5 51 0.5
v -2.5 44 0.5
v -2.5 45 0.5
v -2.5 51 0.5
v -2.5 53 0.5
v -1.5 1 0.5
v -1.5 2 0.5
v -1.5 44 0.5
v -1.5 45 0.5
v -1.5 50 0.5
v -1.5 51 0.5
v -1.5 53 0.5
v -1.5 55 0.5
v -0.5 0 0.5
v -0.5 1 0.5
v -0.5 2 0.5
v -0.5 3 0.5
v -0.5 4 0.5
v -0.5 5 0.5
v -0.5 6 0.5
v -0.5 7 0.5
v -0.5 8 0.5
v -0.5 44 0.5
v -0.5 45 0.5
v -0.5 50 0.5
v -0.5 52 0.5
v -0.5 53 0.5
v -0.5 55 0.5
v -0.5 57 0.5
v 0.5 0 0.5
v 0.5 1 0.5
v 0.5 2 0.5
v 0.5 3 0.5
v 0.5 4 0.5
v 0.5 5 0.5
v 0.5 6 0.5
v 0.5 7 0.5
v 0.5 8 0.5
v 0.5 44 0.5
v 0.5 47 0.5
v 0.5 48 0.5
v 0.5 49 0.5
v 0.5 52 0.5
v 0.5 55 0.5
v 0.5 57 0.5
v 1.5 1 0.5
v 1.5 2 0.5
v 1.5 47 0.5
v 1.5 48 0.5
v 1.5 49 0.5
v 2.5 47 0.5
v 2.5 48 0.5
v -3.5 45 -0.5
v -3.5 51 -0.5
v -2.5 44 -0.5
v -2.5 45 -0.5
v -2.5 51 -0.5
v -2.5 53 -0.5
v -1.5 1 -0.5
v -1.5 2 -0.5
v -1.5 44 -0.5
v -1.5 45 -0.5
v -1.5 50 -0.5
v -1.5 51 -0.5
v -1.5 53 -0.5
v -1.5 55 -0.5
v -0.5 0 -0.5
v -0.5 1 -0.5
v -0.5 2 -0.5
v -0.5 3 -0.5
v -0.5 4 -0.5
v -0.5 5 -0.5
v -0.5 6 -0.5
v -0.5 7 -0.5
v -0.5 8 -0.5
v -0.5 44 -0.5
v -0.5 45 -0.5
v -0.5 50 -0.5
v -0.5 52 -0.5
v -0.5 53 -0.5
v -0.5 55 -0.5
v -0.5 57 -0.5
v 0.5 0 -0.5
v 0.5 1 -0.5
v 0.5 2 -0.5
v 0.5 3 -0.5
v 0.5 4 -0.5
v 0.5 5 -0.5
v 0.5 6 -0.5
v 0.5 7 -0.5
v 0.5 8 -0.5
v 0.5 44 -0.5
v 0.5 47 -0.5
v 0.5 48 -0.5
v 0.5 49 -0.5
v 0.5 52 -0.5
v 0.5 55 -0.5
v 0.5 57 -0.5
v 1.5 1 -0.5
v 1.5 2 -0.5
v 1.5 47 -0.5
v 1.5 48 -0.5
v 1.5 49 -0.5
v 2.5 47 -0.5
v 2.5 48 -0.5
v -1.5 45 -1.5
v -1.5 50 -1.5
v -0.5 1 -1.5
v -0.5 2 -1.5
v -0.5 44 -1.5
v -0.5 45 -1.5
v -0.5 50 -1.5
v -0.5 52 -1.5
v 0.5 1 -1.5
v 0.5 2 -1.5
v 0.5 44 -1.5
v 0.5 45 -1.5
v 0.5 50 -1.5
v 0.5 52 -1.5
v -0.5 0 0.5
v 0.5 0 0.5
v -0.5 0 -0.5
v 0.5 0 -0.5
v -0.5 1 1.5
v 0.5 1 1.5
v -1.5 1 0.5
v -0.5 1 0.5
v 0.5 1 0.5
v 1.5 1 0.5
v -1.5 1 -0.5
v -0.5 1 -0.5
v 0.5 1 -0.5
v 1.5 1 -0.5
v -0.5 1 -1.5
v 0.5 1 -1.5
v -0.5 44 1.5
v 0.5 44 1.5
v -2.5 44 0.5
v -1.5 44 0.5
v -0.5 44 0.5
v 0.5 44 0.5
v -2.5 44 -0.5
v -1.5 44 -0.5
v -0.5 44 -0.5
v 0.5 44 -0.5
v -0.5 44 -1.5
v 0.5 44 -1.5
v -1.5 45 1.5
v -0.5 45 1.5
v -3.5 45 0.5
v -2.5 45 0.5
v -1.5 45 0.5
v -0.5 45 0.5
v -3.5 45 -0.5
v -2.5 45 -0.5
v -1.5 45 -0.5
v -0.5 45 -0.5
v -1.5 45 -1.5
v -0.5 45 -1.5
v 0.5 47 0.5
v 1.5 47 0.5
v 2.5 47 0.5
v 0.5 47 -0.5
v 1.5 47 -0.5
v 2.5 47 -0.5
v -0.5 2 1.5
v 0.5 2 1.5
v -1.5 2 0.5
v -0.5 2 0.5
v 0.5 2 0.5
v 1.5 2 0.5
v -1.5 2 -0.5
v -0.5 2 -0.5
v 0.5 2 -0.5
v 1.5 2 -0.5
v -0.5 2 -1.5
v 0.5 2 -1.5
v 1.5 48 0.5
v 2.5 48 0.5
v 1.5 48 -0.5
v 2.5 48 -0.5
v 0.5 49 0.5
v 1.5 49 0.5
v 0.5 49 -0.5
v 1.5 49 -0.5
v -1.5 50 1.5
v -0.5 50 1.5
v -1.5 50 0.5
v -0.5 50 0.5
v -1.5 50 -0.5
v -0.5 50 -0.5
v -1.5 50 -1.5
v -0.5 50 -1.5
v -3.5 51 0.5
v -2.5 51 0.5
v -3.5 51 -0.5
v -2.5 51 -0.5
v -0.5 52 1.5
v 0.5 52 1.5
v -0.5 52 0.5
v 0.5 52 0.5
v -0.5 52 -0.5
v 0.5 52 -0.5
v -0.5 52 -1.5
v 0.5 52 -1.5
v -2.5 53 0.5
v -1.5 53 0.5
v -2.5 53 -0.5
v -1.5 53 -0.5
v -1.5 55 0.5
v -0.5 55 0.5
v -1.5 55 -0.5
v -0.5 55 -0.5
v -0.5 57 0.5
v 0.5 57 0.5
v -0.5 57 -0.5
v 0.5 57 -0.5

# faces
f 3/2/1 2/2/1 1/2/1
f 4/2/1 2/2/1 3/2/1
f 7/2/1 6/2/1 5/2/1
f 8/2/1 6/2/1 7/2/1
f 11/2/1 10/2/1 9/2/1
f 12/2/1 10/2/1 11/2/1
f 15/4/1 14/4/1 13/4/1
f 16/4/1 14/4/1 15/4/1
f 21/2/1 18/2/1 17/2/1
f 22/2/1 18/2/1 21/2/1
f 23/2/1 20/2/1 19/2/1
f 24/2/1 20/2/1 23/2/1
f 27/2/1 26/2/1 25/2/1
f 28/2/1 26/2/1 27/2/1
f 32/4/1 30/4/1 29/4/1
f 33/4/1 30/4/1 32/4/1
f 35/4/1 32/4/1 31/4/1
f 36/4/1 32/4/1 35/4/1
f 37/4/1 34/4/1 33/4/1
f 38/4/1 34/4/1 37/4/1
f 39/1/1 37/1/1 36/1/1
f 40/1/1 37/1/1 39/1/1
f 41/4/1 40/4/1 39/4/1
f 42/4/1 40/4/1 41/4/1
f 43/1/1 42/1/1 41/1/1
f 44/1/1 42/1/1 43/1/1
f 45/4/1 44/4/1 43/4/1
f 46/4/1 44/4/1 45/4/1
f 47/1/1 46/1/1 45/1/1
f 48/1/1 46/1/1 47/1/1
f 49/4/1 48/4/1 47/4/1
f 50/4/1 48/4/1 49/4/1
f 52/1/1 50/1/1 49/1/1
f 53/1/1 50/1/1 52/1/1
f 55/2/1 52/2/1 51/2/1
f 56/2/1 52/2/1 55/2/1
f 57/2/1 54/2/1 53/2/1
f 58/2/1 54/2/1 57/2/1
f 63/2/1 60/2/1 59/2/1
f 64/2/1 60/2/1 63/2/1
f 65/2/1 62/2/1 61/2/1
f 66/2/1 62/2/1 65/2/1
f 69/2/1 68/2/1 67/2/1
f 70/2/1 68/2/1 69/2/1
f 71/4/2 72/4/2 74/4/2
f 74/4/2 72/4/2 75/4/2
f 73/4/2 74/4/2 77/4/2
f 77/4/2 74/4/2 78/4/2
f 75/4/2 76/4/2 79/4/2
f 79/4/2 76/4/2 80/4/2
f 78/1/2 79/1/2 81/1/2
f 81/1/2 79/1/2 82/1/2
f 81/4/2 82/4/2 83/4/2
f 83/4/2 82/4/2 84/4/2
f 83/1/2 84/1/2 85/1/2
f 85/1/2 84/1/2 86/1/2
f 85/4/2 86/4/2 87/4/2
f 87/4/2 86/4/2 88/4/2
f 87/1/2 88/1/2 89/1/2
f 89/1/2 88/1/2 90/1/2
f 89/4/2 90/4/2 91/4/2
f 91/4/2 90/4/2 92/4/2
f 91/1/2 92/1/2 94/1/2
f 94/1/2 92/1/2 95/1/2
f 93/2/2 94/2/2 97/2/2
f 94/1/2 95/1/2 98/1/2
f 97/2/2 94/2/2 98/2/2
f 95/2/2 96/2/2 99/2/2
f 98/1/2 95/1/2 99/1/2
f 99/2/2 96/2/2 100/2/2
f 97/3/2 98/3/2 101/3/2
f 98/3/2 99/3/2 101/3/2
f 99/3/2 100/3/2 101/3/2
f 101/3/2 100/3/2 102/3/2
f 97/3/2 101/3/2 103/3/2
f 101/1/2 102/1/2 103/1/2
f 102/3/2 100/3/2 104/3/2
f 103/1/2 102/1/2 104/1/2
f 97/3/2 103/3/2 105/3/2
f 104/3/2 100/3/2 106/3/2
f 97/3/2 105/3/2 107/3/2
f 106/3/2 100/3/2 108/3/2
f 97/3/2 107/3/2 109/3/2
f 107/3/2 108/3/2 109/3/2
f 109/3/2 108/3/2 110/3/2
f 108/3/2 100/3/2 111/3/2
f 110/3/2 108/3/2 111/3/2
f 111/3/2 100/3/2 112/3/2
f 109/2/2 110/2/2 113/2/2
f 110/3/2 111/3/2 114/3/2
f 113/2/2 110/2/2 114/2/2
f 111/2/2 112/2/2 115/2/2
f 114/3/2 111/3/2 115/3/2
f 115/2/2 112/2/2 116/2/2
f 114/3/2 115/3/2 117/3/2
f 117/3/2 115/3/2 118/3/2
f 117/2/2 118/2/2 119/2/2
f 119/2/2 118/2/2 120/2/2
f 121/4/2 122/4/2 123/4/2
f 123/4/2 122/4/2 124/4/2
f 125/2/2 126/2/2 127/2/2
f 127/2/2 126/2/2 128/2/2
f 129/2/2 130/2/2 131/2/2
f 131/2/2 130/2/2 132/2/2
f 138/2/3 134/2/3 133/2/3
f 139/2/3 134/2/3 138/2/3
f 141/4/3 136/4/3 135/4/3
f 142/4/3 136/4/3 141/4/3
f 143/2/3 138/2/3 137/2/3
f 144/3/3 139/3/3 138/3/3
f 144/2/3 138/2/3 143/2/3
f 145/2/3 140/2/3 139/2/3
f 145/3/3 139/3/3 144/3/3
f 146/2/3 140/2/3 145/2/3
f 150/2/3 148/2/3 147/2/3
f 151/2/3 148/2/3 150/2/3
f 155/2/3 150/2/3 149/2/3
f 156/3/3 151/3/3 150/3/3
f 156/2/3 150/2/3 155/2/3
f 157/3/3 151/3/3 156/3/3
f 158/2/3 152/2/3 151/2/3
f 158/3/3 151/3/3 157/3/3
f 159/2/3 152/2/3 158/2/3
f 162/4/3 154/4/3 153/4/3
f 163/4/3 154/4/3 162/4/3
f 170/3/3 156/3/3 155/3/3
f 171/3/3 156/3/3 170/3/3
f 172/3/3 159/3/3 158/3/3
f 172/3/3 158/3/3 157/3/3
f 173/3/3 159/3/3 172/3/3
f 174/2/3 160/2/3 159/2/3
f 174/3/3 159/3/3 173/3/3
f 175/2/3 160/2/3 174/2/3
f 177/4/3 162/4/3 161/4/3
f 178/4/3 162/4/3 177/4/3
f 179/1/3 164/1/3 163/1/3
f 180/4/3 165/4/3 164/4/3
f 180/1/3 164/1/3 179/1/3
f 181/1/3 166/1/3 165/1/3
f 181/4/3 165/4/3 180/4/3
f 182/4/3 167/4/3 166/4/3
f 182/1/3 166/1/3 181/1/3
f 183/1/3 168/1/3 167/1/3
f 183/4/3 167/4/3 182/4/3
f 184/4/3 169/4/3 168/4/3
f 184/1/3 168/1/3 183/1/3
f 185/1/3 170/1/3 169/1/3
f 185/4/3 169/4/3 184/4/3
f 186/1/3 170/1/3 185/1/3
f 190/3/3 175/3/3 174/3/3
f 190/3/3 174/3/3 173/3/3
f 191/2/3 176/2/3 175/2/3
f 191/3/3 175/3/3 190/3/3
f 192/2/3 176/2/3 191/2/3
f 193/4/3 179/4/3 178/4/3
f 194/4/3 179/4/3 193/4/3
f 195/3/3 188/3/3 187/3/3
f 196/2/3 189/2/3 188/2/3
f 196/3/3 188/3/3 195/3/3
f 197/2/3 189/2/3 196/2/3
f 198/2/3 196/2/3 195/2/3
f 199/2/3 196/2/3 198/2/3
f 200/2/4 201/2/4 203/2/4
f 203/2/4 201/2/4 204/2/4
f 202/2/4 203/2/4 208/2/4
f 203/3/4 204/3/4 209/3/4
f 208/2/4 203/2/4 209/2/4
f 209/3/4 204/3/4 210/3/4
f 204/2/4 205/2/4 211/2/4
f 210/3/4 204/3/4 211/3/4
f 211/2/4 205/2/4 212/2/4
f 206/4/4 207/4/4 215/4/4
f 215/4/4 207/4/4 216/4/4
f 208/3/4 209/3/4 223/3/4
f 223/3/4 209/3/4 224/3/4
f 211/3/4 212/3/4 225/3/4
f 210/3/4 211/3/4 225/3/4
f 225/3/4 212/3/4 226/3/4
f 212/2/4 213/2/4 227/2/4
f 226/3/4 212/3/4 227/3/4
f 227/2/4 213/2/4 228/2/4
f 214/4/4 215/4/4 230/4/4
f 230/4/4 215/4/4 231/4/4
f 216/1/4 217/1/4 232/1/4
f 217/4/4 218/4/4 233/4/4
f 232/1/4 217/1/4 233/1/4
f 218/1/4 219/1/4 234/1/4
f 233/4/4 218/4/4 234/4/4
f 219/4/4 220/4/4 235/4/4
f 234/1/4 219/1/4 235/1/4
f 220/1/4 221/1/4 236/1/4
f 235/4/4 220/4/4 236/4/4
f 221/4/4 222/4/4 237/4/4
f 236/1/4 221/1/4 237/1/4
f 222/1/4 223/1/4 238/1/4
f 237/4/4 222/4/4 238/4/4
f 238/1/4 223/1/4 239/1/4
f 227/3/4 228/3/4 243/3/4
f 226/3/4 227/3/4 243/3/4
f 228/2/4 229/2/4 244/2/4
f 243/3/4 228/3/4 244/3/4
f 244/2/4 229/2/4 245/2/4
f 231/4/4 232/4/4 246/4/4
f 246/4/4 232/4/4 247/4/4
f 240/3/4 241/3/4 248/3/4
f 241/2/4 242/2/4 249/2/4
f 248/3/4 241/3/4 249/3/4
f 249/2/4 242/2/4 250/2/4
f 248/2/4 249/2/4 251/2/4
f 251/2/4 249/2/4 252/2/4
f 253/2/4 254/2/4 258/2/4
f 258/2/4 254/2/4 259/2/4
f 255/4/4 256/4/4 261/4/4
f 261/4/4 256/4/4 262/4/4
f 257/2/4 258/2/4 263/2/4
f 258/3/4 259/3/4 264/3/4
f 263/2/4 258/2/4 264/2/4
f 259/2/4 260/2/4 265/2/4
f 264/3/4 259/3/4 265/3/4
f 265/2/4 260/2/4 266/2/4
f 269/4/5 268/4/5 267/4/5
f 270/4/5 268/4/5 269/4/5
f 274/4/5 272/4/5 271/4/5
f 275/4/5 272/4/5 274/4/5
f 277/4/5 274/4/5 273/4/5
f 278/4/5 274/4/5 277/4/5
f 279/4/5 276/4/5 275/4/5
f 280/4/5 276/4/5 279/4/5
f 281/4/5 279/4/5 278/4/5
f 282/4/5 279/4/5 281/4/5
f 287/2/5 284/2/5 283/2/5
f 288/2/5 284/2/5 287/2/5
f 289/2/5 286/2/5 285/2/5
f 290/3/5 287/3/5 286/3/5
f 290/2/5 286/2/5 289/2/5
f 291/3/5 287/3/5 290/3/5
f 293/2/5 292/2/5 291/2/5
f 294/2/5 292/2/5 293/2/5
f 299/2/5 296/2/5 295/2/5
f 300/2/5 296/2/5 299/2/5
f 301/2/5 298/2/5 297/2/5
f 302/2/5 298/2/5 301/2/5
f 305/2/5 304/2/5 303/2/5
f 306/2/5 304/2/5 305/2/5
f 310/3/5 308/3/5 307/3/5
f 311/2/5 309/2/5 308/2/5
f 311/3/5 308/3/5 310/3/5
f 312/2/5 309/2/5 311/2/5
f 313/4/6 314/4/6 316/4/6
f 316/4/6 314/4/6 317/4/6
f 315/4/6 316/4/6 319/4/6
f 319/4/6 316/4/6 320/4/6
f 317/4/6 318/4/6 321/4/6
f 321/4/6 318/4/6 322/4/6
f 320/4/6 321/4/6 323/4/6
f 323/4/6 321/4/6 324/4/6
f 325/2/6 326/2/6 327/2/6
f 327/2/6 326/2/6 328/2/6
f 329/2/6 330/2/6 331/2/6
f 331/2/6 330/2/6 332/2/6
f 333/2/6 334/2/6 335/2/6
f 335/2/6 334/2/6 336/2/6
f 337/2/6 338/2/6 339/2/6
f 339/2/6 338/2/6 340/2/6
f 341/2/6 342/2/6 343/2/6
f 343/2/6 342/2/6 344/2/6
f 345/2/6 346/2/6 347/2/6
f 347/2/6 346/2/6 348/2/6
f 349/2/6 350/2/6 351/2/6
f 351/2/6 350/2/6 352/2/6
f 353/2/6 354/2/6 355/2/6
f 355/2/6 354/2/6 356/2/6
f 357/2/6 358/2/6 359/2/6
f 359/2/6 358/2/6 360/2/6
f 361/2/6 362/2/6 363/2/6
f 363/2/6 362/2/6 364/2/6
