# MagicaVoxel @ Ephtracy

# group
g Sword

# material
mtllib Sword.mtl
usemtl palette

# normals
vn -1 0 0
vn 1 0 0
vn 0 0 1
vn 0 0 -1
vn 0 -1 0
vn 0 1 0

# texcoords
vt 0.177734 0.5
vt 0.935547 0.5
vt 0.962891 0.5
vt 0.966797 0.5

# verts
v -3.5 8 0.5
v -3.5 8 -0.5
v -3.5 9 0.5
v -3.5 9 -0.5
v -2.5 7 0.5
v -2.5 7 -0.5
v -2.5 8 0.5
v -2.5 8 -0.5
v -1.5 1 0.5
v -1.5 1 -0.5
v -1.5 3 0.5
v -1.5 3 -0.5
v -1.5 7 1.5
v -1.5 7 0.5
v -1.5 7 -0.5
v -1.5 7 -1.5
v -1.5 8 1.5
v -1.5 8 0.5
v -1.5 8 -0.5
v -1.5 8 -1.5
v -1.5 26 0.5
v -1.5 26 -0.5
v -0.5 0 0.5
v -0.5 0 -0.5
v -0.5 1 1.5
v -0.5 1 0.5
v -0.5 1 -0.5
v -0.5 1 -1.5
v -0.5 3 1.5
v -0.5 3 0.5
v -0.5 3 -0.5
v -0.5 3 -1.5
v -0.5 7 0.5
v -0.5 7 -0.5
v -0.5 26 0.5
v -0.5 26 -0.5
v -0.5 29 0.5
v -0.5 29 -0.5
v 2.5 8 0.5
v 2.5 8 -0.5
v 2.5 9 0.5
v 2.5 9 -0.5
v -2.5 8 0.5
v -2.5 8 -0.5
v -2.5 9 0.5
v -2.5 9 -0.5
v 0.5 0 0.5
v 0.5 0 -0.5
v 0.5 1 1.5
v 0.5 1 0.5
v 0.5 1 -0.5
v 0.5 1 -1.5
v 0.5 3 1.5
v 0.5 3 0.5
v 0.5 3 -0.5
v 0.5 3 -1.5
v 0.5 7 0.5
v 0.5 7 -0.5
v 0.5 26 0.5
v 0.5 26 -0.5
v 0.5 29 0.5
v 0.5 29 -0.5
v 1.5 1 0.5
v 1.5 1 -0.5
v 1.5 3 0.5
v 1.5 3 -0.5
v 1.5 7 1.5
v 1.5 7 0.5
v 1.5 7 -0.5
v 1.5 7 -1.5
v 1.5 8 1.5
v 1.5 8 0.5
v 1.5 8 -0.5
v 1.5 8 -1.5
v 1.5 26 0.5
v 1.5 26 -0.5
v 2.5 7 0.5
v 2.5 7 -0.5
v 2.5 8 0.5
v 2.5 8 -0.5
v 3.5 8 0.5
v 3.5 8 -0.5
v 3.5 9 0.5
v 3.5 9 -0.5
v -1.5 7 1.5
v -1.5 8 1.5
v -0.5 1 1.5
v -0.5 3 1.5
v 0.5 1 1.5
v 0.5 3 1.5
v 1.5 7 1.5
v 1.5 8 1.5
v -3.5 8 0.5
v -3.5 9 0.5
v -2.5 7 0.5
v -2.5 8 0.5
v -2.5 9 0.5
v -1.5 1 0.5
v -1.5 3 0.5
v -1.5 7 0.5
v -1.5 8 0.5
v -1.5 26 0.5
v -0.5 0 0.5
v -0.5 1 0.5
v -0.5 3 0.5
v -0.5 7 0.5
v -0.5 8 0.5
v -0.5 26 0.5
v -0.5 29 0.5
v 0.5 0 0.5
v 0.5 1 0.5
v 0.5 3 0.5
v 0.5 7 0.5
v 0.5 8 0.5
v 0.5 26 0.5
v 0.5 29 0.5
v 1.5 1 0.5
v 1.5 3 0.5
v 1.5 7 0.5
v 1.5 8 0.5
v 1.5 26 0.5
v 2.5 7 0.5
v 2.5 8 0.5
v 2.5 9 0.5
v 3.5 8 0.5
v 3.5 9 0.5
v -3.5 8 -0.5
v -3.5 9 -0.5
v -2.5 7 -0.5
v -2.5 8 -0.5
v -2.5 9 -0.5
v -1.5 1 -0.5
v -1.5 3 -0.5
v -1.5 7 -0.5
v -1.5 8 -0.5
v -1.5 26 -0.5
v -0.5 0 -0.5
v -0.5 1 -0.5
v -0.5 3 -0.5
v -0.5 7 -0.5
v -0.5 8 -0.5
v -0.5 26 -0.5
v -0.5 29 -0.5
v 0.5 0 -0.5
v 0.5 1 -0.5
v 0.5 3 -0.5
v 0.5 7 -0.5
v 0.5 8 -0.5
v 0.5 26 -0.5
v 0.5 29 -0.5
v 1.5 1 -0.5
v 1.5 3 -0.5
v 1.5 7 -0.5
v 1.5 8 -0.5
v 1.5 26 -0.5
v 2.5 7 -0.5
v 2.5 8 -0.5
v 2.5 9 -0.5
v 3.5 8 -0.5
v 3.5 9 -0.5
v -1.5 7 -1.5
v -1.5 8 -1.5
v -0.5 1 -1.5
v -0.5 3 -1.5
v 0.5 1 -1.5
v 0.5 3 -1.5
v 1.5 7 -1.5
v 1.5 8 -1.5
v -0.5 0 0.5
v 0.5 0 0.5
v -0.5 0 -0.5
v 0.5 0 -0.5
v -0.5 1 1.5
v 0.5 1 1.5
v -1.5 1 0.5
v -0.5 1 0.5
v 0.5 1 0.5
v 1.5 1 0.5
v -1.5 1 -0.5
v -0.5 1 -0.5
v 0.5 1 -0.5
v 1.5 1 -0.5
v -0.5 1 -1.5
v 0.5 1 -1.5
v -1.5 7 1.5
v 1.5 7 1.5
v -2.5 7 0.5
v -1.5 7 0.5
v -0.5 7 0.5
v 0.5 7 0.5
v 1.5 7 0.5
v 2.5 7 0.5
v -2.5 7 -0.5
v -1.5 7 -0.5
v -0.5 7 -0.5
v 0.5 7 -0.5
v 1.5 7 -0.5
v 2.5 7 -0.5
v -1.5 7 -1.5
v 1.5 7 -1.5
v -3.5 8 0.5
v -2.5 8 0.5
v 2.5 8 0.5
v 3.5 8 0.5
v -3.5 8 -0.5
v -2.5 8 -0.5
v 2.5 8 -0.5
v 3.5 8 -0.5
v -0.5 3 1.5
v 0.5 3 1.5
v -1.5 3 0.5
v -0.5 3 0.5
v 0.5 3 0.5
v 1.5 3 0.5
v -1.5 3 -0.5
v -0.5 3 -0.5
v 0.5 3 -0.5
v 1.5 3 -0.5
v -0.5 3 -1.5
v 0.5 3 -1.5
v -1.5 8 1.5
v 1.5 8 1.5
v -2.5 8 0.5
v -1.5 8 0.5
v -0.5 8 0.5
v 0.5 8 0.5
v 1.5 8 0.5
v 2.5 8 0.5
v -2.5 8 -0.5
v -1.5 8 -0.5
v -0.5 8 -0.5
v 0.5 8 -0.5
v 1.5 8 -0.5
v 2.5 8 -0.5
v -1.5 8 -1.5
v 1.5 8 -1.5
v -3.5 9 0.5
v -2.5 9 0.5
v 2.5 9 0.5
v 3.5 9 0.5
v -3.5 9 -0.5
v -2.5 9 -0.5
v 2.5 9 -0.5
v 3.5 9 -0.5
v -1.5 26 0.5
v -0.5 26 0.5
v 0.5 26 0.5
v 1.5 26 0.5
v -1.5 26 -0.5
v -0.5 26 -0.5
v 0.5 26 -0.5
v 1.5 26 -0.5
v -0.5 29 0.5
v 0.5 29 0.5
v -0.5 29 -0.5
v 0.5 29 -0.5

# faces
f 3/2/1 2/2/1 1/2/1
f 4/2/1 2/2/1 3/2/1
f 7/2/1 6/2/1 5/2/1
f 8/2/1 6/2/1 7/2/1
f 11/2/1 10/2/1 9/2/1
f 12/2/1 10/2/1 11/2/1
f 17/2/1 14/2/1 13/2/1
f 18/2/1 14/2/1 17/2/1
f 19/2/1 16/2/1 15/2/1
f 20/2/1 16/2/1 19/2/1
f 21/3/1 19/3/1 18/3/1
f 22/3/1 19/3/1 21/3/1
f 26/2/1 24/2/1 23/2/1
f 27/2/1 24/2/1 26/2/1
f 29/2/1 26/2/1 25/2/1
f 30/2/1 26/2/1 29/2/1
f 31/2/1 28/2/1 27/2/1
f 32/2/1 28/2/1 31/2/1
f 33/1/1 31/1/1 30/1/1
f 34/1/1 31/1/1 33/1/1
f 37/4/1 36/4/1 35/4/1
f 38/4/1 36/4/1 37/4/1
f 41/2/1 40/2/1 39/2/1
f 42/2/1 40/2/1 41/2/1
f 43/2/2 44/2/2 45/2/2
f 45/2/2 44/2/2 46/2/2
f 47/2/2 48/2/2 50/2/2
f 50/2/2 48/2/2 51/2/2
f 49/2/2 50/2/2 53/2/2
f 53/2/2 50/2/2 54/2/2
f 51/2/2 52/2/2 55/2/2
f 55/2/2 52/2/2 56/2/2
f 54/1/2 55/1/2 57/1/2
f 57/1/2 55/1/2 58/1/2
f 59/4/2 60/4/2 61/4/2
f 61/4/2 60/4/2 62/4/2
f 63/2/2 64/2/2 65/2/2
f 65/2/2 64/2/2 66/2/2
f 67/2/2 68/2/2 71/2/2
f 71/2/2 68/2/2 72/2/2
f 69/2/2 70/2/2 73/2/2
f 73/2/2 70/2/2 74/2/2
f 72/3/2 73/3/2 75/3/2
f 75/3/2 73/3/2 76/3/2
f 77/2/2 78/2/2 79/2/2
f 79/2/2 78/2/2 80/2/2
f 81/2/2 82/2/2 83/2/2
f 83/2/2 82/2/2 84/2/2
f 89/2/3 88/2/3 87/2/3
f 90/2/3 88/2/3 89/2/3
f 91/2/3 86/2/3 85/2/3
f 92/2/3 86/2/3 91/2/3
f 96/2/3 94/2/3 93/2/3
f 97/2/3 94/2/3 96/2/3
f 100/2/3 96/2/3 95/2/3
f 101/2/3 96/2/3 100/2/3
f 104/2/3 99/2/3 98/2/3
f 105/2/3 99/2/3 104/2/3
f 107/3/3 102/3/3 101/3/3
f 108/3/3 102/3/3 107/3/3
f 110/2/3 104/2/3 103/2/3
f 111/2/3 104/2/3 110/2/3
f 112/1/3 106/1/3 105/1/3
f 113/1/3 106/1/3 112/1/3
f 114/4/3 109/4/3 108/4/3
f 114/4/3 108/4/3 107/4/3
f 115/4/3 109/4/3 114/4/3
f 116/4/3 109/4/3 115/4/3
f 117/2/3 112/2/3 111/2/3
f 118/2/3 112/2/3 117/2/3
f 120/3/3 115/3/3 114/3/3
f 121/3/3 115/3/3 120/3/3
f 122/2/3 120/2/3 119/2/3
f 123/2/3 120/2/3 122/2/3
f 125/2/3 124/2/3 123/2/3
f 126/2/3 124/2/3 125/2/3
f 127/2/4 128/2/4 130/2/4
f 130/2/4 128/2/4 131/2/4
f 129/2/4 130/2/4 134/2/4
f 134/2/4 130/2/4 135/2/4
f 132/2/4 133/2/4 138/2/4
f 138/2/4 133/2/4 139/2/4
f 135/3/4 136/3/4 141/3/4
f 141/3/4 136/3/4 142/3/4
f 137/2/4 138/2/4 144/2/4
f 144/2/4 138/2/4 145/2/4
f 139/1/4 140/1/4 146/1/4
f 146/1/4 140/1/4 147/1/4
f 142/4/4 143/4/4 148/4/4
f 141/4/4 142/4/4 148/4/4
f 148/4/4 143/4/4 149/4/4
f 149/4/4 143/4/4 150/4/4
f 145/2/4 146/2/4 151/2/4
f 151/2/4 146/2/4 152/2/4
f 148/3/4 149/3/4 154/3/4
f 154/3/4 149/3/4 155/3/4
f 153/2/4 154/2/4 156/2/4
f 156/2/4 154/2/4 157/2/4
f 157/2/4 158/2/4 159/2/4
f 159/2/4 158/2/4 160/2/4
f 163/2/4 164/2/4 165/2/4
f 165/2/4 164/2/4 166/2/4
f 161/2/4 162/2/4 167/2/4
f 167/2/4 162/2/4 168/2/4
f 171/2/5 170/2/5 169/2/5
f 172/2/5 170/2/5 171/2/5
f 176/2/5 174/2/5 173/2/5
f 177/2/5 174/2/5 176/2/5
f 179/2/5 176/2/5 175/2/5
f 180/2/5 176/2/5 179/2/5
f 181/2/5 178/2/5 177/2/5
f 182/2/5 178/2/5 181/2/5
f 183/2/5 181/2/5 180/2/5
f 184/2/5 181/2/5 183/2/5
f 188/2/5 186/2/5 185/2/5
f 189/2/5 186/2/5 188/2/5
f 190/2/5 186/2/5 189/2/5
f 191/2/5 186/2/5 190/2/5
f 193/2/5 188/2/5 187/2/5
f 193/2/5 189/2/5 188/2/5
f 194/2/5 189/2/5 193/2/5
f 195/2/5 189/2/5 194/2/5
f 196/2/5 192/2/5 191/2/5
f 196/2/5 191/2/5 190/2/5
f 197/2/5 192/2/5 196/2/5
f 198/2/5 192/2/5 197/2/5
f 199/2/5 195/2/5 194/2/5
f 199/2/5 197/2/5 196/2/5
f 199/2/5 196/2/5 195/2/5
f 200/2/5 197/2/5 199/2/5
f 205/2/5 202/2/5 201/2/5
f 206/2/5 202/2/5 205/2/5
f 207/2/5 204/2/5 203/2/5
f 208/2/5 204/2/5 207/2/5
f 209/2/6 210/2/6 212/2/6
f 212/2/6 210/2/6 213/2/6
f 211/2/6 212/2/6 215/2/6
f 215/2/6 212/2/6 216/2/6
f 213/2/6 214/2/6 217/2/6
f 217/2/6 214/2/6 218/2/6
f 216/2/6 217/2/6 219/2/6
f 219/2/6 217/2/6 220/2/6
f 221/2/6 222/2/6 224/2/6
f 224/2/6 222/2/6 225/2/6
f 225/2/6 222/2/6 226/2/6
f 226/2/6 222/2/6 227/2/6
f 223/2/6 224/2/6 229/2/6
f 229/2/6 224/2/6 230/2/6
f 227/2/6 228/2/6 233/2/6
f 233/2/6 228/2/6 234/2/6
f 231/2/6 232/2/6 235/2/6
f 232/2/6 233/2/6 235/2/6
f 230/2/6 231/2/6 235/2/6
f 235/2/6 233/2/6 236/2/6
f 237/2/6 238/2/6 241/2/6
f 241/2/6 238/2/6 242/2/6
f 239/2/6 240/2/6 243/2/6
f 243/2/6 240/2/6 244/2/6
f 245/3/6 246/3/6 249/3/6
f 249/3/6 246/3/6 250/3/6
f 247/3/6 248/3/6 251/3/6
f 251/3/6 248/3/6 252/3/6
f 253/4/6 254/4/6 255/4/6
f 255/4/6 254/4/6 256/4/6
