# MagicaVoxel @ Ephtracy

# group
g BlueBird

# material
mtllib BlueBird.mtl
usemtl palette

# normals
vn -1 0 0
vn 1 0 0
vn 0 0 1
vn 0 0 -1
vn 0 -1 0
vn 0 1 0

# texcoords
vt 0.373047 0.5
vt 0.408203 0.5
vt 0.583984 0.5
vt 0.751953 0.5
vt 0.779297 0.5
vt 0.841797 0.5
vt 0.876953 0.5
vt 0.958984 0.5

# verts
v -7 7 2
v -7 7 1
v -7 8 3
v -7 8 2
v -7 9 2
v -7 9 1
v -7 10 3
v -7 10 2
v -6 7 4
v -6 7 2
v -6 7 1
v -6 7 -0
v -6 8 3
v -6 8 2
v -6 9 2
v -6 9 1
v -6 10 4
v -6 10 3
v -6 10 2
v -6 10 -0
v -6 12 5
v -6 12 3
v -6 14 5
v -6 14 3
v -5 6 5
v -5 6 2
v -5 6 -2
v -5 7 4
v -5 7 2
v -5 7 -0
v -5 10 4
v -5 10 2
v -5 10 -0
v -5 11 5
v -5 11 2
v -5 11 -2
v -5 12 5
v -5 12 3
v -5 14 5
v -5 14 3
v -5 15 5
v -5 15 2
v -4 0 4
v -4 0 1
v -4 1 4
v -4 1 1
v -3 1 2
v -3 1 1
v -3 3 3
v -3 3 2
v -3 4 2
v -3 4 1
v -3 6 3
v -3 6 2
v -2 0 4
v -2 0 2
v -2 1 4
v -2 1 2
v -2 7 -2
v -2 7 -4
v -2 10 -2
v -2 10 -4
v -1 10 6
v -1 10 5
v -1 11 5
v -1 12 6
v -1 12 5
v -1 15 5
v -1 15 2
v -1 16 3
v -1 16 2
v -1 17 4
v -1 17 3
v -1 18 5
v -1 18 4
v 1 0 4
v 1 0 1
v 1 1 4
v 1 1 1
v 2 1 2
v 2 1 1
v 2 3 3
v 2 3 2
v 2 4 2
v 2 4 1
v 2 6 3
v 2 6 2
v 3 0 4
v 3 0 2
v 3 1 4
v 3 1 2
v -3 0 4
v -3 0 2
v -3 1 4
v -3 1 2
v -2 1 2
v -2 1 1
v -2 3 3
v -2 3 2
v -2 4 2
v -2 4 1
v -2 6 3
v -2 6 2
v -1 0 4
v -1 0 1
v -1 1 4
v -1 1 1
v 1 10 6
v 1 10 5
v 1 11 5
v 1 12 6
v 1 12 5
v 1 15 5
v 1 15 2
v 1 16 3
v 1 16 2
v 1 17 4
v 1 17 3
v 1 18 5
v 1 18 4
v 2 0 4
v 2 0 2
v 2 1 4
v 2 1 2
v 2 7 -2
v 2 7 -4
v 2 10 -2
v 2 10 -4
v 3 1 2
v 3 1 1
v 3 3 3
v 3 3 2
v 3 4 2
v 3 4 1
v 3 6 3
v 3 6 2
v 4 0 4
v 4 0 1
v 4 1 4
v 4 1 1
v 5 6 5
v 5 6 2
v 5 6 -2
v 5 7 4
v 5 7 2
v 5 7 -0
v 5 10 4
v 5 10 2
v 5 10 -0
v 5 11 5
v 5 11 2
v 5 11 -2
v 5 12 5
v 5 12 3
v 5 14 5
v 5 14 3
v 5 15 5
v 5 15 2
v 6 7 4
v 6 7 2
v 6 7 1
v 6 7 -0
v 6 8 3
v 6 8 2
v 6 9 2
v 6 9 1
v 6 10 4
v 6 10 3
v 6 10 2
v 6 10 -0
v 6 12 5
v 6 12 3
v 6 14 5
v 6 14 3
v 7 7 2
v 7 7 1
v 7 8 3
v 7 8 2
v 7 9 2
v 7 9 1
v 7 10 3
v 7 10 2
v -1 10 6
v -1 12 6
v 1 10 6
v 1 12 6
v -6 12 5
v -6 14 5
v -5 6 5
v -5 11 5
v -5 12 5
v -5 14 5
v -5 15 5
v -1 10 5
v -1 11 5
v -1 12 5
v -1 15 5
v -1 18 5
v 1 10 5
v 1 11 5
v 1 12 5
v 1 15 5
v 1 18 5
v 5 6 5
v 5 11 5
v 5 12 5
v 5 14 5
v 5 15 5
v 6 12 5
v 6 14 5
v -6 7 4
v -6 10 4
v -5 7 4
v -5 10 4
v -4 0 4
v -4 1 4
v -3 0 4
v -3 1 4
v -2 0 4
v -2 1 4
v -1 0 4
v -1 1 4
v 1 0 4
v 1 1 4
v 2 0 4
v 2 1 4
v 3 0 4
v 3 1 4
v 4 0 4
v 4 1 4
v 5 7 4
v 5 10 4
v 6 7 4
v 6 10 4
v -7 8 3
v -7 10 3
v -6 8 3
v -6 10 3
v -3 3 3
v -3 6 3
v -2 3 3
v -2 6 3
v 2 3 3
v 2 6 3
v 3 3 3
v 3 6 3
v 6 8 3
v 6 10 3
v 7 8 3
v 7 10 3
v -7 7 2
v -7 8 2
v -6 7 2
v -6 8 2
v -3 0 2
v -3 1 2
v -3 3 2
v -2 0 2
v -2 1 2
v -2 3 2
v 2 0 2
v 2 1 2
v 2 3 2
v 3 0 2
v 3 1 2
v 3 3 2
v 6 7 2
v 6 8 2
v 7 7 2
v 7 8 2
v -1 17 4
v -1 18 4
v 1 17 4
v 1 18 4
v -6 12 3
v -6 14 3
v -5 12 3
v -5 14 3
v -1 16 3
v -1 17 3
v 1 16 3
v 1 17 3
v 5 12 3
v 5 14 3
v 6 12 3
v 6 14 3
v -7 9 2
v -7 10 2
v -6 9 2
v -6 10 2
v -5 11 2
v -5 15 2
v -3 4 2
v -3 6 2
v -2 4 2
v -2 6 2
v -1 15 2
v -1 16 2
v 1 15 2
v 1 16 2
v 2 4 2
v 2 6 2
v 3 4 2
v 3 6 2
v 5 11 2
v 5 15 2
v 6 9 2
v 6 10 2
v 7 9 2
v 7 10 2
v -7 7 1
v -7 9 1
v -6 7 1
v -6 9 1
v -4 0 1
v -4 1 1
v -3 1 1
v -3 4 1
v -2 1 1
v -2 4 1
v -1 0 1
v -1 1 1
v 1 0 1
v 1 1 1
v 2 1 1
v 2 4 1
v 3 1 1
v 3 4 1
v 4 0 1
v 4 1 1
v 6 7 1
v 6 9 1
v 7 7 1
v 7 9 1
v -6 7 -0
v -6 10 -0
v -5 7 -0
v -5 10 -0
v 5 7 -0
v 5 10 -0
v 6 7 -0
v 6 10 -0
v -5 6 -2
v -5 11 -2
v -2 7 -2
v -2 10 -2
v 2 7 -2
v 2 10 -2
v 5 6 -2
v 5 11 -2
v -2 7 -4
v -2 10 -4
v 2 7 -4
v 2 10 -4
v -4 0 4
v -3 0 4
v -2 0 4
v -1 0 4
v 1 0 4
v 2 0 4
v 3 0 4
v 4 0 4
v -3 0 2
v -2 0 2
v 2 0 2
v 3 0 2
v -4 0 1
v -1 0 1
v 1 0 1
v 4 0 1
v -3 3 3
v -2 3 3
v 2 3 3
v 3 3 3
v -3 3 2
v -2 3 2
v 2 3 2
v 3 3 2
v -5 6 5
v 5 6 5
v -3 6 3
v -2 6 3
v 2 6 3
v 3 6 3
v -5 6 2
v -3 6 2
v -2 6 2
v 2 6 2
v 3 6 2
v 5 6 2
v -5 6 -2
v 5 6 -2
v -6 7 4
v -5 7 4
v 5 7 4
v 6 7 4
v -7 7 2
v -6 7 2
v -5 7 2
v 5 7 2
v 6 7 2
v 7 7 2
v -7 7 1
v -6 7 1
v 6 7 1
v 7 7 1
v -6 7 -0
v -5 7 -0
v 5 7 -0
v 6 7 -0
v -2 7 -2
v 2 7 -2
v -2 7 -4
v 2 7 -4
v -7 8 3
v -6 8 3
v 6 8 3
v 7 8 3
v -7 8 2
v -6 8 2
v 6 8 2
v 7 8 2
v -1 10 6
v 1 10 6
v -1 10 5
v 1 10 5
v -6 12 5
v -5 12 5
v 5 12 5
v 6 12 5
v -6 12 3
v -5 12 3
v 5 12 3
v 6 12 3
v -4 1 4
v -3 1 4
v -2 1 4
v -1 1 4
v 1 1 4
v 2 1 4
v 3 1 4
v 4 1 4
v -3 1 2
v -2 1 2
v 2 1 2
v 3 1 2
v -4 1 1
v -3 1 1
v -2 1 1
v -1 1 1
v 1 1 1
v 2 1 1
v 3 1 1
v 4 1 1
v -3 4 2
v -2 4 2
v 2 4 2
v 3 4 2
v -3 4 1
v -2 4 1
v 2 4 1
v 3 4 1
v -7 9 2
v -6 9 2
v 6 9 2
v 7 9 2
v -7 9 1
v -6 9 1
v 6 9 1
v 7 9 1
v -6 10 4
v -5 10 4
v 5 10 4
v 6 10 4
v -7 10 3
v -6 10 3
v 6 10 3
v 7 10 3
v -7 10 2
v -6 10 2
v -5 10 2
v 5 10 2
v 6 10 2
v 7 10 2
v -6 10 -0
v -5 10 -0
v 5 10 -0
v 6 10 -0
v -2 10 -2
v 2 10 -2
v -2 10 -4
v 2 10 -4
v -5 11 2
v 5 11 2
v -5 11 -2
v 5 11 -2
v -1 12 6
v 1 12 6
v -1 12 5
v 1 12 5
v -6 14 5
v -5 14 5
v 5 14 5
v 6 14 5
v -6 14 3
v -5 14 3
v 5 14 3
v 6 14 3
v -5 15 5
v -1 15 5
v 1 15 5
v 5 15 5
v -5 15 2
v -1 15 2
v 1 15 2
v 5 15 2
v -1 16 3
v 1 16 3
v -1 16 2
v 1 16 2
v -1 17 4
v 1 17 4
v -1 17 3
v 1 17 3
v -1 18 5
v 1 18 5
v -1 18 4
v 1 18 4

# faces
f 4/4/1 2/4/1 1/4/1
f 5/4/1 2/4/1 4/4/1
f 5/4/1 4/4/1 3/4/1
f 6/4/1 2/4/1 5/4/1
f 7/4/1 5/4/1 3/4/1
f 8/4/1 5/4/1 7/4/1
f 13/4/1 10/4/1 9/4/1
f 14/4/1 10/4/1 13/4/1
f 16/4/1 12/4/1 11/4/1
f 17/4/1 13/4/1 9/4/1
f 18/4/1 13/4/1 17/4/1
f 19/4/1 16/4/1 15/4/1
f 20/4/1 12/4/1 16/4/1
f 20/4/1 16/4/1 19/4/1
f 23/7/1 22/7/1 21/7/1
f 24/7/1 22/7/1 23/7/1
f 28/8/1 26/8/1 25/8/1
f 29/2/1 27/2/1 26/2/1
f 29/8/1 26/8/1 28/8/1
f 30/2/1 27/2/1 29/2/1
f 31/8/1 28/8/1 25/8/1
f 33/2/1 27/2/1 30/2/1
f 34/8/1 32/8/1 31/8/1
f 34/8/1 31/8/1 25/8/1
f 35/2/1 33/2/1 32/2/1
f 35/8/1 32/8/1 34/8/1
f 36/2/1 27/2/1 33/2/1
f 36/2/1 33/2/1 35/2/1
f 37/4/1 35/4/1 34/4/1
f 38/4/1 35/4/1 37/4/1
f 40/4/1 35/4/1 38/4/1
f 41/4/1 40/4/1 39/4/1
f 42/4/1 35/4/1 40/4/1
f 42/4/1 40/4/1 41/4/1
f 45/1/1 44/1/1 43/1/1
f 46/1/1 44/1/1 45/1/1
f 50/1/1 48/1/1 47/1/1
f 51/1/1 48/1/1 50/1/1
f 51/1/1 50/1/1 49/1/1
f 52/1/1 48/1/1 51/1/1
f 53/1/1 51/1/1 49/1/1
f 54/1/1 51/1/1 53/1/1
f 57/1/1 56/1/1 55/1/1
f 58/1/1 56/1/1 57/1/1
f 61/5/1 60/5/1 59/5/1
f 62/5/1 60/5/1 61/5/1
f 65/7/1 64/7/1 63/7/1
f 66/7/1 65/7/1 63/7/1
f 67/7/1 65/7/1 66/7/1
f 70/4/1 69/4/1 68/4/1
f 71/4/1 69/4/1 70/4/1
f 72/4/1 70/4/1 68/4/1
f 73/4/1 70/4/1 72/4/1
f 74/4/1 72/4/1 68/4/1
f 75/4/1 72/4/1 74/4/1
f 78/1/1 77/1/1 76/1/1
f 79/1/1 77/1/1 78/1/1
f 83/1/1 81/1/1 80/1/1
f 84/1/1 81/1/1 83/1/1
f 84/1/1 83/1/1 82/1/1
f 85/1/1 81/1/1 84/1/1
f 86/1/1 84/1/1 82/1/1
f 87/1/1 84/1/1 86/1/1
f 90/1/1 89/1/1 88/1/1
f 91/1/1 89/1/1 90/1/1
f 92/1/2 93/1/2 94/1/2
f 94/1/2 93/1/2 95/1/2
f 96/1/2 97/1/2 99/1/2
f 99/1/2 97/1/2 100/1/2
f 98/1/2 99/1/2 100/1/2
f 100/1/2 97/1/2 101/1/2
f 98/1/2 100/1/2 102/1/2
f 102/1/2 100/1/2 103/1/2
f 104/1/2 105/1/2 106/1/2
f 106/1/2 105/1/2 107/1/2
f 108/7/2 109/7/2 110/7/2
f 108/7/2 110/7/2 111/7/2
f 111/7/2 110/7/2 112/7/2
f 113/4/2 114/4/2 115/4/2
f 115/4/2 114/4/2 116/4/2
f 113/4/2 115/4/2 117/4/2
f 117/4/2 115/4/2 118/4/2
f 113/4/2 117/4/2 119/4/2
f 119/4/2 117/4/2 120/4/2
f 121/1/2 122/1/2 123/1/2
f 123/1/2 122/1/2 124/1/2
f 125/5/2 126/5/2 127/5/2
f 127/5/2 126/5/2 128/5/2
f 129/1/2 130/1/2 132/1/2
f 132/1/2 130/1/2 133/1/2
f 131/1/2 132/1/2 133/1/2
f 133/1/2 130/1/2 134/1/2
f 131/1/2 133/1/2 135/1/2
f 135/1/2 133/1/2 136/1/2
f 137/1/2 138/1/2 139/1/2
f 139/1/2 138/1/2 140/1/2
f 141/8/2 142/8/2 144/8/2
f 142/2/2 143/2/2 145/2/2
f 144/8/2 142/8/2 145/8/2
f 145/2/2 143/2/2 146/2/2
f 141/8/2 144/8/2 147/8/2
f 146/2/2 143/2/2 149/2/2
f 147/8/2 148/8/2 150/8/2
f 141/8/2 147/8/2 150/8/2
f 148/2/2 149/2/2 151/2/2
f 150/8/2 148/8/2 151/8/2
f 149/2/2 143/2/2 152/2/2
f 151/2/2 149/2/2 152/2/2
f 150/4/2 151/4/2 153/4/2
f 153/4/2 151/4/2 154/4/2
f 154/4/2 151/4/2 156/4/2
f 155/4/2 156/4/2 157/4/2
f 156/4/2 151/4/2 158/4/2
f 157/4/2 156/4/2 158/4/2
f 159/4/2 160/4/2 163/4/2
f 163/4/2 160/4/2 164/4/2
f 161/4/2 162/4/2 166/4/2
f 159/4/2 163/4/2 167/4/2
f 167/4/2 163/4/2 168/4/2
f 165/4/2 166/4/2 169/4/2
f 166/4/2 162/4/2 170/4/2
f 169/4/2 166/4/2 170/4/2
f 171/7/2 172/7/2 173/7/2
f 173/7/2 172/7/2 174/7/2
f 175/4/2 176/4/2 178/4/2
f 178/4/2 176/4/2 179/4/2
f 177/4/2 178/4/2 179/4/2
f 179/4/2 176/4/2 180/4/2
f 177/4/2 179/4/2 181/4/2
f 181/4/2 179/4/2 182/4/2
f 185/7/3 184/7/3 183/7/3
f 186/7/3 184/7/3 185/7/3
f 191/7/3 188/7/3 187/7/3
f 192/7/3 188/7/3 191/7/3
f 194/8/3 190/8/3 189/8/3
f 195/4/3 193/4/3 192/4/3
f 195/8/3 190/8/3 194/8/3
f 195/4/3 191/4/3 190/4/3
f 195/4/3 192/4/3 191/4/3
f 196/4/3 193/4/3 195/4/3
f 197/4/3 193/4/3 196/4/3
f 199/8/3 194/8/3 189/8/3
f 201/4/3 198/4/3 197/4/3
f 201/4/3 197/4/3 196/4/3
f 202/4/3 198/4/3 201/4/3
f 203/4/3 198/4/3 202/4/3
f 204/8/3 200/8/3 199/8/3
f 204/8/3 199/8/3 189/8/3
f 205/4/3 202/4/3 201/4/3
f 205/8/3 200/8/3 204/8/3
f 205/4/3 201/4/3 200/4/3
f 206/4/3 202/4/3 205/4/3
f 207/4/3 202/4/3 206/4/3
f 208/4/3 202/4/3 207/4/3
f 209/7/3 207/7/3 206/7/3
f 210/7/3 207/7/3 209/7/3
f 213/4/3 212/4/3 211/4/3
f 214/4/3 212/4/3 213/4/3
f 217/1/3 216/1/3 215/1/3
f 218/1/3 216/1/3 217/1/3
f 221/1/3 220/1/3 219/1/3
f 222/1/3 220/1/3 221/1/3
f 225/1/3 224/1/3 223/1/3
f 226/1/3 224/1/3 225/1/3
f 229/1/3 228/1/3 227/1/3
f 230/1/3 228/1/3 229/1/3
f 233/4/3 232/4/3 231/4/3
f 234/4/3 232/4/3 233/4/3
f 237/4/3 236/4/3 235/4/3
f 238/4/3 236/4/3 237/4/3
f 241/1/3 240/1/3 239/1/3
f 242/1/3 240/1/3 241/1/3
f 245/1/3 244/1/3 243/1/3
f 246/1/3 244/1/3 245/1/3
f 249/4/3 248/4/3 247/4/3
f 250/4/3 248/4/3 249/4/3
f 253/4/3 252/4/3 251/4/3
f 254/4/3 252/4/3 253/4/3
f 258/1/3 256/1/3 255/1/3
f 258/1/3 257/1/3 256/1/3
f 259/1/3 257/1/3 258/1/3
f 260/1/3 257/1/3 259/1/3
f 264/1/3 262/1/3 261/1/3
f 264/1/3 263/1/3 262/1/3
f 265/1/3 263/1/3 264/1/3
f 266/1/3 263/1/3 265/1/3
f 269/4/3 268/4/3 267/4/3
f 270/4/3 268/4/3 269/4/3
f 271/4/4 272/4/4 273/4/4
f 273/4/4 272/4/4 274/4/4
f 275/7/4 276/7/4 277/7/4
f 277/7/4 276/7/4 278/7/4
f 279/4/4 280/4/4 281/4/4
f 281/4/4 280/4/4 282/4/4
f 283/7/4 284/7/4 285/7/4
f 285/7/4 284/7/4 286/7/4
f 287/4/4 288/4/4 289/4/4
f 289/4/4 288/4/4 290/4/4
f 293/1/4 294/1/4 295/1/4
f 295/1/4 294/1/4 296/1/4
f 291/4/4 292/4/4 297/4/4
f 291/4/4 297/4/4 299/4/4
f 297/4/4 298/4/4 299/4/4
f 299/4/4 298/4/4 300/4/4
f 301/1/4 302/1/4 303/1/4
f 303/1/4 302/1/4 304/1/4
f 291/4/4 299/4/4 305/4/4
f 305/4/4 299/4/4 306/4/4
f 307/4/4 308/4/4 309/4/4
f 309/4/4 308/4/4 310/4/4
f 311/4/4 312/4/4 313/4/4
f 313/4/4 312/4/4 314/4/4
f 315/1/4 316/1/4 317/1/4
f 315/1/4 317/1/4 319/1/4
f 317/1/4 318/1/4 319/1/4
f 319/1/4 318/1/4 320/1/4
f 315/1/4 319/1/4 321/1/4
f 321/1/4 319/1/4 322/1/4
f 323/1/4 324/1/4 325/1/4
f 323/1/4 325/1/4 327/1/4
f 325/1/4 326/1/4 327/1/4
f 327/1/4 326/1/4 328/1/4
f 323/1/4 327/1/4 329/1/4
f 329/1/4 327/1/4 330/1/4
f 331/4/4 332/4/4 333/4/4
f 333/4/4 332/4/4 334/4/4
f 335/4/4 336/4/4 337/4/4
f 337/4/4 336/4/4 338/4/4
f 339/4/4 340/4/4 341/4/4
f 341/4/4 340/4/4 342/4/4
f 343/2/4 344/2/4 345/2/4
f 345/2/4 344/2/4 346/2/4
f 343/2/4 345/2/4 347/2/4
f 346/2/4 344/2/4 348/2/4
f 343/2/4 347/2/4 349/2/4
f 347/2/4 348/2/4 349/2/4
f 348/2/4 344/2/4 350/2/4
f 349/2/4 348/2/4 350/2/4
f 351/5/4 352/5/4 353/5/4
f 353/5/4 352/5/4 354/5/4
f 363/1/5 356/1/5 355/1/5
f 364/1/5 358/1/5 357/1/5
f 365/1/5 360/1/5 359/1/5
f 366/1/5 362/1/5 361/1/5
f 367/1/5 363/1/5 355/1/5
f 367/1/5 364/1/5 363/1/5
f 368/1/5 358/1/5 364/1/5
f 368/1/5 364/1/5 367/1/5
f 369/1/5 365/1/5 359/1/5
f 369/1/5 366/1/5 365/1/5
f 370/1/5 362/1/5 366/1/5
f 370/1/5 366/1/5 369/1/5
f 375/1/5 372/1/5 371/1/5
f 376/1/5 372/1/5 375/1/5
f 377/1/5 374/1/5 373/1/5
f 378/1/5 374/1/5 377/1/5
f 381/8/5 380/8/5 379/8/5
f 382/8/5 380/8/5 381/8/5
f 383/8/5 380/8/5 382/8/5
f 384/8/5 380/8/5 383/8/5
f 385/8/5 381/8/5 379/8/5
f 386/8/5 381/8/5 385/8/5
f 387/8/5 383/8/5 382/8/5
f 388/8/5 383/8/5 387/8/5
f 389/8/5 380/8/5 384/8/5
f 390/8/5 380/8/5 389/8/5
f 391/2/5 388/2/5 387/2/5
f 391/2/5 386/2/5 385/2/5
f 391/2/5 390/2/5 389/2/5
f 391/2/5 389/2/5 388/2/5
f 391/2/5 387/2/5 386/2/5
f 392/2/5 390/2/5 391/2/5
f 398/4/5 394/4/5 393/4/5
f 399/4/5 394/4/5 398/4/5
f 400/4/5 396/4/5 395/4/5
f 401/4/5 396/4/5 400/4/5
f 403/4/5 399/4/5 398/4/5
f 403/4/5 398/4/5 397/4/5
f 404/4/5 399/4/5 403/4/5
f 405/4/5 402/4/5 401/4/5
f 405/4/5 401/4/5 400/4/5
f 406/4/5 402/4/5 405/4/5
f 407/4/5 399/4/5 404/4/5
f 408/4/5 399/4/5 407/4/5
f 409/4/5 405/4/5 400/4/5
f 410/4/5 405/4/5 409/4/5
f 413/5/5 412/5/5 411/5/5
f 414/5/5 412/5/5 413/5/5
f 419/4/5 416/4/5 415/4/5
f 420/4/5 416/4/5 419/4/5
f 421/4/5 418/4/5 417/4/5
f 422/4/5 418/4/5 421/4/5
f 425/7/5 424/7/5 423/7/5
f 426/7/5 424/7/5 425/7/5
f 431/7/5 428/7/5 427/7/5
f 432/7/5 428/7/5 431/7/5
f 433/7/5 430/7/5 429/7/5
f 434/7/5 430/7/5 433/7/5
f 435/1/6 436/1/6 443/1/6
f 437/1/6 438/1/6 444/1/6
f 439/1/6 440/1/6 445/1/6
f 441/1/6 442/1/6 446/1/6
f 435/1/6 443/1/6 447/1/6
f 447/1/6 443/1/6 448/1/6
f 444/1/6 438/1/6 449/1/6
f 449/1/6 438/1/6 450/1/6
f 439/1/6 445/1/6 451/1/6
f 451/1/6 445/1/6 452/1/6
f 446/1/6 442/1/6 453/1/6
f 453/1/6 442/1/6 454/1/6
f 455/1/6 456/1/6 459/1/6
f 459/1/6 456/1/6 460/1/6
f 457/1/6 458/1/6 461/1/6
f 461/1/6 458/1/6 462/1/6
f 463/4/6 464/4/6 467/4/6
f 467/4/6 464/4/6 468/4/6
f 465/4/6 466/4/6 469/4/6
f 469/4/6 466/4/6 470/4/6
f 471/4/6 472/4/6 476/4/6
f 473/4/6 474/4/6 477/4/6
f 475/4/6 476/4/6 479/4/6
f 476/4/6 472/4/6 480/4/6
f 479/4/6 476/4/6 480/4/6
f 480/4/6 472/4/6 481/4/6
f 477/4/6 478/4/6 482/4/6
f 473/4/6 477/4/6 482/4/6
f 482/4/6 478/4/6 483/4/6
f 483/4/6 478/4/6 484/4/6
f 480/4/6 481/4/6 485/4/6
f 485/4/6 481/4/6 486/4/6
f 482/4/6 483/4/6 487/4/6
f 487/4/6 483/4/6 488/4/6
f 489/5/6 490/5/6 491/5/6
f 491/5/6 490/5/6 492/5/6
f 493/2/6 494/2/6 495/2/6
f 495/2/6 494/2/6 496/2/6
f 497/7/6 498/7/6 499/7/6
f 499/7/6 498/7/6 500/7/6
f 501/7/6 502/7/6 505/7/6
f 505/7/6 502/7/6 506/7/6
f 503/7/6 504/7/6 507/7/6
f 507/7/6 504/7/6 508/7/6
f 509/4/6 510/4/6 513/4/6
f 513/4/6 510/4/6 514/4/6
f 511/4/6 512/4/6 515/4/6
f 515/4/6 512/4/6 516/4/6
f 517/4/6 518/4/6 519/4/6
f 519/4/6 518/4/6 520/4/6
f 521/4/6 522/4/6 523/4/6
f 523/4/6 522/4/6 524/4/6
f 525/4/6 526/4/6 527/4/6
f 527/4/6 526/4/6 528/4/6
