# MagicaVoxel @ Ephtracy

# group
g Deer

# material
mtllib Deer.mtl
usemtl palette

# normals
vn -1 0 0
vn 1 0 0
vn 0 0 1
vn 0 0 -1
vn 0 -1 0
vn 0 1 0

# texcoords
vt 0.396484 0.5
vt 0.560547 0.5
vt 0.876953 0.5
vt 0.958984 0.5

# verts
v -6 0 4
v -6 0 2
v -6 0 -16
v -6 0 -18
v -6 2 4
v -6 2 2
v -6 2 -16
v -6 2 -18
v -6 6 4
v -6 6 2
v -6 6 -0
v -6 6 -12
v -6 6 -16
v -6 6 -18
v -6 8 4
v -6 8 2
v -6 8 -0
v -6 8 -2
v -6 8 -10
v -6 8 -12
v -6 8 -16
v -6 8 -18
v -6 10 -2
v -6 10 -4
v -6 16 2
v -6 16 -4
v -6 16 -10
v -6 16 -16
v -6 30 5
v -6 30 3
v -6 34 5
v -6 34 3
v -5 36 4
v -5 36 2
v -5 38 4
v -5 38 2
v -4 8 -2
v -4 8 -10
v -4 10 4
v -4 10 2
v -4 10 -2
v -4 10 -4
v -4 12 6
v -4 12 4
v -4 12 -4
v -4 12 -10
v -4 14 8
v -4 14 6
v -4 14 4
v -4 14 2
v -4 16 6
v -4 16 4
v -4 16 2
v -4 16 -4
v -4 16 -10
v -4 16 -16
v -4 18 -4
v -4 18 -16
v -4 20 -0
v -4 20 -4
v -4 22 2
v -4 22 -0
v -4 24 6
v -4 24 5
v -4 26 10
v -4 26 8
v -4 26 5
v -4 28 8
v -4 28 6
v -4 30 8
v -4 30 6
v -4 30 5
v -4 30 3
v -4 32 10
v -4 32 5
v -4 32 3
v -4 32 2
v -3 32 4
v -3 32 2
v -3 34 8
v -3 34 4
v -3 36 6
v -3 36 4
v -3 36 2
v -3 38 8
v -3 38 6
v -3 38 4
v -3 38 2
v -3 40 4
v -3 40 2
v -2 26 12
v -2 26 10
v -2 30 12
v -2 30 10
v -1 12 -16
v -1 12 -17
v -1 12 -18
v -1 15 -16
v -1 15 -17
v -1 17 -16
v -1 17 -18
v -1 27 13
v -1 27 12
v -1 29 13
v -1 29 12
v 1 32 4
v 1 32 2
v 1 34 8
v 1 34 4
v 1 36 6
v 1 36 4
v 1 38 8
v 1 38 6
v 1 40 4
v 1 40 2
v 4 0 4
v 4 0 2
v 4 0 -16
v 4 0 -18
v 4 2 4
v 4 2 2
v 4 2 -16
v 4 2 -18
v 4 6 4
v 4 6 2
v 4 6 -0
v 4 6 -12
v 4 6 -16
v 4 6 -18
v 4 8 4
v 4 8 2
v 4 8 -0
v 4 8 -12
v 4 8 -16
v 4 8 -18
v 4 32 5
v 4 32 3
v 4 34 5
v 4 34 3
v -4 0 4
v -4 0 2
v -4 0 -16
v -4 0 -18
v -4 2 4
v -4 2 2
v -4 2 -16
v -4 2 -18
v -4 6 4
v -4 6 2
v -4 6 -0
v -4 6 -12
v -4 6 -16
v -4 6 -18
v -4 8 4
v -4 8 2
v -4 8 -0
v -4 8 -12
v -4 8 -16
v -4 8 -18
v -4 32 5
v -4 32 3
v -4 34 5
v -4 34 3
v -1 32 4
v -1 32 2
v -1 34 8
v -1 34 4
v -1 36 6
v -1 36 4
v -1 38 8
v -1 38 6
v -1 40 4
v -1 40 2
v 1 12 -16
v 1 12 -17
v 1 12 -18
v 1 15 -16
v 1 15 -17
v 1 17 -16
v 1 17 -18
v 1 27 13
v 1 27 12
v 1 29 13
v 1 29 12
v 2 26 12
v 2 26 10
v 2 30 12
v 2 30 10
v 3 32 4
v 3 32 2
v 3 34 8
v 3 34 4
v 3 36 6
v 3 36 4
v 3 36 2
v 3 38 8
v 3 38 6
v 3 38 4
v 3 38 2
v 3 40 4
v 3 40 2
v 4 8 -2
v 4 8 -10
v 4 10 4
v 4 10 2
v 4 10 -2
v 4 10 -4
v 4 12 6
v 4 12 4
v 4 12 -4
v 4 12 -10
v 4 14 8
v 4 14 6
v 4 14 4
v 4 14 2
v 4 16 6
v 4 16 4
v 4 16 2
v 4 16 -4
v 4 16 -10
v 4 16 -16
v 4 18 -4
v 4 18 -16
v 4 20 -0
v 4 20 -4
v 4 22 2
v 4 22 -0
v 4 24 6
v 4 24 5
v 4 26 10
v 4 26 8
v 4 26 5
v 4 28 8
v 4 28 6
v 4 30 8
v 4 30 6
v 4 30 5
v 4 30 3
v 4 32 10
v 4 32 5
v 4 32 3
v 4 32 2
v 5 36 4
v 5 36 2
v 5 38 4
v 5 38 2
v 6 0 4
v 6 0 2
v 6 0 -16
v 6 0 -18
v 6 2 4
v 6 2 2
v 6 2 -16
v 6 2 -18
v 6 6 4
v 6 6 2
v 6 6 -0
v 6 6 -12
v 6 6 -16
v 6 6 -18
v 6 8 4
v 6 8 2
v 6 8 -0
v 6 8 -2
v 6 8 -10
v 6 8 -12
v 6 8 -16
v 6 8 -18
v 6 10 -2
v 6 10 -4
v 6 16 2
v 6 16 -4
v 6 16 -10
v 6 16 -16
v 6 30 5
v 6 30 3
v 6 34 5
v 6 34 3
v -1 27 13
v -1 29 13
v 1 27 13
v 1 29 13
v -2 26 12
v -2 30 12
v -1 27 12
v -1 29 12
v 1 27 12
v 1 29 12
v 2 26 12
v 2 30 12
v -4 26 10
v -4 32 10
v -2 26 10
v -2 30 10
v 2 26 10
v 2 30 10
v 4 26 10
v 4 32 10
v -4 14 8
v -4 26 8
v -3 34 8
v -3 38 8
v -1 34 8
v -1 38 8
v 1 34 8
v 1 38 8
v 3 34 8
v 3 38 8
v 4 14 8
v 4 26 8
v -4 12 6
v -4 14 6
v 4 12 6
v 4 14 6
v -6 30 5
v -6 34 5
v -4 30 5
v -4 32 5
v -4 34 5
v 4 30 5
v 4 32 5
v 4 34 5
v 6 30 5
v 6 34 5
v -6 0 4
v -6 2 4
v -6 6 4
v -6 8 4
v -5 36 4
v -5 38 4
v -4 0 4
v -4 2 4
v -4 6 4
v -4 8 4
v -4 10 4
v -4 12 4
v -3 32 4
v -3 34 4
v -3 36 4
v -3 38 4
v -3 40 4
v -1 32 4
v -1 34 4
v -1 36 4
v -1 40 4
v 1 32 4
v 1 34 4
v 1 36 4
v 1 40 4
v 3 32 4
v 3 34 4
v 3 36 4
v 3 38 4
v 3 40 4
v 4 0 4
v 4 2 4
v 4 6 4
v 4 8 4
v 4 10 4
v 4 12 4
v 5 36 4
v 5 38 4
v 6 0 4
v 6 2 4
v 6 6 4
v 6 8 4
v -6 8 2
v -6 16 2
v -4 8 2
v -4 10 2
v -4 14 2
v -4 16 2
v 4 8 2
v 4 10 2
v 4 14 2
v 4 16 2
v 6 8 2
v 6 16 2
v -6 8 -10
v -6 16 -10
v -4 8 -10
v -4 12 -10
v -4 16 -10
v 4 8 -10
v 4 12 -10
v 4 16 -10
v 6 8 -10
v 6 16 -10
v -6 6 -12
v -6 8 -12
v -4 6 -12
v -4 8 -12
v 4 6 -12
v 4 8 -12
v 6 6 -12
v 6 8 -12
v -6 0 -16
v -6 2 -16
v -6 6 -16
v -4 0 -16
v -4 2 -16
v -4 6 -16
v 4 0 -16
v 4 2 -16
v 4 6 -16
v 6 0 -16
v 6 2 -16
v 6 6 -16
v -3 36 6
v -3 38 6
v -1 36 6
v -1 38 6
v 1 36 6
v 1 38 6
v 3 36 6
v 3 38 6
v -6 30 3
v -6 34 3
v -4 30 3
v -4 32 3
v -4 34 3
v 4 30 3
v 4 32 3
v 4 34 3
v 6 30 3
v 6 34 3
v -6 0 2
v -6 2 2
v -6 6 2
v -5 36 2
v -5 38 2
v -4 0 2
v -4 2 2
v -4 6 2
v -4 22 2
v -4 32 2
v -3 32 2
v -3 36 2
v -3 38 2
v -3 40 2
v -1 32 2
v -1 40 2
v 1 32 2
v 1 40 2
v 3 32 2
v 3 36 2
v 3 38 2
v 3 40 2
v 4 0 2
v 4 2 2
v 4 6 2
v 4 22 2
v 4 32 2
v 5 36 2
v 5 38 2
v 6 0 2
v 6 2 2
v 6 6 2
v -6 6 -0
v -6 8 -0
v -4 6 -0
v -4 8 -0
v -4 20 -0
v -4 22 -0
v 4 6 -0
v 4 8 -0
v 4 20 -0
v 4 22 -0
v 6 6 -0
v 6 8 -0
v -6 8 -2
v -6 10 -2
v -4 8 -2
v -4 10 -2
v 4 8 -2
v 4 10 -2
v 6 8 -2
v 6 10 -2
v -6 10 -4
v -6 16 -4
v -4 10 -4
v -4 12 -4
v -4 16 -4
v -4 18 -4
v -4 20 -4
v 4 10 -4
v 4 12 -4
v 4 16 -4
v 4 18 -4
v 4 20 -4
v 6 10 -4
v 6 16 -4
v -6 8 -16
v -6 16 -16
v -4 8 -16
v -4 12 -16
v -4 16 -16
v -4 18 -16
v -1 12 -16
v -1 15 -16
v -1 17 -16
v 1 12 -16
v 1 15 -16
v 1 17 -16
v 4 8 -16
v 4 12 -16
v 4 16 -16
v 4 18 -16
v 6 8 -16
v 6 16 -16
v -6 0 -18
v -6 2 -18
v -6 6 -18
v -6 8 -18
v -4 0 -18
v -4 2 -18
v -4 6 -18
v -4 8 -18
v -1 12 -18
v -1 17 -18
v 1 12 -18
v 1 17 -18
v 4 0 -18
v 4 2 -18
v 4 6 -18
v 4 8 -18
v 6 0 -18
v 6 2 -18
v 6 6 -18
v 6 8 -18
v -6 0 4
v -4 0 4
v 4 0 4
v 6 0 4
v -6 0 2
v -4 0 2
v 4 0 2
v 6 0 2
v -6 0 -16
v -4 0 -16
v 4 0 -16
v 6 0 -16
v -6 0 -18
v -4 0 -18
v 4 0 -18
v 6 0 -18
v -6 6 2
v -4 6 2
v 4 6 2
v 6 6 2
v -6 6 -0
v -4 6 -0
v 4 6 -0
v 6 6 -0
v -6 6 -12
v -4 6 -12
v 4 6 -12
v 6 6 -12
v -6 6 -16
v -4 6 -16
v 4 6 -16
v 6 6 -16
v -4 8 2
v 4 8 2
v -6 8 -0
v -4 8 -0
v 4 8 -0
v 6 8 -0
v -6 8 -2
v -4 8 -2
v 4 8 -2
v 6 8 -2
v -6 8 -10
v -4 8 -10
v 4 8 -10
v 6 8 -10
v -6 8 -12
v -4 8 -12
v 4 8 -12
v 6 8 -12
v -4 8 -16
v 4 8 -16
v -4 10 4
v 4 10 4
v -4 10 2
v 4 10 2
v -6 10 -2
v -4 10 -2
v 4 10 -2
v 6 10 -2
v -6 10 -4
v -4 10 -4
v 4 10 -4
v 6 10 -4
v -4 12 6
v 4 12 6
v -4 12 4
v 4 12 4
v -1 12 -16
v 1 12 -16
v -1 12 -17
v 1 12 -17
v -1 12 -18
v 1 12 -18
v -4 14 8
v 4 14 8
v -4 14 6
v 4 14 6
v -2 26 12
v 2 26 12
v -4 26 10
v -2 26 10
v 2 26 10
v 4 26 10
v -4 26 8
v 4 26 8
v -1 27 13
v 1 27 13
v -1 27 12
v 1 27 12
v -6 30 5
v -4 30 5
v 4 30 5
v 6 30 5
v -6 30 3
v -4 30 3
v 4 30 3
v 6 30 3
v -3 34 8
v -1 34 8
v 1 34 8
v 3 34 8
v -3 34 4
v -1 34 4
v 1 34 4
v 3 34 4
v -5 36 4
v -3 36 4
v 3 36 4
v 5 36 4
v -5 36 2
v -3 36 2
v 3 36 2
v 5 36 2
v -6 8 4
v -4 8 4
v 4 8 4
v 6 8 4
v -6 8 2
v -4 8 2
v 4 8 2
v 6 8 2
v -6 8 -16
v -4 8 -16
v 4 8 -16
v 6 8 -16
v -6 8 -18
v -4 8 -18
v 4 8 -18
v 6 8 -18
v -6 16 2
v -4 16 2
v 4 16 2
v 6 16 2
v -6 16 -4
v -4 16 -4
v 4 16 -4
v 6 16 -4
v -6 16 -10
v -4 16 -10
v 4 16 -10
v 6 16 -10
v -6 16 -16
v -4 16 -16
v 4 16 -16
v 6 16 -16
v -1 17 -16
v 1 17 -16
v -1 17 -18
v 1 17 -18
v -4 18 -4
v 4 18 -4
v -4 18 -16
v 4 18 -16
v -4 20 -0
v 4 20 -0
v -4 20 -4
v 4 20 -4
v -4 22 2
v 4 22 2
v -4 22 -0
v 4 22 -0
v -1 29 13
v 1 29 13
v -1 29 12
v 1 29 12
v -2 30 12
v 2 30 12
v -2 30 10
v 2 30 10
v -4 32 10
v 4 32 10
v -4 32 5
v 4 32 5
v -3 32 4
v -1 32 4
v 1 32 4
v 3 32 4
v -4 32 3
v 4 32 3
v -4 32 2
v -3 32 2
v -1 32 2
v 1 32 2
v 3 32 2
v 4 32 2
v -6 34 5
v -4 34 5
v 4 34 5
v 6 34 5
v -6 34 3
v -4 34 3
v 4 34 3
v 6 34 3
v -3 36 6
v -1 36 6
v 1 36 6
v 3 36 6
v -3 36 4
v -1 36 4
v 1 36 4
v 3 36 4
v -3 38 8
v -1 38 8
v 1 38 8
v 3 38 8
v -3 38 6
v -1 38 6
v 1 38 6
v 3 38 6
v -5 38 4
v -3 38 4
v 3 38 4
v 5 38 4
v -5 38 2
v -3 38 2
v 3 38 2
v 5 38 2
v -3 40 4
v -1 40 4
v 1 40 4
v 3 40 4
v -3 40 2
v -1 40 2
v 1 40 2
v 3 40 2

# faces
f 5/3/1 2/3/1 1/3/1
f 6/3/1 2/3/1 5/3/1
f 7/3/1 4/3/1 3/3/1
f 8/3/1 4/3/1 7/3/1
f 9/4/1 6/4/1 5/4/1
f 10/4/1 6/4/1 9/4/1
f 13/4/1 8/4/1 7/4/1
f 14/4/1 8/4/1 13/4/1
f 15/2/1 11/2/1 10/2/1
f 15/2/1 10/2/1 9/2/1
f 16/2/1 11/2/1 15/2/1
f 17/2/1 11/2/1 16/2/1
f 20/2/1 14/2/1 13/2/1
f 20/2/1 13/2/1 12/2/1
f 21/2/1 14/2/1 20/2/1
f 22/2/1 14/2/1 21/2/1
f 23/2/1 18/2/1 17/2/1
f 23/2/1 17/2/1 16/2/1
f 25/2/1 23/2/1 16/2/1
f 25/2/1 24/2/1 23/2/1
f 26/2/1 24/2/1 25/2/1
f 27/2/1 21/2/1 20/2/1
f 27/2/1 20/2/1 19/2/1
f 28/2/1 21/2/1 27/2/1
f 31/2/1 30/2/1 29/2/1
f 32/2/1 30/2/1 31/2/1
f 35/1/1 34/1/1 33/1/1
f 36/1/1 34/1/1 35/1/1
f 41/4/1 38/4/1 37/4/1
f 42/4/1 38/4/1 41/4/1
f 44/4/1 40/4/1 39/4/1
f 45/4/1 38/4/1 42/4/1
f 46/4/1 38/4/1 45/4/1
f 48/4/1 44/4/1 43/4/1
f 49/4/1 40/4/1 44/4/1
f 49/4/1 44/4/1 48/4/1
f 50/4/1 40/4/1 49/4/1
f 51/4/1 48/4/1 47/4/1
f 51/4/1 49/4/1 48/4/1
f 52/2/1 50/2/1 49/2/1
f 52/4/1 49/4/1 51/4/1
f 53/2/1 50/2/1 52/2/1
f 54/2/1 46/2/1 45/2/1
f 55/2/1 46/2/1 54/2/1
f 57/2/1 55/2/1 54/2/1
f 57/2/1 56/2/1 55/2/1
f 57/2/1 54/2/1 53/2/1
f 57/2/1 53/2/1 52/2/1
f 57/2/1 52/2/1 51/2/1
f 58/2/1 56/2/1 57/2/1
f 59/2/1 57/2/1 51/2/1
f 60/2/1 57/2/1 59/2/1
f 61/2/1 59/2/1 51/2/1
f 62/2/1 59/2/1 61/2/1
f 63/4/1 51/4/1 47/4/1
f 63/2/1 61/2/1 51/2/1
f 64/2/1 61/2/1 63/2/1
f 66/4/1 63/4/1 47/4/1
f 66/4/1 64/4/1 63/4/1
f 67/2/1 61/2/1 64/2/1
f 67/4/1 64/4/1 66/4/1
f 68/2/1 66/2/1 65/2/1
f 68/2/1 67/2/1 66/2/1
f 69/2/1 67/2/1 68/2/1
f 70/2/1 68/2/1 65/2/1
f 70/3/1 69/3/1 68/3/1
f 71/2/1 67/2/1 69/2/1
f 71/3/1 69/3/1 70/3/1
f 72/2/1 61/2/1 67/2/1
f 72/2/1 67/2/1 71/2/1
f 73/2/1 61/2/1 72/2/1
f 74/2/1 71/2/1 70/2/1
f 74/2/1 70/2/1 65/2/1
f 74/2/1 72/2/1 71/2/1
f 75/2/1 72/2/1 74/2/1
f 76/2/1 61/2/1 73/2/1
f 77/2/1 61/2/1 76/2/1
f 81/1/1 79/1/1 78/1/1
f 82/1/1 81/1/1 80/1/1
f 83/1/1 79/1/1 81/1/1
f 83/1/1 81/1/1 82/1/1
f 84/1/1 79/1/1 83/1/1
f 85/1/1 82/1/1 80/1/1
f 86/1/1 82/1/1 85/1/1
f 89/1/1 88/1/1 87/1/1
f 90/1/1 88/1/1 89/1/1
f 93/4/1 92/4/1 91/4/1
f 94/4/1 92/4/1 93/4/1
f 98/2/1 96/2/1 95/2/1
f 99/4/1 97/4/1 96/4/1
f 99/2/1 96/2/1 98/2/1
f 100/4/1 99/4/1 98/4/1
f 101/4/1 97/4/1 99/4/1
f 101/4/1 99/4/1 100/4/1
f 104/3/1 103/3/1 102/3/1
f 105/3/1 103/3/1 104/3/1
f 109/1/1 107/1/1 106/1/1
f 110/1/1 109/1/1 108/1/1
f 111/1/1 107/1/1 109/1/1
f 111/1/1 109/1/1 110/1/1
f 112/1/1 110/1/1 108/1/1
f 113/1/1 110/1/1 112/1/1
f 114/1/1 107/1/1 111/1/1
f 115/1/1 107/1/1 114/1/1
f 120/3/1 117/3/1 116/3/1
f 121/3/1 117/3/1 120/3/1
f 122/3/1 119/3/1 118/3/1
f 123/3/1 119/3/1 122/3/1
f 124/4/1 121/4/1 120/4/1
f 125/4/1 121/4/1 124/4/1
f 128/4/1 123/4/1 122/4/1
f 129/4/1 123/4/1 128/4/1
f 130/2/1 126/2/1 125/2/1
f 130/2/1 125/2/1 124/2/1
f 131/2/1 126/2/1 130/2/1
f 132/2/1 126/2/1 131/2/1
f 133/2/1 129/2/1 128/2/1
f 133/2/1 128/2/1 127/2/1
f 134/2/1 129/2/1 133/2/1
f 135/2/1 129/2/1 134/2/1
f 138/2/1 137/2/1 136/2/1
f 139/2/1 137/2/1 138/2/1
f 140/3/2 141/3/2 144/3/2
f 144/3/2 141/3/2 145/3/2
f 142/3/2 143/3/2 146/3/2
f 146/3/2 143/3/2 147/3/2
f 144/4/2 145/4/2 148/4/2
f 148/4/2 145/4/2 149/4/2
f 146/4/2 147/4/2 152/4/2
f 152/4/2 147/4/2 153/4/2
f 149/2/2 150/2/2 154/2/2
f 148/2/2 149/2/2 154/2/2
f 154/2/2 150/2/2 155/2/2
f 155/2/2 150/2/2 156/2/2
f 152/2/2 153/2/2 157/2/2
f 151/2/2 152/2/2 157/2/2
f 157/2/2 153/2/2 158/2/2
f 158/2/2 153/2/2 159/2/2
f 160/2/2 161/2/2 162/2/2
f 162/2/2 161/2/2 163/2/2
f 164/1/2 165/1/2 167/1/2
f 166/1/2 167/1/2 168/1/2
f 167/1/2 165/1/2 169/1/2
f 168/1/2 167/1/2 169/1/2
f 166/1/2 168/1/2 170/1/2
f 170/1/2 168/1/2 171/1/2
f 169/1/2 165/1/2 172/1/2
f 172/1/2 165/1/2 173/1/2
f 174/2/2 175/2/2 177/2/2
f 175/4/2 176/4/2 178/4/2
f 177/2/2 175/2/2 178/2/2
f 177/4/2 178/4/2 179/4/2
f 178/4/2 176/4/2 180/4/2
f 179/4/2 178/4/2 180/4/2
f 181/3/2 182/3/2 183/3/2
f 183/3/2 182/3/2 184/3/2
f 185/4/2 186/4/2 187/4/2
f 187/4/2 186/4/2 188/4/2
f 189/1/2 190/1/2 192/1/2
f 191/1/2 192/1/2 193/1/2
f 192/1/2 190/1/2 194/1/2
f 193/1/2 192/1/2 194/1/2
f 194/1/2 190/1/2 195/1/2
f 191/1/2 193/1/2 196/1/2
f 196/1/2 193/1/2 197/1/2
f 198/1/2 199/1/2 200/1/2
f 200/1/2 199/1/2 201/1/2
f 202/4/2 203/4/2 206/4/2
f 206/4/2 203/4/2 207/4/2
f 204/4/2 205/4/2 209/4/2
f 207/4/2 203/4/2 210/4/2
f 210/4/2 203/4/2 211/4/2
f 208/4/2 209/4/2 213/4/2
f 209/4/2 205/4/2 214/4/2
f 213/4/2 209/4/2 214/4/2
f 214/4/2 205/4/2 215/4/2
f 212/4/2 213/4/2 216/4/2
f 213/4/2 214/4/2 216/4/2
f 214/2/2 215/2/2 217/2/2
f 216/4/2 214/4/2 217/4/2
f 217/2/2 215/2/2 218/2/2
f 210/2/2 211/2/2 219/2/2
f 219/2/2 211/2/2 220/2/2
f 219/2/2 220/2/2 222/2/2
f 220/2/2 221/2/2 222/2/2
f 218/2/2 219/2/2 222/2/2
f 217/2/2 218/2/2 222/2/2
f 216/2/2 217/2/2 222/2/2
f 222/2/2 221/2/2 223/2/2
f 216/2/2 222/2/2 224/2/2
f 224/2/2 222/2/2 225/2/2
f 216/2/2 224/2/2 226/2/2
f 226/2/2 224/2/2 227/2/2
f 212/4/2 216/4/2 228/4/2
f 216/2/2 226/2/2 228/2/2
f 228/2/2 226/2/2 229/2/2
f 212/4/2 228/4/2 231/4/2
f 228/4/2 229/4/2 231/4/2
f 229/2/2 226/2/2 232/2/2
f 231/4/2 229/4/2 232/4/2
f 230/2/2 231/2/2 233/2/2
f 231/2/2 232/2/2 233/2/2
f 233/2/2 232/2/2 234/2/2
f 230/2/2 233/2/2 235/2/2
f 233/3/2 234/3/2 235/3/2
f 234/2/2 232/2/2 236/2/2
f 235/3/2 234/3/2 236/3/2
f 232/2/2 226/2/2 237/2/2
f 236/2/2 232/2/2 237/2/2
f 237/2/2 226/2/2 238/2/2
f 235/2/2 236/2/2 239/2/2
f 230/2/2 235/2/2 239/2/2
f 236/2/2 237/2/2 239/2/2
f 239/2/2 237/2/2 240/2/2
f 238/2/2 226/2/2 241/2/2
f 241/2/2 226/2/2 242/2/2
f 243/1/2 244/1/2 245/1/2
f 245/1/2 244/1/2 246/1/2
f 247/3/2 248/3/2 251/3/2
f 251/3/2 248/3/2 252/3/2
f 249/3/2 250/3/2 253/3/2
f 253/3/2 250/3/2 254/3/2
f 251/4/2 252/4/2 255/4/2
f 255/4/2 252/4/2 256/4/2
f 253/4/2 254/4/2 259/4/2
f 259/4/2 254/4/2 260/4/2
f 256/2/2 257/2/2 261/2/2
f 255/2/2 256/2/2 261/2/2
f 261/2/2 257/2/2 262/2/2
f 262/2/2 257/2/2 263/2/2
f 259/2/2 260/2/2 266/2/2
f 258/2/2 259/2/2 266/2/2
f 266/2/2 260/2/2 267/2/2
f 267/2/2 260/2/2 268/2/2
f 263/2/2 264/2/2 269/2/2
f 262/2/2 263/2/2 269/2/2
f 262/2/2 269/2/2 271/2/2
f 269/2/2 270/2/2 271/2/2
f 271/2/2 270/2/2 272/2/2
f 266/2/2 267/2/2 273/2/2
f 265/2/2 266/2/2 273/2/2
f 273/2/2 267/2/2 274/2/2
f 275/2/2 276/2/2 277/2/2
f 277/2/2 276/2/2 278/2/2
f 281/3/3 280/3/3 279/3/3
f 282/3/3 280/3/3 281/3/3
f 285/4/3 284/4/3 283/4/3
f 286/4/3 284/4/3 285/4/3
f 287/4/3 285/4/3 283/4/3
f 288/4/3 284/4/3 286/4/3
f 289/4/3 287/4/3 283/4/3
f 289/4/3 288/4/3 287/4/3
f 290/4/3 284/4/3 288/4/3
f 290/4/3 288/4/3 289/4/3
f 293/2/3 292/2/3 291/2/3
f 294/2/3 292/2/3 293/2/3
f 296/2/3 292/2/3 294/2/3
f 297/2/3 296/2/3 295/2/3
f 298/2/3 292/2/3 296/2/3
f 298/2/3 296/2/3 297/2/3
f 303/1/3 302/1/3 301/1/3
f 304/1/3 302/1/3 303/1/3
f 307/1/3 306/1/3 305/1/3
f 308/1/3 306/1/3 307/1/3
f 309/4/3 300/4/3 299/4/3
f 310/4/3 300/4/3 309/4/3
f 313/4/3 312/4/3 311/4/3
f 314/4/3 312/4/3 313/4/3
f 317/2/3 316/2/3 315/2/3
f 318/2/3 316/2/3 317/2/3
f 319/2/3 316/2/3 318/2/3
f 323/2/3 321/2/3 320/2/3
f 323/2/3 322/2/3 321/2/3
f 324/2/3 322/2/3 323/2/3
f 331/3/3 326/3/3 325/3/3
f 332/4/3 327/4/3 326/4/3
f 332/3/3 326/3/3 331/3/3
f 333/2/3 328/2/3 327/2/3
f 333/4/3 327/4/3 332/4/3
f 334/2/3 328/2/3 333/2/3
f 339/1/3 330/1/3 329/1/3
f 340/1/3 330/1/3 339/1/3
f 342/1/3 338/1/3 337/1/3
f 343/1/3 338/1/3 342/1/3
f 344/1/3 341/1/3 340/1/3
f 344/1/3 340/1/3 339/1/3
f 345/1/3 341/1/3 344/1/3
f 350/1/3 347/1/3 346/1/3
f 351/1/3 347/1/3 350/1/3
f 352/1/3 349/1/3 348/1/3
f 353/1/3 349/1/3 352/1/3
f 354/1/3 349/1/3 353/1/3
f 359/4/3 336/4/3 335/4/3
f 360/4/3 336/4/3 359/4/3
f 361/1/3 353/1/3 352/1/3
f 362/1/3 353/1/3 361/1/3
f 363/3/3 356/3/3 355/3/3
f 364/4/3 357/4/3 356/4/3
f 364/3/3 356/3/3 363/3/3
f 365/2/3 358/2/3 357/2/3
f 365/4/3 357/4/3 364/4/3
f 366/2/3 358/2/3 365/2/3
f 369/2/3 368/2/3 367/2/3
f 370/2/3 368/2/3 369/2/3
f 371/2/3 368/2/3 370/2/3
f 372/2/3 368/2/3 371/2/3
f 373/4/3 370/4/3 369/4/3
f 374/4/3 370/4/3 373/4/3
f 377/2/3 374/2/3 373/2/3
f 377/2/3 376/2/3 375/2/3
f 377/2/3 375/2/3 374/2/3
f 378/2/3 376/2/3 377/2/3
f 381/2/3 380/2/3 379/2/3
f 382/2/3 380/2/3 381/2/3
f 383/2/3 380/2/3 382/2/3
f 387/2/3 385/2/3 384/2/3
f 387/2/3 386/2/3 385/2/3
f 388/2/3 386/2/3 387/2/3
f 391/2/3 390/2/3 389/2/3
f 392/2/3 390/2/3 391/2/3
f 395/2/3 394/2/3 393/2/3
f 396/2/3 394/2/3 395/2/3
f 400/3/3 398/3/3 397/3/3
f 401/4/3 399/4/3 398/4/3
f 401/3/3 398/3/3 400/3/3
f 402/4/3 399/4/3 401/4/3
f 406/3/3 404/3/3 403/3/3
f 407/4/3 405/4/3 404/4/3
f 407/3/3 404/3/3 406/3/3
f 408/4/3 405/4/3 407/4/3
f 409/1/4 410/1/4 411/1/4
f 411/1/4 410/1/4 412/1/4
f 413/1/4 414/1/4 415/1/4
f 415/1/4 414/1/4 416/1/4
f 417/2/4 418/2/4 419/2/4
f 419/2/4 418/2/4 420/2/4
f 420/2/4 418/2/4 421/2/4
f 422/2/4 423/2/4 425/2/4
f 423/2/4 424/2/4 425/2/4
f 425/2/4 424/2/4 426/2/4
f 427/3/4 428/3/4 432/3/4
f 428/4/4 429/4/4 433/4/4
f 432/3/4 428/3/4 433/3/4
f 433/4/4 429/4/4 434/4/4
f 435/2/4 436/2/4 437/2/4
f 430/1/4 431/1/4 438/1/4
f 438/1/4 431/1/4 439/1/4
f 435/2/4 437/2/4 441/2/4
f 439/1/4 440/1/4 441/1/4
f 438/1/4 439/1/4 441/1/4
f 437/1/4 438/1/4 441/1/4
f 441/1/4 440/1/4 442/1/4
f 435/2/4 441/2/4 443/2/4
f 435/2/4 443/2/4 445/2/4
f 443/1/4 444/1/4 445/1/4
f 445/1/4 444/1/4 446/1/4
f 446/1/4 444/1/4 447/1/4
f 447/1/4 444/1/4 448/1/4
f 435/2/4 445/2/4 452/2/4
f 452/2/4 445/2/4 453/2/4
f 446/1/4 447/1/4 454/1/4
f 454/1/4 447/1/4 455/1/4
f 449/3/4 450/3/4 456/3/4
f 450/4/4 451/4/4 457/4/4
f 456/3/4 450/3/4 457/3/4
f 457/4/4 451/4/4 458/4/4
f 459/2/4 460/2/4 461/2/4
f 461/2/4 460/2/4 462/2/4
f 463/2/4 464/2/4 467/2/4
f 467/2/4 464/2/4 468/2/4
f 465/2/4 466/2/4 469/2/4
f 469/2/4 466/2/4 470/2/4
f 471/2/4 472/2/4 473/2/4
f 473/2/4 472/2/4 474/2/4
f 475/2/4 476/2/4 477/2/4
f 477/2/4 476/2/4 478/2/4
f 479/2/4 480/2/4 481/2/4
f 481/2/4 480/2/4 482/2/4
f 482/2/4 480/2/4 483/2/4
f 484/2/4 485/2/4 489/2/4
f 489/2/4 485/2/4 490/2/4
f 487/2/4 488/2/4 491/2/4
f 486/2/4 487/2/4 491/2/4
f 491/2/4 488/2/4 492/2/4
f 493/2/4 494/2/4 495/2/4
f 495/2/4 494/2/4 496/2/4
f 496/2/4 494/2/4 497/2/4
f 495/4/4 496/4/4 499/4/4
f 497/2/4 498/2/4 499/2/4
f 496/2/4 497/2/4 499/2/4
f 499/2/4 498/2/4 500/2/4
f 500/2/4 498/2/4 501/2/4
f 495/4/4 499/4/4 502/4/4
f 501/2/4 498/2/4 504/2/4
f 495/4/4 502/4/4 505/4/4
f 502/2/4 503/2/4 506/2/4
f 505/4/4 502/4/4 506/4/4
f 503/2/4 504/2/4 506/2/4
f 506/2/4 504/2/4 507/2/4
f 504/2/4 498/2/4 508/2/4
f 507/2/4 504/2/4 508/2/4
f 506/2/4 507/2/4 509/2/4
f 505/2/4 506/2/4 509/2/4
f 509/2/4 507/2/4 510/2/4
f 511/3/4 512/3/4 515/3/4
f 512/4/4 513/4/4 516/4/4
f 515/3/4 512/3/4 516/3/4
f 513/2/4 514/2/4 517/2/4
f 516/4/4 513/4/4 517/4/4
f 517/2/4 514/2/4 518/2/4
f 519/4/4 520/4/4 521/4/4
f 521/4/4 520/4/4 522/4/4
f 523/3/4 524/3/4 527/3/4
f 524/4/4 525/4/4 528/4/4
f 527/3/4 524/3/4 528/3/4
f 525/2/4 526/2/4 529/2/4
f 528/4/4 525/4/4 529/4/4
f 529/2/4 526/2/4 530/2/4
f 535/3/5 532/3/5 531/3/5
f 536/3/5 532/3/5 535/3/5
f 537/3/5 534/3/5 533/3/5
f 538/3/5 534/3/5 537/3/5
f 543/3/5 540/3/5 539/3/5
f 544/3/5 540/3/5 543/3/5
f 545/3/5 542/3/5 541/3/5
f 546/3/5 542/3/5 545/3/5
f 551/2/5 548/2/5 547/2/5
f 552/2/5 548/2/5 551/2/5
f 553/2/5 550/2/5 549/2/5
f 554/2/5 550/2/5 553/2/5
f 559/2/5 556/2/5 555/2/5
f 560/2/5 556/2/5 559/2/5
f 561/2/5 558/2/5 557/2/5
f 562/2/5 558/2/5 561/2/5
f 566/4/5 564/4/5 563/4/5
f 567/4/5 564/4/5 566/4/5
f 569/2/5 566/2/5 565/2/5
f 570/4/5 567/4/5 566/4/5
f 570/2/5 566/2/5 569/2/5
f 571/2/5 568/2/5 567/2/5
f 571/4/5 567/4/5 570/4/5
f 572/2/5 568/2/5 571/2/5
f 574/4/5 571/4/5 570/4/5
f 575/4/5 571/4/5 574/4/5
f 577/2/5 574/2/5 573/2/5
f 578/4/5 575/4/5 574/4/5
f 578/2/5 574/2/5 577/2/5
f 579/2/5 576/2/5 575/2/5
f 579/4/5 575/4/5 578/4/5
f 580/2/5 576/2/5 579/2/5
f 581/4/5 579/4/5 578/4/5
f 582/4/5 579/4/5 581/4/5
f 585/4/5 584/4/5 583/4/5
f 586/4/5 584/4/5 585/4/5
f 591/2/5 588/2/5 587/2/5
f 592/2/5 588/2/5 591/2/5
f 593/2/5 590/2/5 589/2/5
f 594/2/5 590/2/5 593/2/5
f 597/4/5 596/4/5 595/4/5
f 598/4/5 596/4/5 597/4/5
f 601/2/5 600/2/5 599/2/5
f 602/2/5 600/2/5 601/2/5
f 603/4/5 602/4/5 601/4/5
f 604/4/5 602/4/5 603/4/5
f 607/4/5 606/4/5 605/4/5
f 608/4/5 606/4/5 607/4/5
f 612/4/5 610/4/5 609/4/5
f 613/4/5 610/4/5 612/4/5
f 615/2/5 612/2/5 611/2/5
f 615/2/5 614/2/5 613/2/5
f 615/2/5 613/2/5 612/2/5
f 616/2/5 614/2/5 615/2/5
f 619/3/5 618/3/5 617/3/5
f 620/3/5 618/3/5 619/3/5
f 625/2/5 622/2/5 621/2/5
f 626/2/5 622/2/5 625/2/5
f 627/2/5 624/2/5 623/2/5
f 628/2/5 624/2/5 627/2/5
f 633/1/5 630/1/5 629/1/5
f 634/1/5 630/1/5 633/1/5
f 635/1/5 632/1/5 631/1/5
f 636/1/5 632/1/5 635/1/5
f 641/1/5 638/1/5 637/1/5
f 642/1/5 638/1/5 641/1/5
f 643/1/5 640/1/5 639/1/5
f 644/1/5 640/1/5 643/1/5
f 645/2/6 646/2/6 649/2/6
f 649/2/6 646/2/6 650/2/6
f 647/2/6 648/2/6 651/2/6
f 651/2/6 648/2/6 652/2/6
f 653/2/6 654/2/6 657/2/6
f 657/2/6 654/2/6 658/2/6
f 655/2/6 656/2/6 659/2/6
f 659/2/6 656/2/6 660/2/6
f 661/2/6 662/2/6 665/2/6
f 665/2/6 662/2/6 666/2/6
f 663/2/6 664/2/6 667/2/6
f 667/2/6 664/2/6 668/2/6
f 669/2/6 670/2/6 673/2/6
f 673/2/6 670/2/6 674/2/6
f 671/2/6 672/2/6 675/2/6
f 675/2/6 672/2/6 676/2/6
f 677/4/6 678/4/6 679/4/6
f 679/4/6 678/4/6 680/4/6
f 681/2/6 682/2/6 683/2/6
f 683/2/6 682/2/6 684/2/6
f 685/2/6 686/2/6 687/2/6
f 687/2/6 686/2/6 688/2/6
f 689/2/6 690/2/6 691/2/6
f 691/2/6 690/2/6 692/2/6
f 693/3/6 694/3/6 695/3/6
f 695/3/6 694/3/6 696/3/6
f 697/4/6 698/4/6 699/4/6
f 699/4/6 698/4/6 700/4/6
f 701/2/6 702/2/6 703/2/6
f 703/2/6 702/2/6 704/2/6
f 703/2/6 704/2/6 705/2/6
f 705/2/6 704/2/6 706/2/6
f 706/2/6 704/2/6 707/2/6
f 707/2/6 704/2/6 708/2/6
f 703/2/6 705/2/6 709/2/6
f 708/2/6 704/2/6 710/2/6
f 709/2/6 705/2/6 711/2/6
f 711/2/6 705/2/6 712/2/6
f 706/2/6 707/2/6 713/2/6
f 713/2/6 707/2/6 714/2/6
f 708/2/6 710/2/6 715/2/6
f 715/2/6 710/2/6 716/2/6
f 717/2/6 718/2/6 721/2/6
f 721/2/6 718/2/6 722/2/6
f 719/2/6 720/2/6 723/2/6
f 723/2/6 720/2/6 724/2/6
f 725/1/6 726/1/6 729/1/6
f 729/1/6 726/1/6 730/1/6
f 727/1/6 728/1/6 731/1/6
f 731/1/6 728/1/6 732/1/6
f 733/1/6 734/1/6 737/1/6
f 737/1/6 734/1/6 738/1/6
f 735/1/6 736/1/6 739/1/6
f 739/1/6 736/1/6 740/1/6
f 741/1/6 742/1/6 745/1/6
f 745/1/6 742/1/6 746/1/6
f 743/1/6 744/1/6 747/1/6
f 747/1/6 744/1/6 748/1/6
f 749/1/6 750/1/6 753/1/6
f 753/1/6 750/1/6 754/1/6
f 751/1/6 752/1/6 755/1/6
f 755/1/6 752/1/6 756/1/6
