# MagicaVoxel @ Ephtracy

# group
g GiliusShrine

# material
mtllib GiliusShrine.mtl
usemtl palette

# normals
vn -1 0 0
vn 1 0 0
vn 0 0 1
vn 0 0 -1
vn 0 -1 0
vn 0 1 0

# texcoords
vt 0.876953 0.5
vt 0.958984 0.5
vt 0.966797 0.5

# verts
v -10 0 10
v -10 0 -10
v -10 2 10
v -10 2 -10
v -8 2 8
v -8 2 -8
v -8 3 8
v -8 3 -8
v -5 3 5
v -5 3 -5
v -5 4 5
v -5 4 -5
v -4 4 4
v -4 4 -4
v -4 28 4
v -4 28 -4
v -3 28 3
v -3 28 -3
v -3 29 3
v -3 29 -3
v -2 29 2
v -2 29 -2
v -2 30 2
v -2 30 -2
v -1 30 1
v -1 30 -1
v -1 31 1
v -1 31 -1
v 1 30 1
v 1 30 -1
v 1 31 1
v 1 31 -1
v 2 29 2
v 2 29 -2
v 2 30 2
v 2 30 -2
v 3 28 3
v 3 28 -3
v 3 29 3
v 3 29 -3
v 4 4 4
v 4 4 -4
v 4 28 4
v 4 28 -4
v 5 3 5
v 5 3 -5
v 5 4 5
v 5 4 -5
v 8 2 8
v 8 2 -8
v 8 3 8
v 8 3 -8
v 10 0 10
v 10 0 -10
v 10 2 10
v 10 2 -10
v -10 0 10
v -10 2 10
v 10 0 10
v 10 2 10
v -8 2 8
v -8 3 8
v 8 2 8
v 8 3 8
v -5 3 5
v -5 4 5
v 5 3 5
v 5 4 5
v -4 4 4
v -4 28 4
v -2 5 4
v -2 6 4
v -2 8 4
v -2 9 4
v -2 10 4
v -2 14 4
v -2 15 4
v -2 16 4
v -2 18 4
v -2 19 4
v -2 20 4
v -2 26 4
v -1 6 4
v -1 8 4
v -1 11 4
v -1 14 4
v -1 16 4
v -1 18 4
v -1 21 4
v -1 25 4
v 0 22 4
v 0 23 4
v 1 6 4
v 1 8 4
v 1 16 4
v 1 18 4
v 1 21 4
v 1 22 4
v 1 24 4
v 1 25 4
v 2 5 4
v 2 6 4
v 2 8 4
v 2 9 4
v 2 10 4
v 2 11 4
v 2 15 4
v 2 16 4
v 2 18 4
v 2 19 4
v 2 20 4
v 2 23 4
v 2 24 4
v 2 26 4
v 4 4 4
v 4 28 4
v -3 28 3
v -3 29 3
v 3 28 3
v 3 29 3
v -2 29 2
v -2 30 2
v 2 29 2
v 2 30 2
v -1 30 1
v -1 31 1
v 1 30 1
v 1 31 1
v -1 30 -1
v -1 31 -1
v 1 30 -1
v 1 31 -1
v -2 29 -2
v -2 30 -2
v 2 29 -2
v 2 30 -2
v -3 28 -3
v -3 29 -3
v 3 28 -3
v 3 29 -3
v -4 4 -4
v -4 28 -4
v 4 4 -4
v 4 28 -4
v -5 3 -5
v -5 4 -5
v 5 3 -5
v 5 4 -5
v -8 2 -8
v -8 3 -8
v 8 2 -8
v 8 3 -8
v -10 0 -10
v -10 2 -10
v 10 0 -10
v 10 2 -10
v -10 0 10
v 10 0 10
v -10 0 -10
v 10 0 -10
v -10 2 10
v 10 2 10
v -8 2 8
v 8 2 8
v -8 2 -8
v 8 2 -8
v -10 2 -10
v 10 2 -10
v -8 3 8
v 8 3 8
v -5 3 5
v 5 3 5
v -5 3 -5
v 5 3 -5
v -8 3 -8
v 8 3 -8
v -5 4 5
v 5 4 5
v -4 4 4
v 4 4 4
v -4 4 -4
v 4 4 -4
v -5 4 -5
v 5 4 -5
v -4 28 4
v 4 28 4
v -3 28 3
v 3 28 3
v -3 28 -3
v 3 28 -3
v -4 28 -4
v 4 28 -4
v -3 29 3
v 3 29 3
v -2 29 2
v 2 29 2
v -2 29 -2
v 2 29 -2
v -3 29 -3
v 3 29 -3
v -2 30 2
v 2 30 2
v -1 30 1
v 1 30 1
v -1 30 -1
v 1 30 -1
v -2 30 -2
v 2 30 -2
v -1 31 1
v 1 31 1
v -1 31 -1
v 1 31 -1

# faces
f 3/3/1 2/3/1 1/3/1
f 4/3/1 2/3/1 3/3/1
f 7/3/1 6/3/1 5/3/1
f 8/3/1 6/3/1 7/3/1
f 11/3/1 10/3/1 9/3/1
f 12/3/1 10/3/1 11/3/1
f 15/2/1 14/2/1 13/2/1
f 16/2/1 14/2/1 15/2/1
f 19/2/1 18/2/1 17/2/1
f 20/2/1 18/2/1 19/2/1
f 23/2/1 22/2/1 21/2/1
f 24/2/1 22/2/1 23/2/1
f 27/2/1 26/2/1 25/2/1
f 28/2/1 26/2/1 27/2/1
f 29/2/2 30/2/2 31/2/2
f 31/2/2 30/2/2 32/2/2
f 33/2/2 34/2/2 35/2/2
f 35/2/2 34/2/2 36/2/2
f 37/2/2 38/2/2 39/2/2
f 39/2/2 38/2/2 40/2/2
f 41/2/2 42/2/2 43/2/2
f 43/2/2 42/2/2 44/2/2
f 45/3/2 46/3/2 47/3/2
f 47/3/2 46/3/2 48/3/2
f 49/3/2 50/3/2 51/3/2
f 51/3/2 50/3/2 52/3/2
f 53/3/2 54/3/2 55/3/2
f 55/3/2 54/3/2 56/3/2
f 59/3/3 58/3/3 57/3/3
f 60/3/3 58/3/3 59/3/3
f 63/3/3 62/3/3 61/3/3
f 64/3/3 62/3/3 63/3/3
f 67/3/3 66/3/3 65/3/3
f 68/3/3 66/3/3 67/3/3
f 71/2/3 70/2/3 69/2/3
f 72/2/3 70/2/3 71/2/3
f 73/2/3 70/2/3 72/2/3
f 74/2/3 70/2/3 73/2/3
f 75/2/3 70/2/3 74/2/3
f 76/2/3 70/2/3 75/2/3
f 77/2/3 70/2/3 76/2/3
f 78/2/3 70/2/3 77/2/3
f 79/2/3 70/2/3 78/2/3
f 80/2/3 70/2/3 79/2/3
f 81/2/3 70/2/3 80/2/3
f 82/2/3 70/2/3 81/2/3
f 83/1/3 72/1/3 71/1/3
f 83/2/3 73/2/3 72/2/3
f 84/1/3 74/1/3 73/1/3
f 84/2/3 73/2/3 83/2/3
f 85/1/3 76/1/3 75/1/3
f 86/2/3 77/2/3 76/2/3
f 86/1/3 76/1/3 85/1/3
f 87/1/3 78/1/3 77/1/3
f 87/2/3 79/2/3 78/2/3
f 88/1/3 80/1/3 79/1/3
f 88/2/3 79/2/3 87/2/3
f 89/1/3 82/1/3 81/1/3
f 90/1/3 82/1/3 89/1/3
f 91/2/3 90/2/3 89/2/3
f 92/2/3 90/2/3 91/2/3
f 93/1/3 83/1/3 71/1/3
f 93/1/3 84/1/3 83/1/3
f 94/1/3 74/1/3 84/1/3
f 94/1/3 84/1/3 93/1/3
f 95/1/3 87/1/3 77/1/3
f 95/1/3 88/1/3 87/1/3
f 96/1/3 80/1/3 88/1/3
f 96/1/3 88/1/3 95/1/3
f 97/1/3 89/1/3 81/1/3
f 97/2/3 91/2/3 89/2/3
f 98/1/3 92/1/3 91/1/3
f 98/2/3 91/2/3 97/2/3
f 99/2/3 90/2/3 92/2/3
f 100/1/3 82/1/3 90/1/3
f 100/2/3 90/2/3 99/2/3
f 101/2/3 71/2/3 69/2/3
f 101/1/3 93/1/3 71/1/3
f 102/2/3 94/2/3 93/2/3
f 102/1/3 93/1/3 101/1/3
f 103/1/3 74/1/3 94/1/3
f 103/2/3 94/2/3 102/2/3
f 104/2/3 75/2/3 74/2/3
f 104/1/3 74/1/3 103/1/3
f 105/1/3 85/1/3 75/1/3
f 105/2/3 75/2/3 104/2/3
f 106/2/3 86/2/3 85/2/3
f 106/1/3 85/1/3 105/1/3
f 107/1/3 95/1/3 77/1/3
f 107/2/3 86/2/3 106/2/3
f 107/2/3 77/2/3 86/2/3
f 108/2/3 96/2/3 95/2/3
f 108/1/3 95/1/3 107/1/3
f 109/1/3 80/1/3 96/1/3
f 109/2/3 96/2/3 108/2/3
f 110/2/3 81/2/3 80/2/3
f 110/1/3 80/1/3 109/1/3
f 111/1/3 98/1/3 97/1/3
f 111/2/3 81/2/3 110/2/3
f 111/1/3 97/1/3 81/1/3
f 112/1/3 92/1/3 98/1/3
f 112/1/3 98/1/3 111/1/3
f 112/2/3 99/2/3 92/2/3
f 113/1/3 100/1/3 99/1/3
f 113/2/3 99/2/3 112/2/3
f 114/1/3 82/1/3 100/1/3
f 114/1/3 100/1/3 113/1/3
f 114/2/3 70/2/3 82/2/3
f 115/2/3 113/2/3 112/2/3
f 115/2/3 108/2/3 107/2/3
f 115/2/3 114/2/3 113/2/3
f 115/2/3 101/2/3 69/2/3
f 115/2/3 107/2/3 106/2/3
f 115/2/3 109/2/3 108/2/3
f 115/2/3 102/2/3 101/2/3
f 115/2/3 105/2/3 104/2/3
f 115/2/3 110/2/3 109/2/3
f 115/2/3 104/2/3 103/2/3
f 115/2/3 112/2/3 111/2/3
f 115/2/3 103/2/3 102/2/3
f 115/2/3 111/2/3 110/2/3
f 115/2/3 106/2/3 105/2/3
f 116/2/3 70/2/3 114/2/3
f 116/2/3 114/2/3 115/2/3
f 119/2/3 118/2/3 117/2/3
f 120/2/3 118/2/3 119/2/3
f 123/2/3 122/2/3 121/2/3
f 124/2/3 122/2/3 123/2/3
f 127/2/3 126/2/3 125/2/3
f 128/2/3 126/2/3 127/2/3
f 129/2/4 130/2/4 131/2/4
f 131/2/4 130/2/4 132/2/4
f 133/2/4 134/2/4 135/2/4
f 135/2/4 134/2/4 136/2/4
f 137/2/4 138/2/4 139/2/4
f 139/2/4 138/2/4 140/2/4
f 141/2/4 142/2/4 143/2/4
f 143/2/4 142/2/4 144/2/4
f 145/3/4 146/3/4 147/3/4
f 147/3/4 146/3/4 148/3/4
f 149/3/4 150/3/4 151/3/4
f 151/3/4 150/3/4 152/3/4
f 153/3/4 154/3/4 155/3/4
f 155/3/4 154/3/4 156/3/4
f 159/3/5 158/3/5 157/3/5
f 160/3/5 158/3/5 159/3/5
f 161/3/6 162/3/6 163/3/6
f 163/3/6 162/3/6 164/3/6
f 161/3/6 163/3/6 165/3/6
f 164/3/6 162/3/6 166/3/6
f 161/3/6 165/3/6 167/3/6
f 165/3/6 166/3/6 167/3/6
f 166/3/6 162/3/6 168/3/6
f 167/3/6 166/3/6 168/3/6
f 169/3/6 170/3/6 171/3/6
f 171/3/6 170/3/6 172/3/6
f 169/3/6 171/3/6 173/3/6
f 172/3/6 170/3/6 174/3/6
f 169/3/6 173/3/6 175/3/6
f 173/3/6 174/3/6 175/3/6
f 174/3/6 170/3/6 176/3/6
f 175/3/6 174/3/6 176/3/6
f 177/3/6 178/3/6 179/3/6
f 179/3/6 178/3/6 180/3/6
f 177/3/6 179/3/6 181/3/6
f 180/3/6 178/3/6 182/3/6
f 177/3/6 181/3/6 183/3/6
f 181/3/6 182/3/6 183/3/6
f 182/3/6 178/3/6 184/3/6
f 183/3/6 182/3/6 184/3/6
f 185/2/6 186/2/6 187/2/6
f 187/2/6 186/2/6 188/2/6
f 185/2/6 187/2/6 189/2/6
f 188/2/6 186/2/6 190/2/6
f 185/2/6 189/2/6 191/2/6
f 189/2/6 190/2/6 191/2/6
f 190/2/6 186/2/6 192/2/6
f 191/2/6 190/2/6 192/2/6
f 193/2/6 194/2/6 195/2/6
f 195/2/6 194/2/6 196/2/6
f 193/2/6 195/2/6 197/2/6
f 196/2/6 194/2/6 198/2/6
f 193/2/6 197/2/6 199/2/6
f 197/2/6 198/2/6 199/2/6
f 198/2/6 194/2/6 200/2/6
f 199/2/6 198/2/6 200/2/6
f 201/2/6 202/2/6 203/2/6
f 203/2/6 202/2/6 204/2/6
f 201/2/6 203/2/6 205/2/6
f 204/2/6 202/2/6 206/2/6
f 201/2/6 205/2/6 207/2/6
f 205/2/6 206/2/6 207/2/6
f 206/2/6 202/2/6 208/2/6
f 207/2/6 206/2/6 208/2/6
f 209/2/6 210/2/6 211/2/6
f 211/2/6 210/2/6 212/2/6
