# MagicaVoxel @ Ephtracy

# group
g RedBird

# material
mtllib RedBird.mtl
usemtl palette

# normals
vn -1 0 0
vn 1 0 0
vn 0 0 1
vn 0 0 -1
vn 0 -1 0
vn 0 1 0

# texcoords
vt 0.0214844 0.5
vt 0.373047 0.5
vt 0.583984 0.5
vt 0.751953 0.5
vt 0.779297 0.5
vt 0.841797 0.5
vt 0.876953 0.5
vt 0.958984 0.5

# verts
v -7 7 2
v -7 7 1
v -7 8 3
v -7 8 2
v -7 9 2
v -7 9 1
v -7 10 3
v -7 10 2
v -6 7 4
v -6 7 2
v -6 7 1
v -6 7 -0
v -6 8 3
v -6 8 2
v -6 9 2
v -6 9 1
v -6 10 4
v -6 10 3
v -6 10 2
v -6 10 -0
v -6 12 5
v -6 12 3
v -6 14 5
v -6 14 3
v -5 6 5
v -5 6 2
v -5 6 -2
v -5 7 4
v -5 7 2
v -5 7 -0
v -5 10 4
v -5 10 2
v -5 10 -0
v -5 11 5
v -5 11 2
v -5 11 -2
v -5 12 5
v -5 12 3
v -5 14 5
v -5 14 3
v -5 15 5
v -5 15 2
v -4 0 4
v -4 0 1
v -4 1 4
v -4 1 1
v -3 1 2
v -3 1 1
v -3 3 3
v -3 3 2
v -3 4 2
v -3 4 1
v -3 6 3
v -3 6 2
v -2 0 4
v -2 0 2
v -2 1 4
v -2 1 2
v -2 7 -2
v -2 7 -4
v -2 10 -2
v -2 10 -4
v -1 10 6
v -1 10 5
v -1 11 5
v -1 12 6
v -1 12 5
v -1 15 5
v -1 15 2
v -1 16 3
v -1 16 2
v -1 17 4
v -1 17 3
v -1 18 5
v -1 18 4
v 1 0 4
v 1 0 1
v 1 1 4
v 1 1 1
v 2 1 2
v 2 1 1
v 2 3 3
v 2 3 2
v 2 4 2
v 2 4 1
v 2 6 3
v 2 6 2
v 3 0 4
v 3 0 2
v 3 1 4
v 3 1 2
v -3 0 4
v -3 0 2
v -3 1 4
v -3 1 2
v -2 1 2
v -2 1 1
v -2 3 3
v -2 3 2
v -2 4 2
v -2 4 1
v -2 6 3
v -2 6 2
v -1 0 4
v -1 0 1
v -1 1 4
v -1 1 1
v 1 10 6
v 1 10 5
v 1 11 5
v 1 12 6
v 1 12 5
v 1 15 5
v 1 15 2
v 1 16 3
v 1 16 2
v 1 17 4
v 1 17 3
v 1 18 5
v 1 18 4
v 2 0 4
v 2 0 2
v 2 1 4
v 2 1 2
v 2 7 -2
v 2 7 -4
v 2 10 -2
v 2 10 -4
v 3 1 2
v 3 1 1
v 3 3 3
v 3 3 2
v 3 4 2
v 3 4 1
v 3 6 3
v 3 6 2
v 4 0 4
v 4 0 1
v 4 1 4
v 4 1 1
v 5 6 5
v 5 6 2
v 5 6 -2
v 5 7 4
v 5 7 2
v 5 7 -0
v 5 10 4
v 5 10 2
v 5 10 -0
v 5 11 5
v 5 11 2
v 5 11 -2
v 5 12 5
v 5 12 3
v 5 14 5
v 5 14 3
v 5 15 5
v 5 15 2
v 6 7 4
v 6 7 2
v 6 7 1
v 6 7 -0
v 6 8 3
v 6 8 2
v 6 9 2
v 6 9 1
v 6 10 4
v 6 10 3
v 6 10 2
v 6 10 -0
v 6 12 5
v 6 12 3
v 6 14 5
v 6 14 3
v 7 7 2
v 7 7 1
v 7 8 3
v 7 8 2
v 7 9 2
v 7 9 1
v 7 10 3
v 7 10 2
v -1 10 6
v -1 12 6
v 1 10 6
v 1 12 6
v -6 12 5
v -6 14 5
v -5 6 5
v -5 11 5
v -5 12 5
v -5 14 5
v -5 15 5
v -1 10 5
v -1 11 5
v -1 12 5
v -1 15 5
v -1 18 5
v 1 10 5
v 1 11 5
v 1 12 5
v 1 15 5
v 1 18 5
v 5 6 5
v 5 11 5
v 5 12 5
v 5 14 5
v 5 15 5
v 6 12 5
v 6 14 5
v -6 7 4
v -6 10 4
v -5 7 4
v -5 10 4
v -4 0 4
v -4 1 4
v -3 0 4
v -3 1 4
v -2 0 4
v -2 1 4
v -1 0 4
v -1 1 4
v 1 0 4
v 1 1 4
v 2 0 4
v 2 1 4
v 3 0 4
v 3 1 4
v 4 0 4
v 4 1 4
v 5 7 4
v 5 10 4
v 6 7 4
v 6 10 4
v -7 8 3
v -7 10 3
v -6 8 3
v -6 10 3
v -3 3 3
v -3 6 3
v -2 3 3
v -2 6 3
v 2 3 3
v 2 6 3
v 3 3 3
v 3 6 3
v 6 8 3
v 6 10 3
v 7 8 3
v 7 10 3
v -7 7 2
v -7 8 2
v -6 7 2
v -6 8 2
v -3 0 2
v -3 1 2
v -3 3 2
v -2 0 2
v -2 1 2
v -2 3 2
v 2 0 2
v 2 1 2
v 2 3 2
v 3 0 2
v 3 1 2
v 3 3 2
v 6 7 2
v 6 8 2
v 7 7 2
v 7 8 2
v -1 17 4
v -1 18 4
v 1 17 4
v 1 18 4
v -6 12 3
v -6 14 3
v -5 12 3
v -5 14 3
v -1 16 3
v -1 17 3
v 1 16 3
v 1 17 3
v 5 12 3
v 5 14 3
v 6 12 3
v 6 14 3
v -7 9 2
v -7 10 2
v -6 9 2
v -6 10 2
v -5 11 2
v -5 15 2
v -3 4 2
v -3 6 2
v -2 4 2
v -2 6 2
v -1 15 2
v -1 16 2
v 1 15 2
v 1 16 2
v 2 4 2
v 2 6 2
v 3 4 2
v 3 6 2
v 5 11 2
v 5 15 2
v 6 9 2
v 6 10 2
v 7 9 2
v 7 10 2
v -7 7 1
v -7 9 1
v -6 7 1
v -6 9 1
v -4 0 1
v -4 1 1
v -3 1 1
v -3 4 1
v -2 1 1
v -2 4 1
v -1 0 1
v -1 1 1
v 1 0 1
v 1 1 1
v 2 1 1
v 2 4 1
v 3 1 1
v 3 4 1
v 4 0 1
v 4 1 1
v 6 7 1
v 6 9 1
v 7 7 1
v 7 9 1
v -6 7 -0
v -6 10 -0
v -5 7 -0
v -5 10 -0
v 5 7 -0
v 5 10 -0
v 6 7 -0
v 6 10 -0
v -5 6 -2
v -5 11 -2
v -2 7 -2
v -2 10 -2
v 2 7 -2
v 2 10 -2
v 5 6 -2
v 5 11 -2
v -2 7 -4
v -2 10 -4
v 2 7 -4
v 2 10 -4
v -4 0 4
v -3 0 4
v -2 0 4
v -1 0 4
v 1 0 4
v 2 0 4
v 3 0 4
v 4 0 4
v -3 0 2
v -2 0 2
v 2 0 2
v 3 0 2
v -4 0 1
v -1 0 1
v 1 0 1
v 4 0 1
v -3 3 3
v -2 3 3
v 2 3 3
v 3 3 3
v -3 3 2
v -2 3 2
v 2 3 2
v 3 3 2
v -5 6 5
v 5 6 5
v -3 6 3
v -2 6 3
v 2 6 3
v 3 6 3
v -5 6 2
v -3 6 2
v -2 6 2
v 2 6 2
v 3 6 2
v 5 6 2
v -5 6 -2
v 5 6 -2
v -6 7 4
v -5 7 4
v 5 7 4
v 6 7 4
v -7 7 2
v -6 7 2
v -5 7 2
v 5 7 2
v 6 7 2
v 7 7 2
v -7 7 1
v -6 7 1
v 6 7 1
v 7 7 1
v -6 7 -0
v -5 7 -0
v 5 7 -0
v 6 7 -0
v -2 7 -2
v 2 7 -2
v -2 7 -4
v 2 7 -4
v -7 8 3
v -6 8 3
v 6 8 3
v 7 8 3
v -7 8 2
v -6 8 2
v 6 8 2
v 7 8 2
v -1 10 6
v 1 10 6
v -1 10 5
v 1 10 5
v -6 12 5
v -5 12 5
v 5 12 5
v 6 12 5
v -6 12 3
v -5 12 3
v 5 12 3
v 6 12 3
v -4 1 4
v -3 1 4
v -2 1 4
v -1 1 4
v 1 1 4
v 2 1 4
v 3 1 4
v 4 1 4
v -3 1 2
v -2 1 2
v 2 1 2
v 3 1 2
v -4 1 1
v -3 1 1
v -2 1 1
v -1 1 1
v 1 1 1
v 2 1 1
v 3 1 1
v 4 1 1
v -3 4 2
v -2 4 2
v 2 4 2
v 3 4 2
v -3 4 1
v -2 4 1
v 2 4 1
v 3 4 1
v -7 9 2
v -6 9 2
v 6 9 2
v 7 9 2
v -7 9 1
v -6 9 1
v 6 9 1
v 7 9 1
v -6 10 4
v -5 10 4
v 5 10 4
v 6 10 4
v -7 10 3
v -6 10 3
v 6 10 3
v 7 10 3
v -7 10 2
v -6 10 2
v -5 10 2
v 5 10 2
v 6 10 2
v 7 10 2
v -6 10 -0
v -5 10 -0
v 5 10 -0
v 6 10 -0
v -2 10 -2
v 2 10 -2
v -2 10 -4
v 2 10 -4
v -5 11 2
v 5 11 2
v -5 11 -2
v 5 11 -2
v -1 12 6
v 1 12 6
v -1 12 5
v 1 12 5
v -6 14 5
v -5 14 5
v 5 14 5
v 6 14 5
v -6 14 3
v -5 14 3
v 5 14 3
v 6 14 3
v -5 15 5
v -1 15 5
v 1 15 5
v 5 15 5
v -5 15 2
v -1 15 2
v 1 15 2
v 5 15 2
v -1 16 3
v 1 16 3
v -1 16 2
v 1 16 2
v -1 17 4
v 1 17 4
v -1 17 3
v 1 17 3
v -1 18 5
v 1 18 5
v -1 18 4
v 1 18 4

# faces
f 4/6/1 2/6/1 1/6/1
f 5/6/1 2/6/1 4/6/1
f 5/6/1 4/6/1 3/6/1
f 6/6/1 2/6/1 5/6/1
f 7/6/1 5/6/1 3/6/1
f 8/6/1 5/6/1 7/6/1
f 13/6/1 10/6/1 9/6/1
f 14/6/1 10/6/1 13/6/1
f 16/6/1 12/6/1 11/6/1
f 17/6/1 13/6/1 9/6/1
f 18/6/1 13/6/1 17/6/1
f 19/6/1 16/6/1 15/6/1
f 20/6/1 12/6/1 16/6/1
f 20/6/1 16/6/1 19/6/1
f 23/7/1 22/7/1 21/7/1
f 24/7/1 22/7/1 23/7/1
f 28/8/1 26/8/1 25/8/1
f 29/1/1 27/1/1 26/1/1
f 29/8/1 26/8/1 28/8/1
f 30/1/1 27/1/1 29/1/1
f 31/8/1 28/8/1 25/8/1
f 33/1/1 27/1/1 30/1/1
f 34/8/1 32/8/1 31/8/1
f 34/8/1 31/8/1 25/8/1
f 35/1/1 33/1/1 32/1/1
f 35/8/1 32/8/1 34/8/1
f 36/1/1 27/1/1 33/1/1
f 36/1/1 33/1/1 35/1/1
f 37/6/1 35/6/1 34/6/1
f 38/6/1 35/6/1 37/6/1
f 40/6/1 35/6/1 38/6/1
f 41/6/1 40/6/1 39/6/1
f 42/6/1 35/6/1 40/6/1
f 42/6/1 40/6/1 41/6/1
f 45/2/1 44/2/1 43/2/1
f 46/2/1 44/2/1 45/2/1
f 50/2/1 48/2/1 47/2/1
f 51/2/1 48/2/1 50/2/1
f 51/2/1 50/2/1 49/2/1
f 52/2/1 48/2/1 51/2/1
f 53/2/1 51/2/1 49/2/1
f 54/2/1 51/2/1 53/2/1
f 57/2/1 56/2/1 55/2/1
f 58/2/1 56/2/1 57/2/1
f 61/6/1 60/6/1 59/6/1
f 62/6/1 60/6/1 61/6/1
f 65/7/1 64/7/1 63/7/1
f 66/7/1 65/7/1 63/7/1
f 67/7/1 65/7/1 66/7/1
f 70/6/1 69/6/1 68/6/1
f 71/6/1 69/6/1 70/6/1
f 72/6/1 70/6/1 68/6/1
f 73/6/1 70/6/1 72/6/1
f 74/6/1 72/6/1 68/6/1
f 75/6/1 72/6/1 74/6/1
f 78/2/1 77/2/1 76/2/1
f 79/2/1 77/2/1 78/2/1
f 83/2/1 81/2/1 80/2/1
f 84/2/1 81/2/1 83/2/1
f 84/2/1 83/2/1 82/2/1
f 85/2/1 81/2/1 84/2/1
f 86/2/1 84/2/1 82/2/1
f 87/2/1 84/2/1 86/2/1
f 90/2/1 89/2/1 88/2/1
f 91/2/1 89/2/1 90/2/1
f 92/2/2 93/2/2 94/2/2
f 94/2/2 93/2/2 95/2/2
f 96/2/2 97/2/2 99/2/2
f 99/2/2 97/2/2 100/2/2
f 98/2/2 99/2/2 100/2/2
f 100/2/2 97/2/2 101/2/2
f 98/2/2 100/2/2 102/2/2
f 102/2/2 100/2/2 103/2/2
f 104/2/2 105/2/2 106/2/2
f 106/2/2 105/2/2 107/2/2
f 108/7/2 109/7/2 110/7/2
f 108/7/2 110/7/2 111/7/2
f 111/7/2 110/7/2 112/7/2
f 113/6/2 114/6/2 115/6/2
f 115/6/2 114/6/2 116/6/2
f 113/6/2 115/6/2 117/6/2
f 117/6/2 115/6/2 118/6/2
f 113/6/2 117/6/2 119/6/2
f 119/6/2 117/6/2 120/6/2
f 121/2/2 122/2/2 123/2/2
f 123/2/2 122/2/2 124/2/2
f 125/6/2 126/6/2 127/6/2
f 127/6/2 126/6/2 128/6/2
f 129/2/2 130/2/2 132/2/2
f 132/2/2 130/2/2 133/2/2
f 131/2/2 132/2/2 133/2/2
f 133/2/2 130/2/2 134/2/2
f 131/2/2 133/2/2 135/2/2
f 135/2/2 133/2/2 136/2/2
f 137/2/2 138/2/2 139/2/2
f 139/2/2 138/2/2 140/2/2
f 141/8/2 142/8/2 144/8/2
f 142/1/2 143/1/2 145/1/2
f 144/8/2 142/8/2 145/8/2
f 145/1/2 143/1/2 146/1/2
f 141/8/2 144/8/2 147/8/2
f 146/1/2 143/1/2 149/1/2
f 147/8/2 148/8/2 150/8/2
f 141/8/2 147/8/2 150/8/2
f 148/1/2 149/1/2 151/1/2
f 150/8/2 148/8/2 151/8/2
f 149/1/2 143/1/2 152/1/2
f 151/1/2 149/1/2 152/1/2
f 150/6/2 151/6/2 153/6/2
f 153/6/2 151/6/2 154/6/2
f 154/6/2 151/6/2 156/6/2
f 155/6/2 156/6/2 157/6/2
f 156/6/2 151/6/2 158/6/2
f 157/6/2 156/6/2 158/6/2
f 159/6/2 160/6/2 163/6/2
f 163/6/2 160/6/2 164/6/2
f 161/6/2 162/6/2 166/6/2
f 159/6/2 163/6/2 167/6/2
f 167/6/2 163/6/2 168/6/2
f 165/6/2 166/6/2 169/6/2
f 166/6/2 162/6/2 170/6/2
f 169/6/2 166/6/2 170/6/2
f 171/7/2 172/7/2 173/7/2
f 173/7/2 172/7/2 174/7/2
f 175/6/2 176/6/2 178/6/2
f 178/6/2 176/6/2 179/6/2
f 177/6/2 178/6/2 179/6/2
f 179/6/2 176/6/2 180/6/2
f 177/6/2 179/6/2 181/6/2
f 181/6/2 179/6/2 182/6/2
f 185/7/3 184/7/3 183/7/3
f 186/7/3 184/7/3 185/7/3
f 191/7/3 188/7/3 187/7/3
f 192/7/3 188/7/3 191/7/3
f 194/8/3 190/8/3 189/8/3
f 195/6/3 193/6/3 192/6/3
f 195/8/3 190/8/3 194/8/3
f 195/6/3 191/6/3 190/6/3
f 195/6/3 192/6/3 191/6/3
f 196/6/3 193/6/3 195/6/3
f 197/6/3 193/6/3 196/6/3
f 199/8/3 194/8/3 189/8/3
f 201/6/3 198/6/3 197/6/3
f 201/6/3 197/6/3 196/6/3
f 202/6/3 198/6/3 201/6/3
f 203/6/3 198/6/3 202/6/3
f 204/8/3 200/8/3 199/8/3
f 204/8/3 199/8/3 189/8/3
f 205/6/3 202/6/3 201/6/3
f 205/8/3 200/8/3 204/8/3
f 205/6/3 201/6/3 200/6/3
f 206/6/3 202/6/3 205/6/3
f 207/6/3 202/6/3 206/6/3
f 208/6/3 202/6/3 207/6/3
f 209/7/3 207/7/3 206/7/3
f 210/7/3 207/7/3 209/7/3
f 213/6/3 212/6/3 211/6/3
f 214/6/3 212/6/3 213/6/3
f 217/2/3 216/2/3 215/2/3
f 218/2/3 216/2/3 217/2/3
f 221/2/3 220/2/3 219/2/3
f 222/2/3 220/2/3 221/2/3
f 225/2/3 224/2/3 223/2/3
f 226/2/3 224/2/3 225/2/3
f 229/2/3 228/2/3 227/2/3
f 230/2/3 228/2/3 229/2/3
f 233/6/3 232/6/3 231/6/3
f 234/6/3 232/6/3 233/6/3
f 237/6/3 236/6/3 235/6/3
f 238/6/3 236/6/3 237/6/3
f 241/2/3 240/2/3 239/2/3
f 242/2/3 240/2/3 241/2/3
f 245/2/3 244/2/3 243/2/3
f 246/2/3 244/2/3 245/2/3
f 249/6/3 248/6/3 247/6/3
f 250/6/3 248/6/3 249/6/3
f 253/6/3 252/6/3 251/6/3
f 254/6/3 252/6/3 253/6/3
f 258/2/3 256/2/3 255/2/3
f 258/2/3 257/2/3 256/2/3
f 259/2/3 257/2/3 258/2/3
f 260/2/3 257/2/3 259/2/3
f 264/2/3 262/2/3 261/2/3
f 264/2/3 263/2/3 262/2/3
f 265/2/3 263/2/3 264/2/3
f 266/2/3 263/2/3 265/2/3
f 269/6/3 268/6/3 267/6/3
f 270/6/3 268/6/3 269/6/3
f 271/6/4 272/6/4 273/6/4
f 273/6/4 272/6/4 274/6/4
f 275/7/4 276/7/4 277/7/4
f 277/7/4 276/7/4 278/7/4
f 279/6/4 280/6/4 281/6/4
f 281/6/4 280/6/4 282/6/4
f 283/7/4 284/7/4 285/7/4
f 285/7/4 284/7/4 286/7/4
f 287/6/4 288/6/4 289/6/4
f 289/6/4 288/6/4 290/6/4
f 293/2/4 294/2/4 295/2/4
f 295/2/4 294/2/4 296/2/4
f 291/6/4 292/6/4 297/6/4
f 291/6/4 297/6/4 299/6/4
f 297/6/4 298/6/4 299/6/4
f 299/6/4 298/6/4 300/6/4
f 301/2/4 302/2/4 303/2/4
f 303/2/4 302/2/4 304/2/4
f 291/6/4 299/6/4 305/6/4
f 305/6/4 299/6/4 306/6/4
f 307/6/4 308/6/4 309/6/4
f 309/6/4 308/6/4 310/6/4
f 311/6/4 312/6/4 313/6/4
f 313/6/4 312/6/4 314/6/4
f 315/2/4 316/2/4 317/2/4
f 315/2/4 317/2/4 319/2/4
f 317/2/4 318/2/4 319/2/4
f 319/2/4 318/2/4 320/2/4
f 315/2/4 319/2/4 321/2/4
f 321/2/4 319/2/4 322/2/4
f 323/2/4 324/2/4 325/2/4
f 323/2/4 325/2/4 327/2/4
f 325/2/4 326/2/4 327/2/4
f 327/2/4 326/2/4 328/2/4
f 323/2/4 327/2/4 329/2/4
f 329/2/4 327/2/4 330/2/4
f 331/6/4 332/6/4 333/6/4
f 333/6/4 332/6/4 334/6/4
f 335/6/4 336/6/4 337/6/4
f 337/6/4 336/6/4 338/6/4
f 339/6/4 340/6/4 341/6/4
f 341/6/4 340/6/4 342/6/4
f 343/1/4 344/1/4 345/1/4
f 345/1/4 344/1/4 346/1/4
f 343/1/4 345/1/4 347/1/4
f 346/1/4 344/1/4 348/1/4
f 343/1/4 347/1/4 349/1/4
f 347/1/4 348/1/4 349/1/4
f 348/1/4 344/1/4 350/1/4
f 349/1/4 348/1/4 350/1/4
f 351/6/4 352/6/4 353/6/4
f 353/6/4 352/6/4 354/6/4
f 363/2/5 356/2/5 355/2/5
f 364/2/5 358/2/5 357/2/5
f 365/2/5 360/2/5 359/2/5
f 366/2/5 362/2/5 361/2/5
f 367/2/5 363/2/5 355/2/5
f 367/2/5 364/2/5 363/2/5
f 368/2/5 358/2/5 364/2/5
f 368/2/5 364/2/5 367/2/5
f 369/2/5 365/2/5 359/2/5
f 369/2/5 366/2/5 365/2/5
f 370/2/5 362/2/5 366/2/5
f 370/2/5 366/2/5 369/2/5
f 375/2/5 372/2/5 371/2/5
f 376/2/5 372/2/5 375/2/5
f 377/2/5 374/2/5 373/2/5
f 378/2/5 374/2/5 377/2/5
f 381/8/5 380/8/5 379/8/5
f 382/8/5 380/8/5 381/8/5
f 383/8/5 380/8/5 382/8/5
f 384/8/5 380/8/5 383/8/5
f 385/8/5 381/8/5 379/8/5
f 386/8/5 381/8/5 385/8/5
f 387/8/5 383/8/5 382/8/5
f 388/8/5 383/8/5 387/8/5
f 389/8/5 380/8/5 384/8/5
f 390/8/5 380/8/5 389/8/5
f 391/1/5 388/1/5 387/1/5
f 391/1/5 386/1/5 385/1/5
f 391/1/5 390/1/5 389/1/5
f 391/1/5 389/1/5 388/1/5
f 391/1/5 387/1/5 386/1/5
f 392/1/5 390/1/5 391/1/5
f 398/6/5 394/6/5 393/6/5
f 399/6/5 394/6/5 398/6/5
f 400/6/5 396/6/5 395/6/5
f 401/6/5 396/6/5 400/6/5
f 403/6/5 399/6/5 398/6/5
f 403/6/5 398/6/5 397/6/5
f 404/6/5 399/6/5 403/6/5
f 405/6/5 402/6/5 401/6/5
f 405/6/5 401/6/5 400/6/5
f 406/6/5 402/6/5 405/6/5
f 407/6/5 399/6/5 404/6/5
f 408/6/5 399/6/5 407/6/5
f 409/6/5 405/6/5 400/6/5
f 410/6/5 405/6/5 409/6/5
f 413/6/5 412/6/5 411/6/5
f 414/6/5 412/6/5 413/6/5
f 419/6/5 416/6/5 415/6/5
f 420/6/5 416/6/5 419/6/5
f 421/6/5 418/6/5 417/6/5
f 422/6/5 418/6/5 421/6/5
f 425/7/5 424/7/5 423/7/5
f 426/7/5 424/7/5 425/7/5
f 431/7/5 428/7/5 427/7/5
f 432/7/5 428/7/5 431/7/5
f 433/7/5 430/7/5 429/7/5
f 434/7/5 430/7/5 433/7/5
f 435/2/6 436/2/6 443/2/6
f 437/2/6 438/2/6 444/2/6
f 439/2/6 440/2/6 445/2/6
f 441/2/6 442/2/6 446/2/6
f 435/2/6 443/2/6 447/2/6
f 447/2/6 443/2/6 448/2/6
f 444/2/6 438/2/6 449/2/6
f 449/2/6 438/2/6 450/2/6
f 439/2/6 445/2/6 451/2/6
f 451/2/6 445/2/6 452/2/6
f 446/2/6 442/2/6 453/2/6
f 453/2/6 442/2/6 454/2/6
f 455/2/6 456/2/6 459/2/6
f 459/2/6 456/2/6 460/2/6
f 457/2/6 458/2/6 461/2/6
f 461/2/6 458/2/6 462/2/6
f 463/6/6 464/6/6 467/6/6
f 467/6/6 464/6/6 468/6/6
f 465/6/6 466/6/6 469/6/6
f 469/6/6 466/6/6 470/6/6
f 471/6/6 472/6/6 476/6/6
f 473/6/6 474/6/6 477/6/6
f 475/6/6 476/6/6 479/6/6
f 476/6/6 472/6/6 480/6/6
f 479/6/6 476/6/6 480/6/6
f 480/6/6 472/6/6 481/6/6
f 477/6/6 478/6/6 482/6/6
f 473/6/6 477/6/6 482/6/6
f 482/6/6 478/6/6 483/6/6
f 483/6/6 478/6/6 484/6/6
f 480/6/6 481/6/6 485/6/6
f 485/6/6 481/6/6 486/6/6
f 482/6/6 483/6/6 487/6/6
f 487/6/6 483/6/6 488/6/6
f 489/6/6 490/6/6 491/6/6
f 491/6/6 490/6/6 492/6/6
f 493/1/6 494/1/6 495/1/6
f 495/1/6 494/1/6 496/1/6
f 497/7/6 498/7/6 499/7/6
f 499/7/6 498/7/6 500/7/6
f 501/7/6 502/7/6 505/7/6
f 505/7/6 502/7/6 506/7/6
f 503/7/6 504/7/6 507/7/6
f 507/7/6 504/7/6 508/7/6
f 509/6/6 510/6/6 513/6/6
f 513/6/6 510/6/6 514/6/6
f 511/6/6 512/6/6 515/6/6
f 515/6/6 512/6/6 516/6/6
f 517/6/6 518/6/6 519/6/6
f 519/6/6 518/6/6 520/6/6
f 521/6/6 522/6/6 523/6/6
f 523/6/6 522/6/6 524/6/6
f 525/6/6 526/6/6 527/6/6
f 527/6/6 526/6/6 528/6/6
