# MagicaVoxel @ Ephtracy

# group
g VoxelFlower2

# material
mtllib VoxelFlower2.mtl
usemtl palette

# normals
vn -1 0 0
vn 1 0 0
vn 0 0 1
vn 0 0 -1
vn 0 -1 0
vn 0 1 0

# texcoords
vt 0.158203 0.5
vt 0.701172 0.5
vt 0.724609 0.5
vt 0.748047 0.5
vt 0.958984 0.5

# verts
v -4 17 2
v -4 17 -2
v -4 18 2
v -4 18 -2
v -3 9 1
v -3 9 -0
v -3 10 1
v -3 10 -0
v -3 17 3
v -3 17 2
v -3 17 -2
v -3 17 -3
v -3 18 3
v -3 18 2
v -3 18 -2
v -3 18 -3
v -2 17 4
v -2 17 3
v -2 17 -3
v -2 17 -4
v -2 18 4
v -2 18 3
v -2 18 -3
v -2 18 -4
v -1 0 1
v -1 0 -1
v -1 8 2
v -1 8 1
v -1 8 -0
v -1 9 2
v -1 9 1
v -1 9 -0
v -1 10 1
v -1 10 -0
v -1 17 1
v -1 17 -1
v -1 18 1
v -1 18 -1
v -1 19 1
v -1 19 -1
v 0 7 2
v 0 7 1
v 0 8 2
v 0 8 1
v 1 8 2
v 1 8 1
v 1 10 2
v 1 10 1
v 3 9 3
v 3 9 2
v 3 9 1
v 3 9 -0
v 3 10 3
v 3 10 2
v 3 10 1
v 3 10 -0
v 4 9 4
v 4 9 3
v 4 9 -0
v 4 9 -1
v 4 10 4
v 4 10 3
v 4 10 -0
v 4 10 -1
v 0 8 2
v 0 8 1
v 0 9 2
v 0 9 1
v 1 0 1
v 1 0 -1
v 1 7 1
v 1 7 -1
v 1 8 1
v 1 8 -1
v 1 10 1
v 1 17 1
v 1 17 -1
v 1 18 1
v 1 18 -1
v 1 19 1
v 1 19 -1
v 2 7 2
v 2 7 -1
v 2 8 1
v 2 8 -1
v 2 9 2
v 2 9 1
v 2 17 4
v 2 17 3
v 2 17 -3
v 2 17 -4
v 2 18 4
v 2 18 3
v 2 18 -3
v 2 18 -4
v 3 17 3
v 3 17 2
v 3 17 -2
v 3 17 -3
v 3 18 3
v 3 18 2
v 3 18 -2
v 3 18 -3
v 4 17 2
v 4 17 -2
v 4 18 2
v 4 18 -2
v 6 9 4
v 6 9 3
v 6 9 -0
v 6 9 -1
v 6 10 4
v 6 10 3
v 6 10 -0
v 6 10 -1
v 7 9 3
v 7 9 -0
v 7 10 3
v 7 10 -0
v -2 17 4
v -2 18 4
v 2 17 4
v 2 18 4
v 4 9 4
v 4 10 4
v 6 9 4
v 6 10 4
v -3 17 3
v -3 18 3
v -2 17 3
v -2 18 3
v 2 17 3
v 2 18 3
v 3 9 3
v 3 10 3
v 3 17 3
v 3 18 3
v 4 9 3
v 4 10 3
v 6 9 3
v 6 10 3
v 7 9 3
v 7 10 3
v -4 17 2
v -4 18 2
v -3 17 2
v -3 18 2
v -1 8 2
v -1 9 2
v 0 7 2
v 0 8 2
v 0 9 2
v 1 8 2
v 1 10 2
v 2 7 2
v 2 9 2
v 3 9 2
v 3 10 2
v 3 17 2
v 3 18 2
v 4 17 2
v 4 18 2
v -3 9 1
v -3 10 1
v -1 0 1
v -1 8 1
v -1 9 1
v -1 10 1
v -1 17 1
v -1 18 1
v -1 19 1
v 0 7 1
v 0 8 1
v 0 9 1
v 0 10 1
v 1 0 1
v 1 7 1
v 1 8 1
v 1 10 1
v 1 17 1
v 1 18 1
v 1 19 1
v 1 8 1
v 1 10 1
v 2 8 1
v 2 9 1
v 3 9 1
v 3 10 1
v -3 9 -0
v -3 10 -0
v -1 9 -0
v -1 10 -0
v 3 9 -0
v 3 10 -0
v 4 9 -0
v 4 10 -0
v 6 9 -0
v 6 10 -0
v 7 9 -0
v 7 10 -0
v -1 0 -1
v -1 17 -1
v -1 18 -1
v -1 19 -1
v 1 0 -1
v 1 7 -1
v 1 8 -1
v 1 17 -1
v 1 18 -1
v 1 19 -1
v 2 7 -1
v 2 8 -1
v 4 9 -1
v 4 10 -1
v 6 9 -1
v 6 10 -1
v -4 17 -2
v -4 18 -2
v -3 17 -2
v -3 18 -2
v 3 17 -2
v 3 18 -2
v 4 17 -2
v 4 18 -2
v -3 17 -3
v -3 18 -3
v -2 17 -3
v -2 18 -3
v 2 17 -3
v 2 18 -3
v 3 17 -3
v 3 18 -3
v -2 17 -4
v -2 18 -4
v 2 17 -4
v 2 18 -4
v -1 0 1
v 1 0 1
v -1 0 -1
v 1 0 -1
v 0 7 2
v 2 7 2
v 0 7 1
v 1 7 1
v 1 7 -1
v 2 7 -1
v -1 8 2
v 0 8 2
v -1 8 1
v 0 8 1
v 4 9 4
v 6 9 4
v 3 9 3
v 4 9 3
v 6 9 3
v 7 9 3
v 2 9 2
v 3 9 2
v -3 9 1
v -1 9 1
v 2 9 1
v 3 9 1
v -3 9 -0
v -1 9 -0
v 3 9 -0
v 4 9 -0
v 6 9 -0
v 7 9 -0
v 4 9 -1
v 6 9 -1
v -2 17 4
v 2 17 4
v -3 17 3
v -2 17 3
v 2 17 3
v 3 17 3
v -4 17 2
v -3 17 2
v 3 17 2
v 4 17 2
v -1 17 1
v 1 17 1
v -1 17 -1
v 1 17 -1
v -4 17 -2
v -3 17 -2
v 3 17 -2
v 4 17 -2
v -3 17 -3
v -2 17 -3
v 2 17 -3
v 3 17 -3
v -2 17 -4
v 2 17 -4
v 0 8 2
v 1 8 2
v 0 8 1
v 1 8 1
v 2 8 1
v 1 8 -1
v 2 8 -1
v -1 9 2
v 0 9 2
v -1 9 1
v 0 9 1
v 4 10 4
v 6 10 4
v 3 10 3
v 4 10 3
v 6 10 3
v 7 10 3
v 1 10 2
v 3 10 2
v -3 10 1
v -1 10 1
v 1 10 1
v 3 10 1
v -3 10 -0
v -1 10 -0
v 3 10 -0
v 4 10 -0
v 6 10 -0
v 7 10 -0
v 4 10 -1
v 6 10 -1
v -2 18 4
v 2 18 4
v -3 18 3
v -2 18 3
v 2 18 3
v 3 18 3
v -4 18 2
v -3 18 2
v 3 18 2
v 4 18 2
v -1 18 1
v 1 18 1
v -1 18 -1
v 1 18 -1
v -4 18 -2
v -3 18 -2
v 3 18 -2
v 4 18 -2
v -3 18 -3
v -2 18 -3
v 2 18 -3
v 3 18 -3
v -2 18 -4
v 2 18 -4
v -1 19 1
v 1 19 1
v -1 19 -1
v 1 19 -1

# faces
f 3/5/1 2/5/1 1/5/1
f 4/5/1 2/5/1 3/5/1
f 7/3/1 6/3/1 5/3/1
f 8/3/1 6/3/1 7/3/1
f 13/5/1 10/5/1 9/5/1
f 14/5/1 10/5/1 13/5/1
f 15/5/1 12/5/1 11/5/1
f 16/5/1 12/5/1 15/5/1
f 21/5/1 18/5/1 17/5/1
f 22/5/1 18/5/1 21/5/1
f 23/5/1 20/5/1 19/5/1
f 24/5/1 20/5/1 23/5/1
f 28/4/1 26/4/1 25/4/1
f 29/4/1 26/4/1 28/4/1
f 30/3/1 28/3/1 27/3/1
f 30/3/1 29/3/1 28/3/1
f 31/3/1 29/3/1 30/3/1
f 32/4/1 26/4/1 29/4/1
f 32/3/1 29/3/1 31/3/1
f 34/4/1 26/4/1 32/4/1
f 35/4/1 34/4/1 33/4/1
f 36/4/1 26/4/1 34/4/1
f 36/4/1 34/4/1 35/4/1
f 39/1/1 38/1/1 37/1/1
f 40/1/1 38/1/1 39/1/1
f 43/3/1 42/3/1 41/3/1
f 44/3/1 42/3/1 43/3/1
f 47/3/1 46/3/1 45/3/1
f 48/3/1 46/3/1 47/3/1
f 53/3/1 50/3/1 49/3/1
f 54/3/1 50/3/1 53/3/1
f 55/3/1 52/3/1 51/3/1
f 56/3/1 52/3/1 55/3/1
f 61/3/1 58/3/1 57/3/1
f 62/3/1 58/3/1 61/3/1
f 63/3/1 60/3/1 59/3/1
f 64/3/1 60/3/1 63/3/1
f 65/3/2 66/3/2 67/3/2
f 67/3/2 66/3/2 68/3/2
f 69/4/2 70/4/2 71/4/2
f 71/4/2 70/4/2 72/4/2
f 73/4/2 74/4/2 75/4/2
f 75/4/2 74/4/2 76/4/2
f 76/4/2 74/4/2 77/4/2
f 78/1/2 79/1/2 80/1/2
f 80/1/2 79/1/2 81/1/2
f 82/3/2 83/3/2 84/3/2
f 84/3/2 83/3/2 85/3/2
f 82/3/2 84/3/2 86/3/2
f 86/3/2 84/3/2 87/3/2
f 88/5/2 89/5/2 92/5/2
f 92/5/2 89/5/2 93/5/2
f 90/5/2 91/5/2 94/5/2
f 94/5/2 91/5/2 95/5/2
f 96/5/2 97/5/2 100/5/2
f 100/5/2 97/5/2 101/5/2
f 98/5/2 99/5/2 102/5/2
f 102/5/2 99/5/2 103/5/2
f 104/5/2 105/5/2 106/5/2
f 106/5/2 105/5/2 107/5/2
f 108/3/2 109/3/2 112/3/2
f 112/3/2 109/3/2 113/3/2
f 110/3/2 111/3/2 114/3/2
f 114/3/2 111/3/2 115/3/2
f 116/3/2 117/3/2 118/3/2
f 118/3/2 117/3/2 119/3/2
f 122/5/3 121/5/3 120/5/3
f 123/5/3 121/5/3 122/5/3
f 126/3/3 125/3/3 124/3/3
f 127/3/3 125/3/3 126/3/3
f 130/5/3 129/5/3 128/5/3
f 131/5/3 129/5/3 130/5/3
f 136/5/3 133/5/3 132/5/3
f 137/5/3 133/5/3 136/5/3
f 138/3/3 135/3/3 134/3/3
f 139/3/3 135/3/3 138/3/3
f 142/3/3 141/3/3 140/3/3
f 143/3/3 141/3/3 142/3/3
f 146/5/3 145/5/3 144/5/3
f 147/5/3 145/5/3 146/5/3
f 151/3/3 149/3/3 148/3/3
f 152/3/3 149/3/3 151/3/3
f 153/3/3 151/3/3 150/3/3
f 155/3/3 153/3/3 150/3/3
f 155/3/3 154/3/3 153/3/3
f 156/3/3 154/3/3 155/3/3
f 157/3/3 154/3/3 156/3/3
f 158/3/3 154/3/3 157/3/3
f 161/5/3 160/5/3 159/5/3
f 162/5/3 160/5/3 161/5/3
f 167/3/3 164/3/3 163/3/3
f 168/3/3 164/3/3 167/3/3
f 172/4/3 166/4/3 165/4/3
f 173/4/3 166/4/3 172/4/3
f 174/3/3 168/3/3 167/3/3
f 175/4/3 169/4/3 168/4/3
f 175/3/3 168/3/3 174/3/3
f 176/4/3 172/4/3 165/4/3
f 177/4/3 172/4/3 176/4/3
f 178/4/3 174/4/3 173/4/3
f 178/4/3 175/4/3 174/4/3
f 179/4/3 169/4/3 175/4/3
f 179/4/3 175/4/3 178/4/3
f 180/4/3 169/4/3 179/4/3
f 181/1/3 171/1/3 170/1/3
f 182/1/3 171/1/3 181/1/3
f 183/3/4 184/3/4 185/3/4
f 185/3/4 184/3/4 186/3/4
f 186/3/4 184/3/4 187/3/4
f 187/3/4 184/3/4 188/3/4
f 189/3/4 190/3/4 191/3/4
f 191/3/4 190/3/4 192/3/4
f 193/3/4 194/3/4 195/3/4
f 195/3/4 194/3/4 196/3/4
f 197/3/4 198/3/4 199/3/4
f 199/3/4 198/3/4 200/3/4
f 201/4/4 202/4/4 205/4/4
f 205/4/4 202/4/4 206/4/4
f 206/4/4 202/4/4 207/4/4
f 207/4/4 202/4/4 208/4/4
f 203/1/4 204/1/4 209/1/4
f 209/1/4 204/1/4 210/1/4
f 206/3/4 207/3/4 211/3/4
f 211/3/4 207/3/4 212/3/4
f 213/3/4 214/3/4 215/3/4
f 215/3/4 214/3/4 216/3/4
f 217/5/4 218/5/4 219/5/4
f 219/5/4 218/5/4 220/5/4
f 221/5/4 222/5/4 223/5/4
f 223/5/4 222/5/4 224/5/4
f 225/5/4 226/5/4 227/5/4
f 227/5/4 226/5/4 228/5/4
f 229/5/4 230/5/4 231/5/4
f 231/5/4 230/5/4 232/5/4
f 233/5/4 234/5/4 235/5/4
f 235/5/4 234/5/4 236/5/4
f 239/4/5 238/4/5 237/4/5
f 240/4/5 238/4/5 239/4/5
f 243/3/5 242/3/5 241/3/5
f 244/3/5 242/3/5 243/3/5
f 245/3/5 242/3/5 244/3/5
f 246/3/5 242/3/5 245/3/5
f 249/3/5 248/3/5 247/3/5
f 250/3/5 248/3/5 249/3/5
f 254/3/5 252/3/5 251/3/5
f 255/3/5 252/3/5 254/3/5
f 258/3/5 254/3/5 253/3/5
f 258/3/5 256/3/5 255/3/5
f 258/3/5 255/3/5 254/3/5
f 261/3/5 258/3/5 257/3/5
f 262/3/5 256/3/5 258/3/5
f 262/3/5 258/3/5 261/3/5
f 263/3/5 260/3/5 259/3/5
f 264/3/5 260/3/5 263/3/5
f 265/3/5 256/3/5 262/3/5
f 266/3/5 256/3/5 265/3/5
f 267/3/5 256/3/5 266/3/5
f 268/3/5 256/3/5 267/3/5
f 269/3/5 267/3/5 266/3/5
f 270/3/5 267/3/5 269/3/5
f 274/5/5 272/5/5 271/5/5
f 275/5/5 272/5/5 274/5/5
f 278/5/5 274/5/5 273/5/5
f 278/5/5 276/5/5 275/5/5
f 278/5/5 275/5/5 274/5/5
f 279/5/5 276/5/5 278/5/5
f 281/5/5 278/5/5 277/5/5
f 281/5/5 280/5/5 279/5/5
f 281/5/5 279/5/5 278/5/5
f 282/5/5 280/5/5 281/5/5
f 283/5/5 281/5/5 277/5/5
f 284/5/5 280/5/5 282/5/5
f 285/5/5 283/5/5 277/5/5
f 285/5/5 284/5/5 283/5/5
f 286/5/5 284/5/5 285/5/5
f 287/5/5 280/5/5 284/5/5
f 287/5/5 284/5/5 286/5/5
f 288/5/5 280/5/5 287/5/5
f 289/5/5 287/5/5 286/5/5
f 290/5/5 287/5/5 289/5/5
f 291/5/5 287/5/5 290/5/5
f 292/5/5 287/5/5 291/5/5
f 293/5/5 291/5/5 290/5/5
f 294/5/5 291/5/5 293/5/5
f 295/3/6 296/3/6 297/3/6
f 297/3/6 296/3/6 298/3/6
f 298/3/6 299/3/6 300/3/6
f 300/3/6 299/3/6 301/3/6
f 302/3/6 303/3/6 304/3/6
f 304/3/6 303/3/6 305/3/6
f 306/3/6 307/3/6 309/3/6
f 309/3/6 307/3/6 310/3/6
f 308/3/6 309/3/6 313/3/6
f 310/3/6 311/3/6 313/3/6
f 309/3/6 310/3/6 313/3/6
f 312/3/6 313/3/6 316/3/6
f 313/3/6 311/3/6 317/3/6
f 316/3/6 313/3/6 317/3/6
f 314/3/6 315/3/6 318/3/6
f 318/3/6 315/3/6 319/3/6
f 317/3/6 311/3/6 320/3/6
f 320/3/6 311/3/6 321/3/6
f 321/3/6 311/3/6 322/3/6
f 322/3/6 311/3/6 323/3/6
f 321/3/6 322/3/6 324/3/6
f 324/3/6 322/3/6 325/3/6
f 326/5/6 327/5/6 329/5/6
f 329/5/6 327/5/6 330/5/6
f 328/5/6 329/5/6 333/5/6
f 330/5/6 331/5/6 333/5/6
f 329/5/6 330/5/6 333/5/6
f 333/5/6 331/5/6 334/5/6
f 332/5/6 333/5/6 336/5/6
f 334/5/6 335/5/6 336/5/6
f 333/5/6 334/5/6 336/5/6
f 336/5/6 335/5/6 337/5/6
f 332/5/6 336/5/6 338/5/6
f 337/5/6 335/5/6 339/5/6
f 332/5/6 338/5/6 340/5/6
f 338/5/6 339/5/6 340/5/6
f 340/5/6 339/5/6 341/5/6
f 339/5/6 335/5/6 342/5/6
f 341/5/6 339/5/6 342/5/6
f 342/5/6 335/5/6 343/5/6
f 341/5/6 342/5/6 344/5/6
f 344/5/6 342/5/6 345/5/6
f 345/5/6 342/5/6 346/5/6
f 346/5/6 342/5/6 347/5/6
f 345/5/6 346/5/6 348/5/6
f 348/5/6 346/5/6 349/5/6
f 350/1/6 351/1/6 352/1/6
f 352/1/6 351/1/6 353/1/6
