# MagicaVoxel @ Ephtracy

# group
g VoxelChicken

# material
mtllib VoxelChicken.mtl
usemtl palette

# normals
vn -1 0 0
vn 1 0 0
vn 0 0 1
vn 0 0 -1
vn 0 -1 0
vn 0 1 0

# texcoords
vt 0.0644531 0.5
vt 0.841797 0.5
vt 0.951172 0.5
vt 0.958984 0.5

# verts
v -11 11 7
v -11 11 -2
v -11 15 7
v -11 15 -2
v -9 0 7
v -9 0 3
v -9 1 7
v -9 1 3
v -9 8 11
v -9 8 -5
v -9 11 7
v -9 11 -2
v -9 15 7
v -9 15 -2
v -9 18 2
v -9 18 -5
v -9 29 9
v -9 29 7
v -9 31 9
v -9 31 7
v -9 32 11
v -9 32 2
v -6 0 7
v -6 0 4
v -6 1 7
v -6 1 4
v -6 1 3
v -6 8 4
v -6 8 3
v -3 0 7
v -3 0 4
v -3 1 7
v -3 1 4
v -2 27 15
v -2 27 11
v -2 29 15
v -2 29 11
v -1 25 14
v -1 25 11
v -1 27 14
v -1 27 11
v -1 32 10
v -1 32 4
v -1 35 10
v -1 35 4
v 2 0 7
v 2 0 3
v 2 1 7
v 2 1 3
v 5 0 7
v 5 0 4
v 5 1 7
v 5 1 4
v 5 1 3
v 5 8 4
v 5 8 3
v 8 0 7
v 8 0 4
v 8 1 7
v 8 1 4
v -8 0 7
v -8 0 4
v -8 1 7
v -8 1 4
v -5 0 7
v -5 0 4
v -5 1 7
v -5 1 4
v -5 1 3
v -5 8 4
v -5 8 3
v -2 0 7
v -2 0 3
v -2 1 7
v -2 1 3
v 1 25 14
v 1 25 11
v 1 27 14
v 1 27 11
v 1 32 10
v 1 32 4
v 1 35 10
v 1 35 4
v 2 27 15
v 2 27 11
v 2 29 15
v 2 29 11
v 3 0 7
v 3 0 4
v 3 1 7
v 3 1 4
v 6 0 7
v 6 0 4
v 6 1 7
v 6 1 4
v 6 1 3
v 6 8 4
v 6 8 3
v 9 0 7
v 9 0 3
v 9 1 7
v 9 1 3
v 9 8 11
v 9 8 -5
v 9 11 7
v 9 11 -2
v 9 15 7
v 9 15 -2
v 9 18 2
v 9 18 -5
v 9 29 9
v 9 29 7
v 9 31 9
v 9 31 7
v 9 32 11
v 9 32 2
v 11 11 7
v 11 11 -2
v 11 15 7
v 11 15 -2
v -2 27 15
v -2 29 15
v 2 27 15
v 2 29 15
v -1 25 14
v -1 27 14
v 1 25 14
v 1 27 14
v -9 8 11
v -9 32 11
v -2 27 11
v -2 29 11
v -1 25 11
v -1 27 11
v 1 25 11
v 1 27 11
v 2 27 11
v 2 29 11
v 9 8 11
v 9 32 11
v -1 32 10
v -1 35 10
v 1 32 10
v 1 35 10
v -11 11 7
v -11 15 7
v -9 0 7
v -9 1 7
v -9 11 7
v -9 15 7
v -8 0 7
v -8 1 7
v -6 0 7
v -6 1 7
v -5 0 7
v -5 1 7
v -3 0 7
v -3 1 7
v -2 0 7
v -2 1 7
v 2 0 7
v 2 1 7
v 3 0 7
v 3 1 7
v 5 0 7
v 5 1 7
v 6 0 7
v 6 1 7
v 8 0 7
v 8 1 7
v 9 0 7
v 9 1 7
v 9 11 7
v 9 15 7
v 11 11 7
v 11 15 7
v -8 0 4
v -8 1 4
v -6 0 4
v -6 1 4
v -6 8 4
v -5 0 4
v -5 1 4
v -5 8 4
v -3 0 4
v -3 1 4
v 3 0 4
v 3 1 4
v 5 0 4
v 5 1 4
v 5 8 4
v 6 0 4
v 6 1 4
v 6 8 4
v 8 0 4
v 8 1 4
v -1 32 4
v -1 35 4
v 1 32 4
v 1 35 4
v -9 0 3
v -9 1 3
v -6 1 3
v -6 8 3
v -5 1 3
v -5 8 3
v -2 0 3
v -2 1 3
v 2 0 3
v 2 1 3
v 5 1 3
v 5 8 3
v 6 1 3
v 6 8 3
v 9 0 3
v 9 1 3
v -9 18 2
v -9 32 2
v 9 18 2
v 9 32 2
v -11 11 -2
v -11 15 -2
v -9 11 -2
v -9 15 -2
v 9 11 -2
v 9 15 -2
v 11 11 -2
v 11 15 -2
v -9 8 -5
v -9 18 -5
v 9 8 -5
v 9 18 -5
v -9 0 7
v -8 0 7
v -6 0 7
v -5 0 7
v -3 0 7
v -2 0 7
v 2 0 7
v 3 0 7
v 5 0 7
v 6 0 7
v 8 0 7
v 9 0 7
v -8 0 4
v -6 0 4
v -5 0 4
v -3 0 4
v 3 0 4
v 5 0 4
v 6 0 4
v 8 0 4
v -9 0 3
v -2 0 3
v 2 0 3
v 9 0 3
v -9 8 11
v 9 8 11
v -6 8 4
v -5 8 4
v 5 8 4
v 6 8 4
v -6 8 3
v -5 8 3
v 5 8 3
v 6 8 3
v -9 8 -5
v 9 8 -5
v -11 11 7
v -9 11 7
v 9 11 7
v 11 11 7
v -11 11 -2
v -9 11 -2
v 9 11 -2
v 11 11 -2
v -1 25 14
v 1 25 14
v -1 25 11
v 1 25 11
v -2 27 15
v 2 27 15
v -1 27 14
v 1 27 14
v -2 27 11
v -1 27 11
v 1 27 11
v 2 27 11
v -9 1 7
v -8 1 7
v -6 1 7
v -5 1 7
v -3 1 7
v -2 1 7
v 2 1 7
v 3 1 7
v 5 1 7
v 6 1 7
v 8 1 7
v 9 1 7
v -8 1 4
v -6 1 4
v -5 1 4
v -3 1 4
v 3 1 4
v 5 1 4
v 6 1 4
v 8 1 4
v -9 1 3
v -6 1 3
v -5 1 3
v -2 1 3
v 2 1 3
v 5 1 3
v 6 1 3
v 9 1 3
v -11 15 7
v -9 15 7
v 9 15 7
v 11 15 7
v -11 15 -2
v -9 15 -2
v 9 15 -2
v 11 15 -2
v -9 18 2
v 9 18 2
v -9 18 -5
v 9 18 -5
v -2 29 15
v 2 29 15
v -2 29 11
v 2 29 11
v -9 32 11
v 9 32 11
v -1 32 10
v 1 32 10
v -1 32 4
v 1 32 4
v -9 32 2
v 9 32 2
v -1 35 10
v 1 35 10
v -1 35 4
v 1 35 4

# faces
f 3/4/1 2/4/1 1/4/1
f 4/4/1 2/4/1 3/4/1
f 7/2/1 6/2/1 5/2/1
f 8/2/1 6/2/1 7/2/1
f 11/4/1 10/4/1 9/4/1
f 12/4/1 10/4/1 11/4/1
f 13/4/1 11/4/1 9/4/1
f 14/4/1 10/4/1 12/4/1
f 15/4/1 14/4/1 13/4/1
f 16/4/1 10/4/1 14/4/1
f 16/4/1 14/4/1 15/4/1
f 17/4/1 13/4/1 9/4/1
f 17/4/1 15/4/1 13/4/1
f 18/4/1 15/4/1 17/4/1
f 19/4/1 17/4/1 9/4/1
f 19/3/1 18/3/1 17/3/1
f 20/4/1 15/4/1 18/4/1
f 20/3/1 18/3/1 19/3/1
f 21/4/1 19/4/1 9/4/1
f 21/4/1 20/4/1 19/4/1
f 22/4/1 15/4/1 20/4/1
f 22/4/1 20/4/1 21/4/1
f 25/2/1 24/2/1 23/2/1
f 26/2/1 24/2/1 25/2/1
f 28/2/1 27/2/1 26/2/1
f 29/2/1 27/2/1 28/2/1
f 32/2/1 31/2/1 30/2/1
f 33/2/1 31/2/1 32/2/1
f 36/1/1 35/1/1 34/1/1
f 37/1/1 35/1/1 36/1/1
f 40/2/1 39/2/1 38/2/1
f 41/2/1 39/2/1 40/2/1
f 44/2/1 43/2/1 42/2/1
f 45/2/1 43/2/1 44/2/1
f 48/2/1 47/2/1 46/2/1
f 49/2/1 47/2/1 48/2/1
f 52/2/1 51/2/1 50/2/1
f 53/2/1 51/2/1 52/2/1
f 55/2/1 54/2/1 53/2/1
f 56/2/1 54/2/1 55/2/1
f 59/2/1 58/2/1 57/2/1
f 60/2/1 58/2/1 59/2/1
f 61/2/2 62/2/2 63/2/2
f 63/2/2 62/2/2 64/2/2
f 65/2/2 66/2/2 67/2/2
f 67/2/2 66/2/2 68/2/2
f 68/2/2 69/2/2 70/2/2
f 70/2/2 69/2/2 71/2/2
f 72/2/2 73/2/2 74/2/2
f 74/2/2 73/2/2 75/2/2
f 76/2/2 77/2/2 78/2/2
f 78/2/2 77/2/2 79/2/2
f 80/2/2 81/2/2 82/2/2
f 82/2/2 81/2/2 83/2/2
f 84/1/2 85/1/2 86/1/2
f 86/1/2 85/1/2 87/1/2
f 88/2/2 89/2/2 90/2/2
f 90/2/2 89/2/2 91/2/2
f 92/2/2 93/2/2 94/2/2
f 94/2/2 93/2/2 95/2/2
f 95/2/2 96/2/2 97/2/2
f 97/2/2 96/2/2 98/2/2
f 99/2/2 100/2/2 101/2/2
f 101/2/2 100/2/2 102/2/2
f 103/4/2 104/4/2 105/4/2
f 105/4/2 104/4/2 106/4/2
f 103/4/2 105/4/2 107/4/2
f 106/4/2 104/4/2 108/4/2
f 107/4/2 108/4/2 109/4/2
f 108/4/2 104/4/2 110/4/2
f 109/4/2 108/4/2 110/4/2
f 103/4/2 107/4/2 111/4/2
f 107/4/2 109/4/2 111/4/2
f 111/4/2 109/4/2 112/4/2
f 103/4/2 111/4/2 113/4/2
f 111/3/2 112/3/2 113/3/2
f 112/4/2 109/4/2 114/4/2
f 113/3/2 112/3/2 114/3/2
f 103/4/2 113/4/2 115/4/2
f 113/4/2 114/4/2 115/4/2
f 114/4/2 109/4/2 116/4/2
f 115/4/2 114/4/2 116/4/2
f 117/4/2 118/4/2 119/4/2
f 119/4/2 118/4/2 120/4/2
f 123/1/3 122/1/3 121/1/3
f 124/1/3 122/1/3 123/1/3
f 127/2/3 126/2/3 125/2/3
f 128/2/3 126/2/3 127/2/3
f 131/4/3 130/4/3 129/4/3
f 132/4/3 130/4/3 131/4/3
f 133/4/3 131/4/3 129/4/3
f 134/4/3 131/4/3 133/4/3
f 135/4/3 133/4/3 129/4/3
f 137/4/3 136/4/3 135/4/3
f 138/4/3 130/4/3 132/4/3
f 139/4/3 137/4/3 135/4/3
f 139/4/3 138/4/3 137/4/3
f 139/4/3 135/4/3 129/4/3
f 140/4/3 130/4/3 138/4/3
f 140/4/3 138/4/3 139/4/3
f 143/2/3 142/2/3 141/2/3
f 144/2/3 142/2/3 143/2/3
f 149/4/3 146/4/3 145/4/3
f 150/4/3 146/4/3 149/4/3
f 151/2/3 148/2/3 147/2/3
f 152/2/3 148/2/3 151/2/3
f 155/2/3 154/2/3 153/2/3
f 156/2/3 154/2/3 155/2/3
f 159/2/3 158/2/3 157/2/3
f 160/2/3 158/2/3 159/2/3
f 163/2/3 162/2/3 161/2/3
f 164/2/3 162/2/3 163/2/3
f 167/2/3 166/2/3 165/2/3
f 168/2/3 166/2/3 167/2/3
f 171/2/3 170/2/3 169/2/3
f 172/2/3 170/2/3 171/2/3
f 175/4/3 174/4/3 173/4/3
f 176/4/3 174/4/3 175/4/3
f 179/2/3 178/2/3 177/2/3
f 180/2/3 178/2/3 179/2/3
f 183/2/3 181/2/3 180/2/3
f 184/2/3 181/2/3 183/2/3
f 185/2/3 183/2/3 182/2/3
f 186/2/3 183/2/3 185/2/3
f 189/2/3 188/2/3 187/2/3
f 190/2/3 188/2/3 189/2/3
f 193/2/3 191/2/3 190/2/3
f 194/2/3 191/2/3 193/2/3
f 195/2/3 193/2/3 192/2/3
f 196/2/3 193/2/3 195/2/3
f 197/2/4 198/2/4 199/2/4
f 199/2/4 198/2/4 200/2/4
f 201/2/4 202/2/4 203/2/4
f 201/2/4 203/2/4 205/2/4
f 203/2/4 204/2/4 205/2/4
f 205/2/4 204/2/4 206/2/4
f 201/2/4 205/2/4 207/2/4
f 207/2/4 205/2/4 208/2/4
f 209/2/4 210/2/4 211/2/4
f 209/2/4 211/2/4 213/2/4
f 211/2/4 212/2/4 213/2/4
f 213/2/4 212/2/4 214/2/4
f 209/2/4 213/2/4 215/2/4
f 215/2/4 213/2/4 216/2/4
f 217/4/4 218/4/4 219/4/4
f 219/4/4 218/4/4 220/4/4
f 221/4/4 222/4/4 223/4/4
f 223/4/4 222/4/4 224/4/4
f 225/4/4 226/4/4 227/4/4
f 227/4/4 226/4/4 228/4/4
f 229/4/4 230/4/4 231/4/4
f 231/4/4 230/4/4 232/4/4
f 245/2/5 234/2/5 233/2/5
f 246/2/5 236/2/5 235/2/5
f 247/2/5 236/2/5 246/2/5
f 248/2/5 238/2/5 237/2/5
f 249/2/5 240/2/5 239/2/5
f 250/2/5 242/2/5 241/2/5
f 251/2/5 242/2/5 250/2/5
f 252/2/5 244/2/5 243/2/5
f 253/2/5 245/2/5 233/2/5
f 253/2/5 247/2/5 246/2/5
f 253/2/5 248/2/5 247/2/5
f 253/2/5 246/2/5 245/2/5
f 254/2/5 238/2/5 248/2/5
f 254/2/5 248/2/5 253/2/5
f 255/2/5 251/2/5 250/2/5
f 255/2/5 252/2/5 251/2/5
f 255/2/5 249/2/5 239/2/5
f 255/2/5 250/2/5 249/2/5
f 256/2/5 244/2/5 252/2/5
f 256/2/5 252/2/5 255/2/5
f 259/4/5 258/4/5 257/4/5
f 260/4/5 258/4/5 259/4/5
f 261/4/5 258/4/5 260/4/5
f 262/4/5 258/4/5 261/4/5
f 263/4/5 259/4/5 257/4/5
f 264/4/5 261/4/5 260/4/5
f 265/4/5 261/4/5 264/4/5
f 266/4/5 258/4/5 262/4/5
f 267/4/5 265/4/5 264/4/5
f 267/4/5 266/4/5 265/4/5
f 267/4/5 263/4/5 257/4/5
f 267/4/5 264/4/5 263/4/5
f 268/4/5 258/4/5 266/4/5
f 268/4/5 266/4/5 267/4/5
f 273/4/5 270/4/5 269/4/5
f 274/4/5 270/4/5 273/4/5
f 275/4/5 272/4/5 271/4/5
f 276/4/5 272/4/5 275/4/5
f 279/2/5 278/2/5 277/2/5
f 280/2/5 278/2/5 279/2/5
f 283/1/5 282/1/5 281/1/5
f 284/1/5 282/1/5 283/1/5
f 285/1/5 283/1/5 281/1/5
f 286/1/5 283/1/5 285/1/5
f 287/1/5 282/1/5 284/1/5
f 288/1/5 282/1/5 287/1/5
f 289/2/6 290/2/6 301/2/6
f 291/2/6 292/2/6 302/2/6
f 302/2/6 292/2/6 303/2/6
f 293/2/6 294/2/6 304/2/6
f 295/2/6 296/2/6 305/2/6
f 297/2/6 298/2/6 306/2/6
f 306/2/6 298/2/6 307/2/6
f 299/2/6 300/2/6 308/2/6
f 289/2/6 301/2/6 309/2/6
f 301/2/6 302/2/6 309/2/6
f 309/2/6 302/2/6 310/2/6
f 303/2/6 304/2/6 311/2/6
f 304/2/6 294/2/6 312/2/6
f 311/2/6 304/2/6 312/2/6
f 295/2/6 305/2/6 313/2/6
f 305/2/6 306/2/6 313/2/6
f 313/2/6 306/2/6 314/2/6
f 307/2/6 308/2/6 315/2/6
f 308/2/6 300/2/6 316/2/6
f 315/2/6 308/2/6 316/2/6
f 317/4/6 318/4/6 321/4/6
f 321/4/6 318/4/6 322/4/6
f 319/4/6 320/4/6 323/4/6
f 323/4/6 320/4/6 324/4/6
f 325/4/6 326/4/6 327/4/6
f 327/4/6 326/4/6 328/4/6
f 329/1/6 330/1/6 331/1/6
f 331/1/6 330/1/6 332/1/6
f 333/4/6 334/4/6 335/4/6
f 335/4/6 334/4/6 336/4/6
f 333/4/6 335/4/6 337/4/6
f 336/4/6 334/4/6 338/4/6
f 333/4/6 337/4/6 339/4/6
f 337/4/6 338/4/6 339/4/6
f 338/4/6 334/4/6 340/4/6
f 339/4/6 338/4/6 340/4/6
f 341/2/6 342/2/6 343/2/6
f 343/2/6 342/2/6 344/2/6
