# MagicaVoxel @ Ephtracy

# group
g Great Sword

# material
mtllib Great Sword.mtl
usemtl palette

# normals
vn -1 0 0
vn 1 0 0
vn 0 0 1
vn 0 0 -1
vn 0 -1 0
vn 0 1 0

# texcoords
vt 0.177734 0.5
vt 0.322266 0.5
vt 0.341797 0.5
vt 0.935547 0.5
vt 0.966797 0.5

# verts
v -5.5 11 0.5
v -5.5 11 -0.5
v -5.5 13 0.5
v -5.5 13 -0.5
v -4.5 10 0.5
v -4.5 10 -0.5
v -4.5 11 0.5
v -4.5 11 -0.5
v -2.5 1 0.5
v -2.5 1 -0.5
v -2.5 3 0.5
v -2.5 3 -0.5
v -2.5 10 1.5
v -2.5 10 0.5
v -2.5 10 -0.5
v -2.5 10 -1.5
v -2.5 11 1.5
v -2.5 11 0.5
v -2.5 11 -0.5
v -2.5 11 -1.5
v -2.5 36 0.5
v -2.5 36 -0.5
v -1.5 0 0.5
v -1.5 0 -0.5
v -1.5 1 1.5
v -1.5 1 0.5
v -1.5 1 -0.5
v -1.5 1 -1.5
v -1.5 3 1.5
v -1.5 3 0.5
v -1.5 3 -0.5
v -1.5 3 -1.5
v -1.5 4 0.5
v -1.5 4 -0.5
v -1.5 5 0.5
v -1.5 5 -0.5
v -1.5 6 0.5
v -1.5 6 -0.5
v -1.5 7 0.5
v -1.5 7 -0.5
v -1.5 8 0.5
v -1.5 8 -0.5
v -1.5 9 0.5
v -1.5 9 -0.5
v -1.5 10 0.5
v -1.5 10 -0.5
v -1.5 36 0.5
v -1.5 36 -0.5
v -1.5 38 0.5
v -1.5 38 -0.5
v -0.5 0 1.5
v -0.5 0 0.5
v -0.5 0 -0.5
v -0.5 0 -1.5
v -0.5 1 2.5
v -0.5 1 1.5
v -0.5 1 0.5
v -0.5 1 -0.5
v -0.5 1 -1.5
v -0.5 1 -2.5
v -0.5 3 2.5
v -0.5 3 1.5
v -0.5 3 0.5
v -0.5 3 -0.5
v -0.5 3 -1.5
v -0.5 3 -2.5
v -0.5 4 1.5
v -0.5 4 0.5
v -0.5 4 -0.5
v -0.5 4 -1.5
v -0.5 5 1.5
v -0.5 5 0.5
v -0.5 5 -0.5
v -0.5 5 -1.5
v -0.5 6 1.5
v -0.5 6 0.5
v -0.5 6 -0.5
v -0.5 6 -1.5
v -0.5 7 1.5
v -0.5 7 0.5
v -0.5 7 -0.5
v -0.5 7 -1.5
v -0.5 8 1.5
v -0.5 8 0.5
v -0.5 8 -0.5
v -0.5 8 -1.5
v -0.5 9 1.5
v -0.5 9 0.5
v -0.5 9 -0.5
v -0.5 9 -1.5
v -0.5 10 1.5
v -0.5 10 0.5
v -0.5 10 -0.5
v -0.5 10 -1.5
v -0.5 11 1.5
v -0.5 11 0.5
v -0.5 11 -0.5
v -0.5 11 -1.5
v -0.5 36 1.5
v -0.5 36 0.5
v -0.5 36 -0.5
v -0.5 36 -1.5
v -0.5 38 0.5
v -0.5 38 -0.5
v -0.5 40 0.5
v -0.5 40 -0.5
v 3.5 11 0.5
v 3.5 11 -0.5
v 3.5 12 0.5
v 3.5 12 -0.5
v 4.5 12 0.5
v 4.5 12 -0.5
v 4.5 13 0.5
v 4.5 13 -0.5
v -4.5 12 0.5
v -4.5 12 -0.5
v -4.5 13 0.5
v -4.5 13 -0.5
v -3.5 11 0.5
v -3.5 11 -0.5
v -3.5 12 0.5
v -3.5 12 -0.5
v 0.5 0 1.5
v 0.5 0 0.5
v 0.5 0 -0.5
v 0.5 0 -1.5
v 0.5 1 2.5
v 0.5 1 1.5
v 0.5 1 0.5
v 0.5 1 -0.5
v 0.5 1 -1.5
v 0.5 1 -2.5
v 0.5 3 2.5
v 0.5 3 1.5
v 0.5 3 0.5
v 0.5 3 -0.5
v 0.5 3 -1.5
v 0.5 3 -2.5
v 0.5 4 1.5
v 0.5 4 0.5
v 0.5 4 -0.5
v 0.5 4 -1.5
v 0.5 5 1.5
v 0.5 5 0.5
v 0.5 5 -0.5
v 0.5 5 -1.5
v 0.5 6 1.5
v 0.5 6 0.5
v 0.5 6 -0.5
v 0.5 6 -1.5
v 0.5 7 1.5
v 0.5 7 0.5
v 0.5 7 -0.5
v 0.5 7 -1.5
v 0.5 8 1.5
v 0.5 8 0.5
v 0.5 8 -0.5
v 0.5 8 -1.5
v 0.5 9 1.5
v 0.5 9 0.5
v 0.5 9 -0.5
v 0.5 9 -1.5
v 0.5 10 1.5
v 0.5 10 0.5
v 0.5 10 -0.5
v 0.5 10 -1.5
v 0.5 11 1.5
v 0.5 11 0.5
v 0.5 11 -0.5
v 0.5 11 -1.5
v 0.5 36 1.5
v 0.5 36 0.5
v 0.5 36 -0.5
v 0.5 36 -1.5
v 0.5 38 0.5
v 0.5 38 -0.5
v 0.5 40 0.5
v 0.5 40 -0.5
v 1.5 0 0.5
v 1.5 0 -0.5
v 1.5 1 1.5
v 1.5 1 0.5
v 1.5 1 -0.5
v 1.5 1 -1.5
v 1.5 3 1.5
v 1.5 3 0.5
v 1.5 3 -0.5
v 1.5 3 -1.5
v 1.5 4 0.5
v 1.5 4 -0.5
v 1.5 5 0.5
v 1.5 5 -0.5
v 1.5 6 0.5
v 1.5 6 -0.5
v 1.5 7 0.5
v 1.5 7 -0.5
v 1.5 8 0.5
v 1.5 8 -0.5
v 1.5 9 0.5
v 1.5 9 -0.5
v 1.5 10 0.5
v 1.5 10 -0.5
v 1.5 36 0.5
v 1.5 36 -0.5
v 1.5 38 0.5
v 1.5 38 -0.5
v 2.5 1 0.5
v 2.5 1 -0.5
v 2.5 3 0.5
v 2.5 3 -0.5
v 2.5 10 1.5
v 2.5 10 0.5
v 2.5 10 -0.5
v 2.5 10 -1.5
v 2.5 11 1.5
v 2.5 11 0.5
v 2.5 11 -0.5
v 2.5 11 -1.5
v 2.5 36 0.5
v 2.5 36 -0.5
v 4.5 10 0.5
v 4.5 10 -0.5
v 4.5 11 0.5
v 4.5 11 -0.5
v 5.5 11 0.5
v 5.5 11 -0.5
v 5.5 13 0.5
v 5.5 13 -0.5
v -0.5 1 2.5
v -0.5 3 2.5
v 0.5 1 2.5
v 0.5 3 2.5
v -2.5 10 1.5
v -2.5 11 1.5
v -1.5 1 1.5
v -1.5 3 1.5
v -0.5 0 1.5
v -0.5 1 1.5
v -0.5 3 1.5
v -0.5 4 1.5
v -0.5 5 1.5
v -0.5 6 1.5
v -0.5 7 1.5
v -0.5 8 1.5
v -0.5 9 1.5
v -0.5 10 1.5
v -0.5 11 1.5
v -0.5 36 1.5
v 0.5 0 1.5
v 0.5 1 1.5
v 0.5 3 1.5
v 0.5 4 1.5
v 0.5 5 1.5
v 0.5 6 1.5
v 0.5 7 1.5
v 0.5 8 1.5
v 0.5 9 1.5
v 0.5 10 1.5
v 0.5 11 1.5
v 0.5 36 1.5
v 1.5 1 1.5
v 1.5 3 1.5
v 2.5 10 1.5
v 2.5 11 1.5
v -5.5 11 0.5
v -5.5 13 0.5
v -4.5 10 0.5
v -4.5 11 0.5
v -4.5 12 0.5
v -4.5 13 0.5
v -3.5 11 0.5
v -3.5 12 0.5
v -2.5 1 0.5
v -2.5 3 0.5
v -2.5 10 0.5
v -2.5 11 0.5
v -2.5 36 0.5
v -1.5 0 0.5
v -1.5 1 0.5
v -1.5 3 0.5
v -1.5 4 0.5
v -1.5 5 0.5
v -1.5 6 0.5
v -1.5 7 0.5
v -1.5 8 0.5
v -1.5 9 0.5
v -1.5 10 0.5
v -1.5 36 0.5
v -1.5 38 0.5
v -0.5 0 0.5
v -0.5 1 0.5
v -0.5 3 0.5
v -0.5 4 0.5
v -0.5 5 0.5
v -0.5 6 0.5
v -0.5 7 0.5
v -0.5 8 0.5
v -0.5 9 0.5
v -0.5 10 0.5
v -0.5 11 0.5
v -0.5 36 0.5
v -0.5 38 0.5
v -0.5 40 0.5
v 0.5 0 0.5
v 0.5 1 0.5
v 0.5 3 0.5
v 0.5 4 0.5
v 0.5 5 0.5
v 0.5 6 0.5
v 0.5 7 0.5
v 0.5 8 0.5
v 0.5 9 0.5
v 0.5 10 0.5
v 0.5 11 0.5
v 0.5 36 0.5
v 0.5 38 0.5
v 0.5 40 0.5
v 1.5 0 0.5
v 1.5 1 0.5
v 1.5 3 0.5
v 1.5 4 0.5
v 1.5 5 0.5
v 1.5 6 0.5
v 1.5 7 0.5
v 1.5 8 0.5
v 1.5 9 0.5
v 1.5 10 0.5
v 1.5 36 0.5
v 1.5 38 0.5
v 2.5 1 0.5
v 2.5 3 0.5
v 2.5 10 0.5
v 2.5 11 0.5
v 2.5 36 0.5
v 3.5 11 0.5
v 3.5 12 0.5
v 4.5 10 0.5
v 4.5 11 0.5
v 4.5 12 0.5
v 4.5 13 0.5
v 5.5 11 0.5
v 5.5 13 0.5
v -5.5 11 -0.5
v -5.5 13 -0.5
v -4.5 10 -0.5
v -4.5 11 -0.5
v -4.5 12 -0.5
v -4.5 13 -0.5
v -3.5 11 -0.5
v -3.5 12 -0.5
v -2.5 1 -0.5
v -2.5 3 -0.5
v -2.5 10 -0.5
v -2.5 11 -0.5
v -2.5 36 -0.5
v -1.5 0 -0.5
v -1.5 1 -0.5
v -1.5 3 -0.5
v -1.5 4 -0.5
v -1.5 5 -0.5
v -1.5 6 -0.5
v -1.5 7 -0.5
v -1.5 8 -0.5
v -1.5 9 -0.5
v -1.5 10 -0.5
v -1.5 36 -0.5
v -1.5 38 -0.5
v -0.5 0 -0.5
v -0.5 1 -0.5
v -0.5 3 -0.5
v -0.5 4 -0.5
v -0.5 5 -0.5
v -0.5 6 -0.5
v -0.5 7 -0.5
v -0.5 8 -0.5
v -0.5 9 -0.5
v -0.5 10 -0.5
v -0.5 11 -0.5
v -0.5 36 -0.5
v -0.5 38 -0.5
v -0.5 40 -0.5
v 0.5 0 -0.5
v 0.5 1 -0.5
v 0.5 3 -0.5
v 0.5 4 -0.5
v 0.5 5 -0.5
v 0.5 6 -0.5
v 0.5 7 -0.5
v 0.5 8 -0.5
v 0.5 9 -0.5
v 0.5 10 -0.5
v 0.5 11 -0.5
v 0.5 36 -0.5
v 0.5 38 -0.5
v 0.5 40 -0.5
v 1.5 0 -0.5
v 1.5 1 -0.5
v 1.5 3 -0.5
v 1.5 4 -0.5
v 1.5 5 -0.5
v 1.5 6 -0.5
v 1.5 7 -0.5
v 1.5 8 -0.5
v 1.5 9 -0.5
v 1.5 10 -0.5
v 1.5 36 -0.5
v 1.5 38 -0.5
v 2.5 1 -0.5
v 2.5 3 -0.5
v 2.5 10 -0.5
v 2.5 11 -0.5
v 2.5 36 -0.5
v 3.5 11 -0.5
v 3.5 12 -0.5
v 4.5 10 -0.5
v 4.5 11 -0.5
v 4.5 12 -0.5
v 4.5 13 -0.5
v 5.5 11 -0.5
v 5.5 13 -0.5
v -2.5 10 -1.5
v -2.5 11 -1.5
v -1.5 1 -1.5
v -1.5 3 -1.5
v -0.5 0 -1.5
v -0.5 1 -1.5
v -0.5 3 -1.5
v -0.5 4 -1.5
v -0.5 5 -1.5
v -0.5 6 -1.5
v -0.5 7 -1.5
v -0.5 8 -1.5
v -0.5 9 -1.5
v -0.5 10 -1.5
v -0.5 11 -1.5
v -0.5 36 -1.5
v 0.5 0 -1.5
v 0.5 1 -1.5
v 0.5 3 -1.5
v 0.5 4 -1.5
v 0.5 5 -1.5
v 0.5 6 -1.5
v 0.5 7 -1.5
v 0.5 8 -1.5
v 0.5 9 -1.5
v 0.5 10 -1.5
v 0.5 11 -1.5
v 0.5 36 -1.5
v 1.5 1 -1.5
v 1.5 3 -1.5
v 2.5 10 -1.5
v 2.5 11 -1.5
v -0.5 1 -2.5
v -0.5 3 -2.5
v 0.5 1 -2.5
v 0.5 3 -2.5
v -0.5 0 1.5
v 0.5 0 1.5
v -1.5 0 0.5
v -0.5 0 0.5
v 0.5 0 0.5
v 1.5 0 0.5
v -1.5 0 -0.5
v -0.5 0 -0.5
v 0.5 0 -0.5
v 1.5 0 -0.5
v -0.5 0 -1.5
v 0.5 0 -1.5
v -0.5 1 2.5
v 0.5 1 2.5
v -1.5 1 1.5
v -0.5 1 1.5
v 0.5 1 1.5
v 1.5 1 1.5
v -2.5 1 0.5
v -1.5 1 0.5
v -0.5 1 0.5
v 0.5 1 0.5
v 1.5 1 0.5
v 2.5 1 0.5
v -2.5 1 -0.5
v -1.5 1 -0.5
v -0.5 1 -0.5
v 0.5 1 -0.5
v 1.5 1 -0.5
v 2.5 1 -0.5
v -1.5 1 -1.5
v -0.5 1 -1.5
v 0.5 1 -1.5
v 1.5 1 -1.5
v -0.5 1 -2.5
v 0.5 1 -2.5
v -2.5 10 1.5
v -0.5 10 1.5
v 0.5 10 1.5
v 2.5 10 1.5
v -4.5 10 0.5
v -2.5 10 0.5
v -1.5 10 0.5
v -0.5 10 0.5
v 0.5 10 0.5
v 1.5 10 0.5
v 2.5 10 0.5
v 4.5 10 0.5
v -4.5 10 -0.5
v -2.5 10 -0.5
v -1.5 10 -0.5
v -0.5 10 -0.5
v 0.5 10 -0.5
v 1.5 10 -0.5
v 2.5 10 -0.5
v 4.5 10 -0.5
v -2.5 10 -1.5
v -0.5 10 -1.5
v 0.5 10 -1.5
v 2.5 10 -1.5
v -5.5 11 0.5
v -4.5 11 0.5
v 4.5 11 0.5
v 5.5 11 0.5
v -5.5 11 -0.5
v -4.5 11 -0.5
v 4.5 11 -0.5
v 5.5 11 -0.5
v -0.5 3 2.5
v 0.5 3 2.5
v -1.5 3 1.5
v -0.5 3 1.5
v 0.5 3 1.5
v 1.5 3 1.5
v -2.5 3 0.5
v -1.5 3 0.5
v -0.5 3 0.5
v 0.5 3 0.5
v 1.5 3 0.5
v 2.5 3 0.5
v -2.5 3 -0.5
v -1.5 3 -0.5
v -0.5 3 -0.5
v 0.5 3 -0.5
v 1.5 3 -0.5
v 2.5 3 -0.5
v -1.5 3 -1.5
v -0.5 3 -1.5
v 0.5 3 -1.5
v 1.5 3 -1.5
v -0.5 3 -2.5
v 0.5 3 -2.5
v -2.5 11 1.5
v -0.5 11 1.5
v 0.5 11 1.5
v 2.5 11 1.5
v -3.5 11 0.5
v -2.5 11 0.5
v -0.5 11 0.5
v 0.5 11 0.5
v 2.5 11 0.5
v 3.5 11 0.5
v -3.5 11 -0.5
v -2.5 11 -0.5
v -0.5 11 -0.5
v 0.5 11 -0.5
v 2.5 11 -0.5
v 3.5 11 -0.5
v -2.5 11 -1.5
v -0.5 11 -1.5
v 0.5 11 -1.5
v 2.5 11 -1.5
v -4.5 12 0.5
v -3.5 12 0.5
v 3.5 12 0.5
v 4.5 12 0.5
v -4.5 12 -0.5
v -3.5 12 -0.5
v 3.5 12 -0.5
v 4.5 12 -0.5
v -5.5 13 0.5
v -4.5 13 0.5
v 4.5 13 0.5
v 5.5 13 0.5
v -5.5 13 -0.5
v -4.5 13 -0.5
v 4.5 13 -0.5
v 5.5 13 -0.5
v -0.5 36 1.5
v 0.5 36 1.5
v -2.5 36 0.5
v -1.5 36 0.5
v -0.5 36 0.5
v 0.5 36 0.5
v 1.5 36 0.5
v 2.5 36 0.5
v -2.5 36 -0.5
v -1.5 36 -0.5
v -0.5 36 -0.5
v 0.5 36 -0.5
v 1.5 36 -0.5
v 2.5 36 -0.5
v -0.5 36 -1.5
v 0.5 36 -1.5
v -1.5 38 0.5
v -0.5 38 0.5
v 0.5 38 0.5
v 1.5 38 0.5
v -1.5 38 -0.5
v -0.5 38 -0.5
v 0.5 38 -0.5
v 1.5 38 -0.5
v -0.5 40 0.5
v 0.5 40 0.5
v -0.5 40 -0.5
v 0.5 40 -0.5

# faces
f 3/4/1 2/4/1 1/4/1
f 4/4/1 2/4/1 3/4/1
f 7/4/1 6/4/1 5/4/1
f 8/4/1 6/4/1 7/4/1
f 11/4/1 10/4/1 9/4/1
f 12/4/1 10/4/1 11/4/1
f 17/4/1 14/4/1 13/4/1
f 18/4/1 14/4/1 17/4/1
f 19/4/1 16/4/1 15/4/1
f 20/4/1 16/4/1 19/4/1
f 21/5/1 19/5/1 18/5/1
f 22/5/1 19/5/1 21/5/1
f 26/4/1 24/4/1 23/4/1
f 27/4/1 24/4/1 26/4/1
f 29/4/1 26/4/1 25/4/1
f 30/4/1 26/4/1 29/4/1
f 31/4/1 28/4/1 27/4/1
f 32/4/1 28/4/1 31/4/1
f 33/2/1 31/2/1 30/2/1
f 34/2/1 31/2/1 33/2/1
f 35/3/1 34/3/1 33/3/1
f 36/3/1 34/3/1 35/3/1
f 37/2/1 36/2/1 35/2/1
f 38/2/1 36/2/1 37/2/1
f 39/3/1 38/3/1 37/3/1
f 40/3/1 38/3/1 39/3/1
f 41/2/1 40/2/1 39/2/1
f 42/2/1 40/2/1 41/2/1
f 43/3/1 42/3/1 41/3/1
f 44/3/1 42/3/1 43/3/1
f 45/2/1 44/2/1 43/2/1
f 46/2/1 44/2/1 45/2/1
f 49/5/1 48/5/1 47/5/1
f 50/5/1 48/5/1 49/5/1
f 56/4/1 52/4/1 51/4/1
f 57/4/1 52/4/1 56/4/1
f 58/4/1 54/4/1 53/4/1
f 59/4/1 54/4/1 58/4/1
f 61/4/1 56/4/1 55/4/1
f 62/4/1 56/4/1 61/4/1
f 65/4/1 60/4/1 59/4/1
f 66/4/1 60/4/1 65/4/1
f 67/3/1 63/3/1 62/3/1
f 68/3/1 63/3/1 67/3/1
f 69/3/1 65/3/1 64/3/1
f 70/3/1 65/3/1 69/3/1
f 71/2/1 68/2/1 67/2/1
f 72/2/1 68/2/1 71/2/1
f 73/2/1 70/2/1 69/2/1
f 74/2/1 70/2/1 73/2/1
f 75/3/1 72/3/1 71/3/1
f 76/3/1 72/3/1 75/3/1
f 77/3/1 74/3/1 73/3/1
f 78/3/1 74/3/1 77/3/1
f 79/2/1 76/2/1 75/2/1
f 80/2/1 76/2/1 79/2/1
f 81/2/1 78/2/1 77/2/1
f 82/2/1 78/2/1 81/2/1
f 83/3/1 80/3/1 79/3/1
f 84/3/1 80/3/1 83/3/1
f 85/3/1 82/3/1 81/3/1
f 86/3/1 82/3/1 85/3/1
f 87/2/1 84/2/1 83/2/1
f 88/2/1 84/2/1 87/2/1
f 89/2/1 86/2/1 85/2/1
f 90/2/1 86/2/1 89/2/1
f 91/3/1 88/3/1 87/3/1
f 92/3/1 88/3/1 91/3/1
f 93/3/1 90/3/1 89/3/1
f 94/3/1 90/3/1 93/3/1
f 99/5/1 96/5/1 95/5/1
f 100/5/1 96/5/1 99/5/1
f 101/5/1 98/5/1 97/5/1
f 102/5/1 98/5/1 101/5/1
f 105/5/1 104/5/1 103/5/1
f 106/5/1 104/5/1 105/5/1
f 109/4/1 108/4/1 107/4/1
f 110/4/1 108/4/1 109/4/1
f 113/4/1 112/4/1 111/4/1
f 114/4/1 112/4/1 113/4/1
f 115/4/2 116/4/2 117/4/2
f 117/4/2 116/4/2 118/4/2
f 119/4/2 120/4/2 121/4/2
f 121/4/2 120/4/2 122/4/2
f 123/4/2 124/4/2 128/4/2
f 128/4/2 124/4/2 129/4/2
f 125/4/2 126/4/2 130/4/2
f 130/4/2 126/4/2 131/4/2
f 127/4/2 128/4/2 133/4/2
f 133/4/2 128/4/2 134/4/2
f 131/4/2 132/4/2 137/4/2
f 137/4/2 132/4/2 138/4/2
f 134/3/2 135/3/2 139/3/2
f 139/3/2 135/3/2 140/3/2
f 136/3/2 137/3/2 141/3/2
f 141/3/2 137/3/2 142/3/2
f 139/2/2 140/2/2 143/2/2
f 143/2/2 140/2/2 144/2/2
f 141/2/2 142/2/2 145/2/2
f 145/2/2 142/2/2 146/2/2
f 143/3/2 144/3/2 147/3/2
f 147/3/2 144/3/2 148/3/2
f 145/3/2 146/3/2 149/3/2
f 149/3/2 146/3/2 150/3/2
f 147/2/2 148/2/2 151/2/2
f 151/2/2 148/2/2 152/2/2
f 149/2/2 150/2/2 153/2/2
f 153/2/2 150/2/2 154/2/2
f 151/3/2 152/3/2 155/3/2
f 155/3/2 152/3/2 156/3/2
f 153/3/2 154/3/2 157/3/2
f 157/3/2 154/3/2 158/3/2
f 155/2/2 156/2/2 159/2/2
f 159/2/2 156/2/2 160/2/2
f 157/2/2 158/2/2 161/2/2
f 161/2/2 158/2/2 162/2/2
f 159/3/2 160/3/2 163/3/2
f 163/3/2 160/3/2 164/3/2
f 161/3/2 162/3/2 165/3/2
f 165/3/2 162/3/2 166/3/2
f 167/5/2 168/5/2 171/5/2
f 171/5/2 168/5/2 172/5/2
f 169/5/2 170/5/2 173/5/2
f 173/5/2 170/5/2 174/5/2
f 175/5/2 176/5/2 177/5/2
f 177/5/2 176/5/2 178/5/2
f 179/4/2 180/4/2 182/4/2
f 182/4/2 180/4/2 183/4/2
f 181/4/2 182/4/2 185/4/2
f 185/4/2 182/4/2 186/4/2
f 183/4/2 184/4/2 187/4/2
f 187/4/2 184/4/2 188/4/2
f 186/2/2 187/2/2 189/2/2
f 189/2/2 187/2/2 190/2/2
f 189/3/2 190/3/2 191/3/2
f 191/3/2 190/3/2 192/3/2
f 191/2/2 192/2/2 193/2/2
f 193/2/2 192/2/2 194/2/2
f 193/3/2 194/3/2 195/3/2
f 195/3/2 194/3/2 196/3/2
f 195/2/2 196/2/2 197/2/2
f 197/2/2 196/2/2 198/2/2
f 197/3/2 198/3/2 199/3/2
f 199/3/2 198/3/2 200/3/2
f 199/2/2 200/2/2 201/2/2
f 201/2/2 200/2/2 202/2/2
f 203/5/2 204/5/2 205/5/2
f 205/5/2 204/5/2 206/5/2
f 207/4/2 208/4/2 209/4/2
f 209/4/2 208/4/2 210/4/2
f 211/4/2 212/4/2 215/4/2
f 215/4/2 212/4/2 216/4/2
f 213/4/2 214/4/2 217/4/2
f 217/4/2 214/4/2 218/4/2
f 216/5/2 217/5/2 219/5/2
f 219/5/2 217/5/2 220/5/2
f 221/4/2 222/4/2 223/4/2
f 223/4/2 222/4/2 224/4/2
f 225/4/2 226/4/2 227/4/2
f 227/4/2 226/4/2 228/4/2
f 231/4/3 230/4/3 229/4/3
f 232/4/3 230/4/3 231/4/3
f 238/4/3 236/4/3 235/4/3
f 239/4/3 236/4/3 238/4/3
f 246/4/3 234/4/3 233/4/3
f 247/4/3 234/4/3 246/4/3
f 249/4/3 238/4/3 237/4/3
f 250/4/3 238/4/3 249/4/3
f 251/3/3 240/3/3 239/3/3
f 252/2/3 241/2/3 240/2/3
f 252/3/3 240/3/3 251/3/3
f 253/3/3 242/3/3 241/3/3
f 253/2/3 241/2/3 252/2/3
f 254/2/3 243/2/3 242/2/3
f 254/3/3 242/3/3 253/3/3
f 255/3/3 244/3/3 243/3/3
f 255/2/3 243/2/3 254/2/3
f 256/2/3 245/2/3 244/2/3
f 256/3/3 244/3/3 255/3/3
f 257/3/3 246/3/3 245/3/3
f 257/2/3 245/2/3 256/2/3
f 258/4/3 247/4/3 246/4/3
f 258/3/3 246/3/3 257/3/3
f 259/5/3 248/5/3 247/5/3
f 259/4/3 247/4/3 258/4/3
f 260/5/3 248/5/3 259/5/3
f 261/4/3 251/4/3 250/4/3
f 262/4/3 251/4/3 261/4/3
f 263/4/3 259/4/3 258/4/3
f 264/4/3 259/4/3 263/4/3
f 268/4/3 266/4/3 265/4/3
f 269/4/3 266/4/3 268/4/3
f 270/4/3 266/4/3 269/4/3
f 271/4/3 268/4/3 267/4/3
f 271/4/3 269/4/3 268/4/3
f 272/4/3 269/4/3 271/4/3
f 275/4/3 271/4/3 267/4/3
f 276/4/3 271/4/3 275/4/3
f 279/4/3 274/4/3 273/4/3
f 280/4/3 274/4/3 279/4/3
f 288/5/3 277/5/3 276/5/3
f 290/4/3 279/4/3 278/4/3
f 291/4/3 279/4/3 290/4/3
f 292/2/3 281/2/3 280/2/3
f 293/3/3 282/3/3 281/3/3
f 293/2/3 281/2/3 292/2/3
f 294/2/3 283/2/3 282/2/3
f 294/3/3 282/3/3 293/3/3
f 295/3/3 284/3/3 283/3/3
f 295/2/3 283/2/3 294/2/3
f 296/2/3 285/2/3 284/2/3
f 296/3/3 284/3/3 295/3/3
f 297/3/3 286/3/3 285/3/3
f 297/2/3 285/2/3 296/2/3
f 298/2/3 287/2/3 286/2/3
f 298/3/3 286/3/3 297/3/3
f 299/2/3 287/2/3 298/2/3
f 300/5/3 289/5/3 288/5/3
f 300/5/3 288/5/3 276/5/3
f 301/5/3 289/5/3 300/5/3
f 302/5/3 289/5/3 301/5/3
f 315/5/3 303/5/3 302/5/3
f 315/5/3 302/5/3 301/5/3
f 316/5/3 303/5/3 315/5/3
f 317/5/3 303/5/3 316/5/3
f 318/4/3 305/4/3 304/4/3
f 319/4/3 305/4/3 318/4/3
f 320/2/3 307/2/3 306/2/3
f 321/3/3 308/3/3 307/3/3
f 321/2/3 307/2/3 320/2/3
f 322/2/3 309/2/3 308/2/3
f 322/3/3 308/3/3 321/3/3
f 323/3/3 310/3/3 309/3/3
f 323/2/3 309/2/3 322/2/3
f 324/2/3 311/2/3 310/2/3
f 324/3/3 310/3/3 323/3/3
f 325/3/3 312/3/3 311/3/3
f 325/2/3 311/2/3 324/2/3
f 326/2/3 313/2/3 312/2/3
f 326/3/3 312/3/3 325/3/3
f 327/2/3 313/2/3 326/2/3
f 328/5/3 315/5/3 314/5/3
f 328/5/3 316/5/3 315/5/3
f 329/5/3 316/5/3 328/5/3
f 330/4/3 320/4/3 319/4/3
f 331/4/3 320/4/3 330/4/3
f 333/5/3 328/5/3 314/5/3
f 334/5/3 328/5/3 333/5/3
f 335/4/3 333/4/3 332/4/3
f 337/4/3 335/4/3 332/4/3
f 337/4/3 336/4/3 335/4/3
f 338/4/3 336/4/3 337/4/3
f 339/4/3 336/4/3 338/4/3
f 341/4/3 340/4/3 339/4/3
f 341/4/3 339/4/3 338/4/3
f 342/4/3 340/4/3 341/4/3
f 343/4/4 344/4/4 346/4/4
f 346/4/4 344/4/4 347/4/4
f 347/4/4 344/4/4 348/4/4
f 345/4/4 346/4/4 349/4/4
f 346/4/4 347/4/4 349/4/4
f 349/4/4 347/4/4 350/4/4
f 345/4/4 349/4/4 353/4/4
f 353/4/4 349/4/4 354/4/4
f 351/4/4 352/4/4 357/4/4
f 357/4/4 352/4/4 358/4/4
f 354/5/4 355/5/4 366/5/4
f 356/4/4 357/4/4 368/4/4
f 368/4/4 357/4/4 369/4/4
f 358/2/4 359/2/4 370/2/4
f 359/3/4 360/3/4 371/3/4
f 370/2/4 359/2/4 371/2/4
f 360/2/4 361/2/4 372/2/4
f 371/3/4 360/3/4 372/3/4
f 361/3/4 362/3/4 373/3/4
f 372/2/4 361/2/4 373/2/4
f 362/2/4 363/2/4 374/2/4
f 373/3/4 362/3/4 374/3/4
f 363/3/4 364/3/4 375/3/4
f 374/2/4 363/2/4 375/2/4
f 364/2/4 365/2/4 376/2/4
f 375/3/4 364/3/4 376/3/4
f 376/2/4 365/2/4 377/2/4
f 366/5/4 367/5/4 378/5/4
f 354/5/4 366/5/4 378/5/4
f 378/5/4 367/5/4 379/5/4
f 379/5/4 367/5/4 380/5/4
f 380/5/4 381/5/4 393/5/4
f 379/5/4 380/5/4 393/5/4
f 393/5/4 381/5/4 394/5/4
f 394/5/4 381/5/4 395/5/4
f 382/4/4 383/4/4 396/4/4
f 396/4/4 383/4/4 397/4/4
f 384/2/4 385/2/4 398/2/4
f 385/3/4 386/3/4 399/3/4
f 398/2/4 385/2/4 399/2/4
f 386/2/4 387/2/4 400/2/4
f 399/3/4 386/3/4 400/3/4
f 387/3/4 388/3/4 401/3/4
f 400/2/4 387/2/4 401/2/4
f 388/2/4 389/2/4 402/2/4
f 401/3/4 388/3/4 402/3/4
f 389/3/4 390/3/4 403/3/4
f 402/2/4 389/2/4 403/2/4
f 390/2/4 391/2/4 404/2/4
f 403/3/4 390/3/4 404/3/4
f 404/2/4 391/2/4 405/2/4
f 392/5/4 393/5/4 406/5/4
f 393/5/4 394/5/4 406/5/4
f 406/5/4 394/5/4 407/5/4
f 397/4/4 398/4/4 408/4/4
f 408/4/4 398/4/4 409/4/4
f 392/5/4 406/5/4 411/5/4
f 411/5/4 406/5/4 412/5/4
f 410/4/4 411/4/4 413/4/4
f 410/4/4 413/4/4 415/4/4
f 413/4/4 414/4/4 415/4/4
f 415/4/4 414/4/4 416/4/4
f 416/4/4 414/4/4 417/4/4
f 417/4/4 418/4/4 419/4/4
f 416/4/4 417/4/4 419/4/4
f 419/4/4 418/4/4 420/4/4
f 423/4/4 424/4/4 426/4/4
f 426/4/4 424/4/4 427/4/4
f 421/4/4 422/4/4 434/4/4
f 434/4/4 422/4/4 435/4/4
f 425/4/4 426/4/4 437/4/4
f 437/4/4 426/4/4 438/4/4
f 427/3/4 428/3/4 439/3/4
f 428/2/4 429/2/4 440/2/4
f 439/3/4 428/3/4 440/3/4
f 429/3/4 430/3/4 441/3/4
f 440/2/4 429/2/4 441/2/4
f 430/2/4 431/2/4 442/2/4
f 441/3/4 430/3/4 442/3/4
f 431/3/4 432/3/4 443/3/4
f 442/2/4 431/2/4 443/2/4
f 432/2/4 433/2/4 444/2/4
f 443/3/4 432/3/4 444/3/4
f 433/3/4 434/3/4 445/3/4
f 444/2/4 433/2/4 445/2/4
f 434/4/4 435/4/4 446/4/4
f 445/3/4 434/3/4 446/3/4
f 435/5/4 436/5/4 447/5/4
f 446/4/4 435/4/4 447/4/4
f 447/5/4 436/5/4 448/5/4
f 438/4/4 439/4/4 449/4/4
f 449/4/4 439/4/4 450/4/4
f 446/4/4 447/4/4 451/4/4
f 451/4/4 447/4/4 452/4/4
f 453/4/4 454/4/4 455/4/4
f 455/4/4 454/4/4 456/4/4
f 460/4/5 458/4/5 457/4/5
f 461/4/5 458/4/5 460/4/5
f 463/4/5 460/4/5 459/4/5
f 463/4/5 462/4/5 461/4/5
f 463/4/5 461/4/5 460/4/5
f 464/4/5 462/4/5 463/4/5
f 465/4/5 462/4/5 464/4/5
f 466/4/5 462/4/5 465/4/5
f 467/4/5 465/4/5 464/4/5
f 468/4/5 465/4/5 467/4/5
f 472/4/5 470/4/5 469/4/5
f 473/4/5 470/4/5 472/4/5
f 476/4/5 472/4/5 471/4/5
f 477/4/5 472/4/5 476/4/5
f 478/4/5 474/4/5 473/4/5
f 479/4/5 474/4/5 478/4/5
f 481/4/5 476/4/5 475/4/5
f 482/4/5 476/4/5 481/4/5
f 485/4/5 480/4/5 479/4/5
f 486/4/5 480/4/5 485/4/5
f 487/4/5 483/4/5 482/4/5
f 488/4/5 483/4/5 487/4/5
f 489/4/5 485/4/5 484/4/5
f 490/4/5 485/4/5 489/4/5
f 491/4/5 489/4/5 488/4/5
f 492/4/5 489/4/5 491/4/5
f 498/4/5 494/4/5 493/4/5
f 499/4/5 494/4/5 498/4/5
f 500/4/5 494/4/5 499/4/5
f 501/4/5 496/4/5 495/4/5
f 502/4/5 496/4/5 501/4/5
f 503/4/5 496/4/5 502/4/5
f 505/4/5 498/4/5 497/4/5
f 505/4/5 499/4/5 498/4/5
f 506/4/5 499/4/5 505/4/5
f 507/4/5 499/4/5 506/4/5
f 510/4/5 504/4/5 503/4/5
f 510/4/5 503/4/5 502/4/5
f 511/4/5 504/4/5 510/4/5
f 512/4/5 504/4/5 511/4/5
f 513/4/5 508/4/5 507/4/5
f 513/4/5 507/4/5 506/4/5
f 514/4/5 508/4/5 513/4/5
f 515/4/5 511/4/5 510/4/5
f 515/4/5 510/4/5 509/4/5
f 516/4/5 511/4/5 515/4/5
f 521/4/5 518/4/5 517/4/5
f 522/4/5 518/4/5 521/4/5
f 523/4/5 520/4/5 519/4/5
f 524/4/5 520/4/5 523/4/5
f 525/4/6 526/4/6 528/4/6
f 528/4/6 526/4/6 529/4/6
f 527/4/6 528/4/6 532/4/6
f 532/4/6 528/4/6 533/4/6
f 529/4/6 530/4/6 534/4/6
f 534/4/6 530/4/6 535/4/6
f 531/4/6 532/4/6 537/4/6
f 537/4/6 532/4/6 538/4/6
f 535/4/6 536/4/6 541/4/6
f 541/4/6 536/4/6 542/4/6
f 538/4/6 539/4/6 543/4/6
f 543/4/6 539/4/6 544/4/6
f 540/4/6 541/4/6 545/4/6
f 545/4/6 541/4/6 546/4/6
f 544/4/6 545/4/6 547/4/6
f 547/4/6 545/4/6 548/4/6
f 549/4/6 550/4/6 554/4/6
f 554/4/6 550/4/6 555/4/6
f 551/4/6 552/4/6 556/4/6
f 556/4/6 552/4/6 557/4/6
f 553/4/6 554/4/6 559/4/6
f 559/4/6 554/4/6 560/4/6
f 557/4/6 558/4/6 563/4/6
f 563/4/6 558/4/6 564/4/6
f 560/4/6 561/4/6 565/4/6
f 565/4/6 561/4/6 566/4/6
f 562/4/6 563/4/6 567/4/6
f 567/4/6 563/4/6 568/4/6
f 569/4/6 570/4/6 573/4/6
f 573/4/6 570/4/6 574/4/6
f 571/4/6 572/4/6 575/4/6
f 575/4/6 572/4/6 576/4/6
f 577/4/6 578/4/6 581/4/6
f 581/4/6 578/4/6 582/4/6
f 579/4/6 580/4/6 583/4/6
f 583/4/6 580/4/6 584/4/6
f 585/5/6 586/5/6 589/5/6
f 589/5/6 586/5/6 590/5/6
f 587/5/6 588/5/6 593/5/6
f 593/5/6 588/5/6 594/5/6
f 591/5/6 592/5/6 597/5/6
f 597/5/6 592/5/6 598/5/6
f 595/5/6 596/5/6 599/5/6
f 599/5/6 596/5/6 600/5/6
f 601/5/6 602/5/6 605/5/6
f 605/5/6 602/5/6 606/5/6
f 603/5/6 604/5/6 607/5/6
f 607/5/6 604/5/6 608/5/6
f 609/5/6 610/5/6 611/5/6
f 611/5/6 610/5/6 612/5/6
