# MagicaVoxel @ Ephtracy

# group
g Hand

# material
mtllib Hand.mtl
usemtl palette

# normals
vn -1 0 0
vn 1 0 0
vn 0 0 1
vn 0 0 -1
vn 0 -1 0
vn 0 1 0

# texcoords
vt 0.974609 0.5
vt 0.982422 0.5

# verts
v -14 3 9
v -14 3 -6
v -14 4 10
v -14 4 9
v -14 4 -6
v -14 4 -7
v -14 7 10
v -14 7 9
v -14 7 -6
v -14 7 -7
v -14 8 9
v -14 8 -6
v -10 3 11
v -10 3 10
v -10 3 9
v -10 4 10
v -10 4 9
v -10 7 11
v -10 7 10
v -9 3 14
v -9 3 11
v -9 7 14
v -9 7 11
v -8 3 15
v -8 3 14
v -8 7 15
v -8 7 14
v -7 4 16
v -7 4 15
v -7 6 16
v -7 6 15
v -2 3 12
v -2 3 9
v -2 4 12
v -2 4 11
v -2 4 10
v -2 4 9
v -2 6 12
v -2 6 11
v -2 6 10
v -2 7 12
v -2 7 11
v -2 7 10
v 4 3 15
v 4 3 12
v 4 4 16
v 4 4 15
v 4 4 12
v 4 4 11
v 4 6 16
v 4 6 15
v 4 6 12
v 4 6 11
v 4 7 15
v 4 7 12
v 15 3 9
v 15 3 8
v 15 3 -5
v 15 3 -6
v 15 4 10
v 15 4 9
v 15 4 8
v 15 4 -5
v 15 4 -6
v 15 4 -7
v 15 7 10
v 15 7 9
v 15 7 8
v 15 7 -5
v 15 7 -6
v 15 7 -7
v 15 8 9
v 15 8 8
v 15 8 -5
v 15 8 -6
v 16 3 8
v 16 3 6
v 16 3 5
v 16 3 2
v 16 3 1
v 16 3 -2
v 16 3 -3
v 16 3 -5
v 16 4 9
v 16 4 8
v 16 4 -5
v 16 4 -6
v 16 7 9
v 16 7 8
v 16 7 -5
v 16 7 -6
v 16 8 8
v 16 8 6
v 16 8 5
v 16 8 2
v 16 8 1
v 16 8 -2
v 16 8 -3
v 16 8 -5
v -7 4 16
v -7 6 16
v 4 4 16
v 4 6 16
v -8 3 15
v -8 7 15
v -7 4 15
v -7 6 15
v -6 3 15
v -6 4 15
v -6 6 15
v -6 7 15
v 4 3 15
v 4 4 15
v 4 6 15
v 4 7 15
v -9 3 14
v -9 7 14
v -8 3 14
v -8 7 14
v -10 3 11
v -10 7 11
v -9 3 11
v -9 7 11
v -14 4 10
v -14 7 10
v -10 4 10
v -10 7 10
v -2 4 10
v -2 6 10
v -2 7 10
v -1 4 10
v -1 7 10
v 4 4 10
v 4 7 10
v 5 4 10
v 5 7 10
v 11 4 10
v 11 7 10
v 12 4 10
v 12 7 10
v 15 4 10
v 15 7 10
v -14 3 9
v -14 4 9
v -14 7 9
v -14 8 9
v -10 3 9
v -10 4 9
v -7 7 9
v -2 3 9
v -2 4 9
v -2 7 9
v -2 8 9
v -1 3 9
v -1 4 9
v -1 7 9
v -1 8 9
v 4 3 9
v 4 4 9
v 4 7 9
v 4 8 9
v 5 3 9
v 5 4 9
v 5 7 9
v 5 8 9
v 11 3 9
v 11 4 9
v 11 7 9
v 11 8 9
v 12 3 9
v 12 4 9
v 12 7 9
v 12 8 9
v 15 3 9
v 15 4 9
v 15 7 9
v 15 8 9
v 16 4 9
v 16 7 9
v 15 3 8
v 15 4 8
v 15 7 8
v 15 8 8
v 16 3 8
v 16 4 8
v 16 7 8
v 16 8 8
v -2 3 12
v -2 4 12
v -2 6 12
v -2 7 12
v -1 4 12
v 0 6 12
v 4 3 12
v 4 4 12
v 4 6 12
v 4 7 12
v -2 4 11
v -2 6 11
v -1 4 11
v -1 5 11
v 0 5 11
v 0 6 11
v 4 4 11
v 4 6 11
v 15 3 -5
v 15 4 -5
v 15 7 -5
v 15 8 -5
v 16 3 -5
v 16 4 -5
v 16 7 -5
v 16 8 -5
v -14 3 -6
v -14 4 -6
v -14 7 -6
v -14 8 -6
v -2 3 -6
v -2 4 -6
v -2 7 -6
v -2 8 -6
v -1 3 -6
v -1 4 -6
v -1 7 -6
v -1 8 -6
v 4 3 -6
v 4 4 -6
v 4 7 -6
v 4 8 -6
v 5 3 -6
v 5 4 -6
v 5 7 -6
v 5 8 -6
v 11 3 -6
v 11 4 -6
v 11 7 -6
v 11 8 -6
v 12 3 -6
v 12 4 -6
v 12 7 -6
v 12 8 -6
v 15 3 -6
v 15 4 -6
v 15 7 -6
v 15 8 -6
v 16 4 -6
v 16 7 -6
v -14 4 -7
v -14 7 -7
v -2 4 -7
v -2 7 -7
v -1 4 -7
v -1 7 -7
v 4 4 -7
v 4 7 -7
v 5 4 -7
v 5 7 -7
v 11 4 -7
v 11 7 -7
v 12 4 -7
v 12 7 -7
v 15 4 -7
v 15 7 -7
v -8 3 15
v -6 3 15
v 4 3 15
v -9 3 14
v -8 3 14
v -7 3 14
v -6 3 14
v -5 3 14
v -7 3 13
v -6 3 13
v -5 3 13
v -3 3 13
v -6 3 12
v -4 3 12
v -3 3 12
v -2 3 12
v 4 3 12
v -10 3 11
v -9 3 11
v -7 3 11
v -4 3 11
v -3 3 11
v -10 3 10
v -8 3 10
v -7 3 10
v -3 3 10
v -14 3 9
v -10 3 9
v -8 3 9
v -3 3 9
v -2 3 9
v -1 3 9
v 4 3 9
v 5 3 9
v 11 3 9
v 12 3 9
v 15 3 9
v -3 3 8
v -2 3 8
v 15 3 8
v 16 3 8
v -1 3 6
v 4 3 6
v 5 3 6
v 11 3 6
v 12 3 6
v 16 3 6
v -1 3 5
v 4 3 5
v 5 3 5
v 11 3 5
v 12 3 5
v 16 3 5
v -1 3 2
v 4 3 2
v 5 3 2
v 11 3 2
v 12 3 2
v 16 3 2
v -1 3 1
v 4 3 1
v 5 3 1
v 11 3 1
v 12 3 1
v 16 3 1
v -1 3 -2
v 4 3 -2
v 5 3 -2
v 11 3 -2
v 12 3 -2
v 16 3 -2
v -1 3 -3
v 4 3 -3
v 5 3 -3
v 11 3 -3
v 12 3 -3
v 16 3 -3
v 15 3 -5
v 16 3 -5
v -14 3 -6
v -2 3 -6
v -1 3 -6
v 4 3 -6
v 5 3 -6
v 11 3 -6
v 12 3 -6
v 15 3 -6
v -7 4 16
v 4 4 16
v -7 4 15
v -6 4 15
v 4 4 15
v -2 4 12
v -1 4 12
v 4 4 12
v -2 4 11
v -1 4 11
v 4 4 11
v -14 4 10
v -10 4 10
v -2 4 10
v -1 4 10
v 4 4 10
v 5 4 10
v 11 4 10
v 12 4 10
v 15 4 10
v -14 4 9
v -10 4 9
v -2 4 9
v -1 4 9
v 4 4 9
v 5 4 9
v 11 4 9
v 12 4 9
v 15 4 9
v 16 4 9
v 15 4 8
v 16 4 8
v 15 4 -5
v 16 4 -5
v -14 4 -6
v -2 4 -6
v -1 4 -6
v 4 4 -6
v 5 4 -6
v 11 4 -6
v 12 4 -6
v 15 4 -6
v 16 4 -6
v -14 4 -7
v -2 4 -7
v -1 4 -7
v 4 4 -7
v 5 4 -7
v 11 4 -7
v 12 4 -7
v 15 4 -7
v -7 6 16
v 4 6 16
v -7 6 15
v -6 6 15
v 4 6 15
v -2 6 12
v 0 6 12
v 4 6 12
v -2 6 11
v 0 6 11
v 4 6 11
v -8 7 15
v -6 7 15
v 4 7 15
v -9 7 14
v -8 7 14
v -7 7 14
v -6 7 14
v -4 7 14
v -7 7 13
v -5 7 13
v -4 7 13
v -2 7 13
v -5 7 12
v -3 7 12
v -2 7 12
v 4 7 12
v -10 7 11
v -9 7 11
v -6 7 11
v -3 7 11
v -2 7 11
v -14 7 10
v -10 7 10
v -7 7 10
v -6 7 10
v -2 7 10
v -1 7 10
v 4 7 10
v 5 7 10
v 11 7 10
v 12 7 10
v 15 7 10
v -14 7 9
v -7 7 9
v -2 7 9
v -1 7 9
v 4 7 9
v 5 7 9
v 11 7 9
v 12 7 9
v 15 7 9
v 16 7 9
v 15 7 8
v 16 7 8
v 15 7 -5
v 16 7 -5
v -14 7 -6
v -2 7 -6
v -1 7 -6
v 4 7 -6
v 5 7 -6
v 11 7 -6
v 12 7 -6
v 15 7 -6
v 16 7 -6
v -14 7 -7
v -2 7 -7
v -1 7 -7
v 4 7 -7
v 5 7 -7
v 11 7 -7
v 12 7 -7
v 15 7 -7
v -14 8 9
v -2 8 9
v -1 8 9
v 4 8 9
v 5 8 9
v 11 8 9
v 12 8 9
v 15 8 9
v 15 8 8
v 16 8 8
v -1 8 6
v 4 8 6
v 5 8 6
v 11 8 6
v 12 8 6
v 16 8 6
v -1 8 5
v 4 8 5
v 5 8 5
v 11 8 5
v 12 8 5
v 16 8 5
v -1 8 2
v 4 8 2
v 5 8 2
v 11 8 2
v 12 8 2
v 16 8 2
v -1 8 1
v 4 8 1
v 5 8 1
v 11 8 1
v 12 8 1
v 16 8 1
v -1 8 -2
v 4 8 -2
v 5 8 -2
v 11 8 -2
v 12 8 -2
v 16 8 -2
v -1 8 -3
v 4 8 -3
v 5 8 -3
v 11 8 -3
v 12 8 -3
v 16 8 -3
v 15 8 -5
v 16 8 -5
v -14 8 -6
v -2 8 -6
v -1 8 -6
v 4 8 -6
v 5 8 -6
v 11 8 -6
v 12 8 -6
v 15 8 -6

# faces
f 4/1/1 2/1/1 1/1/1
f 5/1/1 2/1/1 4/1/1
f 7/1/1 4/1/1 3/1/1
f 7/1/1 6/1/1 5/1/1
f 7/1/1 5/1/1 4/1/1
f 8/1/1 6/1/1 7/1/1
f 9/1/1 6/1/1 8/1/1
f 10/1/1 6/1/1 9/1/1
f 11/1/1 9/1/1 8/1/1
f 12/1/1 9/1/1 11/1/1
f 16/2/1 14/2/1 13/2/1
f 16/1/1 15/1/1 14/1/1
f 17/1/1 15/1/1 16/1/1
f 18/2/1 16/2/1 13/2/1
f 19/2/1 16/2/1 18/2/1
f 22/1/1 21/1/1 20/1/1
f 23/1/1 21/1/1 22/1/1
f 26/2/1 25/2/1 24/2/1
f 27/2/1 25/2/1 26/2/1
f 30/1/1 29/1/1 28/1/1
f 31/1/1 29/1/1 30/1/1
f 32/2/2 33/2/2 34/2/2
f 34/2/2 33/2/2 35/2/2
f 35/2/2 33/2/2 36/2/2
f 36/2/2 33/2/2 37/2/2
f 35/2/2 36/2/2 39/2/2
f 39/2/2 36/2/2 40/2/2
f 38/2/2 39/2/2 41/2/2
f 39/1/2 40/1/2 42/1/2
f 41/2/2 39/2/2 42/2/2
f 42/1/2 40/1/2 43/1/2
f 44/1/2 45/1/2 47/1/2
f 47/1/2 45/1/2 48/1/2
f 46/1/2 47/1/2 50/1/2
f 48/1/2 49/1/2 50/1/2
f 47/1/2 48/1/2 50/1/2
f 50/1/2 49/1/2 51/1/2
f 51/1/2 49/1/2 52/1/2
f 52/1/2 49/1/2 53/1/2
f 51/1/2 52/1/2 54/1/2
f 54/1/2 52/1/2 55/1/2
f 56/1/2 57/1/2 61/1/2
f 61/1/2 57/1/2 62/1/2
f 58/1/2 59/1/2 63/1/2
f 63/1/2 59/1/2 64/1/2
f 60/1/2 61/1/2 66/1/2
f 66/1/2 61/1/2 67/1/2
f 64/1/2 65/1/2 70/1/2
f 70/1/2 65/1/2 71/1/2
f 67/1/2 68/1/2 72/1/2
f 72/1/2 68/1/2 73/1/2
f 69/1/2 70/1/2 74/1/2
f 74/1/2 70/1/2 75/1/2
f 76/1/2 77/1/2 85/1/2
f 82/1/2 83/1/2 86/1/2
f 84/1/2 85/1/2 88/1/2
f 85/1/2 77/1/2 89/1/2
f 88/1/2 85/1/2 89/1/2
f 86/1/2 87/1/2 90/1/2
f 82/1/2 86/1/2 90/1/2
f 90/1/2 87/1/2 91/1/2
f 89/1/2 77/1/2 92/1/2
f 77/2/2 78/2/2 93/2/2
f 92/1/2 77/1/2 93/1/2
f 78/1/2 79/1/2 94/1/2
f 93/2/2 78/2/2 94/2/2
f 79/2/2 80/2/2 95/2/2
f 94/1/2 79/1/2 95/1/2
f 80/1/2 81/1/2 96/1/2
f 95/2/2 80/2/2 96/2/2
f 81/2/2 82/2/2 97/2/2
f 96/1/2 81/1/2 97/1/2
f 82/1/2 90/1/2 98/1/2
f 97/2/2 82/2/2 98/2/2
f 98/1/2 90/1/2 99/1/2
f 102/1/3 101/1/3 100/1/3
f 103/1/3 101/1/3 102/1/3
f 106/2/3 105/2/3 104/2/3
f 107/2/3 105/2/3 106/2/3
f 108/2/3 106/2/3 104/2/3
f 109/2/3 106/2/3 108/2/3
f 110/2/3 105/2/3 107/2/3
f 111/2/3 105/2/3 110/2/3
f 112/1/3 109/1/3 108/1/3
f 113/1/3 109/1/3 112/1/3
f 114/1/3 111/1/3 110/1/3
f 115/1/3 111/1/3 114/1/3
f 118/1/3 117/1/3 116/1/3
f 119/1/3 117/1/3 118/1/3
f 122/2/3 121/2/3 120/2/3
f 123/2/3 121/2/3 122/2/3
f 126/1/3 125/1/3 124/1/3
f 127/1/3 125/1/3 126/1/3
f 131/2/3 129/2/3 128/2/3
f 131/2/3 130/2/3 129/2/3
f 132/2/3 130/2/3 131/2/3
f 133/1/3 132/1/3 131/1/3
f 134/1/3 132/1/3 133/1/3
f 135/2/3 134/2/3 133/2/3
f 136/2/3 134/2/3 135/2/3
f 137/1/3 136/1/3 135/1/3
f 138/1/3 136/1/3 137/1/3
f 139/2/3 138/2/3 137/2/3
f 140/2/3 138/2/3 139/2/3
f 141/1/3 140/1/3 139/1/3
f 142/1/3 140/1/3 141/1/3
f 147/1/3 144/1/3 143/1/3
f 148/1/3 144/1/3 147/1/3
f 149/1/3 146/1/3 145/1/3
f 152/1/3 146/1/3 149/1/3
f 153/1/3 146/1/3 152/1/3
f 154/2/3 151/2/3 150/2/3
f 155/2/3 151/2/3 154/2/3
f 156/2/3 153/2/3 152/2/3
f 157/2/3 153/2/3 156/2/3
f 158/1/3 155/1/3 154/1/3
f 159/1/3 155/1/3 158/1/3
f 160/1/3 157/1/3 156/1/3
f 161/1/3 157/1/3 160/1/3
f 162/2/3 159/2/3 158/2/3
f 163/2/3 159/2/3 162/2/3
f 164/2/3 161/2/3 160/2/3
f 165/2/3 161/2/3 164/2/3
f 166/1/3 163/1/3 162/1/3
f 167/1/3 163/1/3 166/1/3
f 168/1/3 165/1/3 164/1/3
f 169/1/3 165/1/3 168/1/3
f 170/2/3 167/2/3 166/2/3
f 171/2/3 167/2/3 170/2/3
f 172/2/3 169/2/3 168/2/3
f 173/2/3 169/2/3 172/2/3
f 174/1/3 171/1/3 170/1/3
f 175/1/3 171/1/3 174/1/3
f 176/1/3 173/1/3 172/1/3
f 177/1/3 173/1/3 176/1/3
f 178/1/3 176/1/3 175/1/3
f 179/1/3 176/1/3 178/1/3
f 184/1/3 181/1/3 180/1/3
f 185/1/3 181/1/3 184/1/3
f 186/1/3 183/1/3 182/1/3
f 187/1/3 183/1/3 186/1/3
f 188/1/4 189/1/4 192/1/4
f 190/1/4 191/1/4 193/1/4
f 188/1/4 192/1/4 194/1/4
f 194/1/4 192/1/4 195/1/4
f 193/1/4 191/1/4 196/1/4
f 196/1/4 191/1/4 197/1/4
f 198/2/4 199/2/4 200/2/4
f 200/2/4 199/2/4 201/2/4
f 200/1/4 201/1/4 202/1/4
f 201/2/4 199/2/4 202/2/4
f 202/2/4 199/2/4 203/2/4
f 200/1/4 202/1/4 204/1/4
f 202/1/4 203/1/4 204/1/4
f 204/1/4 203/1/4 205/1/4
f 206/1/4 207/1/4 210/1/4
f 210/1/4 207/1/4 211/1/4
f 208/1/4 209/1/4 212/1/4
f 212/1/4 209/1/4 213/1/4
f 214/1/4 215/1/4 218/1/4
f 218/1/4 215/1/4 219/1/4
f 216/1/4 217/1/4 220/1/4
f 220/1/4 217/1/4 221/1/4
f 218/2/4 219/2/4 222/2/4
f 222/2/4 219/2/4 223/2/4
f 220/2/4 221/2/4 224/2/4
f 224/2/4 221/2/4 225/2/4
f 222/1/4 223/1/4 226/1/4
f 226/1/4 223/1/4 227/1/4
f 224/1/4 225/1/4 228/1/4
f 228/1/4 225/1/4 229/1/4
f 226/2/4 227/2/4 230/2/4
f 230/2/4 227/2/4 231/2/4
f 228/2/4 229/2/4 232/2/4
f 232/2/4 229/2/4 233/2/4
f 230/1/4 231/1/4 234/1/4
f 234/1/4 231/1/4 235/1/4
f 232/1/4 233/1/4 236/1/4
f 236/1/4 233/1/4 237/1/4
f 234/2/4 235/2/4 238/2/4
f 238/2/4 235/2/4 239/2/4
f 236/2/4 237/2/4 240/2/4
f 240/2/4 237/2/4 241/2/4
f 238/1/4 239/1/4 242/1/4
f 242/1/4 239/1/4 243/1/4
f 240/1/4 241/1/4 244/1/4
f 244/1/4 241/1/4 245/1/4
f 243/1/4 244/1/4 246/1/4
f 246/1/4 244/1/4 247/1/4
f 248/1/4 249/1/4 250/1/4
f 250/1/4 249/1/4 251/1/4
f 250/2/4 251/2/4 252/2/4
f 252/2/4 251/2/4 253/2/4
f 252/1/4 253/1/4 254/1/4
f 254/1/4 253/1/4 255/1/4
f 254/2/4 255/2/4 256/2/4
f 256/2/4 255/2/4 257/2/4
f 256/1/4 257/1/4 258/1/4
f 258/1/4 257/1/4 259/1/4
f 258/2/4 259/2/4 260/2/4
f 260/2/4 259/2/4 261/2/4
f 260/1/4 261/1/4 262/1/4
f 262/1/4 261/1/4 263/1/4
f 268/2/5 265/2/5 264/2/5
f 269/2/5 265/2/5 268/2/5
f 270/1/5 266/1/5 265/1/5
f 270/2/5 265/2/5 269/2/5
f 271/1/5 266/1/5 270/1/5
f 272/1/5 269/1/5 268/1/5
f 272/1/5 268/1/5 267/1/5
f 272/2/5 271/2/5 270/2/5
f 272/2/5 270/2/5 269/2/5
f 273/2/5 271/2/5 272/2/5
f 274/1/5 266/1/5 271/1/5
f 274/2/5 271/2/5 273/2/5
f 275/1/5 266/1/5 274/1/5
f 276/1/5 273/1/5 272/1/5
f 276/2/5 274/2/5 273/2/5
f 276/2/5 275/2/5 274/2/5
f 277/2/5 275/2/5 276/2/5
f 278/1/5 266/1/5 275/1/5
f 278/2/5 275/2/5 277/2/5
f 279/1/5 266/1/5 278/1/5
f 280/1/5 266/1/5 279/1/5
f 282/1/5 277/1/5 276/1/5
f 282/1/5 272/1/5 267/1/5
f 282/1/5 276/1/5 272/1/5
f 283/1/5 277/1/5 282/1/5
f 284/2/5 279/2/5 278/2/5
f 284/1/5 277/1/5 283/1/5
f 284/2/5 278/2/5 277/2/5
f 285/2/5 279/2/5 284/2/5
f 286/2/5 283/2/5 282/2/5
f 286/2/5 282/2/5 281/2/5
f 287/2/5 283/2/5 286/2/5
f 288/1/5 285/1/5 284/1/5
f 288/2/5 283/2/5 287/2/5
f 288/1/5 284/1/5 283/1/5
f 289/2/5 279/2/5 285/2/5
f 289/1/5 285/1/5 288/1/5
f 291/1/5 287/1/5 286/1/5
f 292/2/5 288/2/5 287/2/5
f 292/2/5 289/2/5 288/2/5
f 292/1/5 287/1/5 291/1/5
f 293/2/5 279/2/5 289/2/5
f 293/2/5 289/2/5 292/2/5
f 294/2/5 279/2/5 293/2/5
f 301/1/5 291/1/5 290/1/5
f 301/1/5 292/1/5 291/1/5
f 301/1/5 293/1/5 292/1/5
f 301/2/5 294/2/5 293/2/5
f 301/2/5 295/2/5 294/2/5
f 302/2/5 295/2/5 301/2/5
f 303/1/5 300/1/5 299/1/5
f 305/1/5 296/1/5 295/1/5
f 305/2/5 295/2/5 302/2/5
f 306/2/5 297/2/5 296/2/5
f 306/1/5 296/1/5 305/1/5
f 307/1/5 298/1/5 297/1/5
f 307/2/5 297/2/5 306/2/5
f 308/2/5 299/2/5 298/2/5
f 308/1/5 298/1/5 307/1/5
f 309/1/5 304/1/5 303/1/5
f 309/2/5 299/2/5 308/2/5
f 309/1/5 303/1/5 299/1/5
f 310/1/5 304/1/5 309/1/5
f 311/2/5 308/2/5 307/2/5
f 311/2/5 307/2/5 306/2/5
f 311/2/5 310/2/5 309/2/5
f 311/2/5 309/2/5 308/2/5
f 311/2/5 306/2/5 305/2/5
f 311/2/5 305/2/5 302/2/5
f 312/2/5 310/2/5 311/2/5
f 313/2/5 310/2/5 312/2/5
f 314/2/5 310/2/5 313/2/5
f 315/2/5 310/2/5 314/2/5
f 316/2/5 310/2/5 315/2/5
f 317/2/5 311/2/5 302/2/5
f 317/1/5 312/1/5 311/1/5
f 318/2/5 313/2/5 312/2/5
f 318/1/5 312/1/5 317/1/5
f 319/1/5 314/1/5 313/1/5
f 319/2/5 313/2/5 318/2/5
f 320/2/5 315/2/5 314/2/5
f 320/1/5 314/1/5 319/1/5
f 321/1/5 316/1/5 315/1/5
f 321/2/5 315/2/5 320/2/5
f 322/1/5 316/1/5 321/1/5
f 323/2/5 320/2/5 319/2/5
f 323/2/5 317/2/5 302/2/5
f 323/2/5 322/2/5 321/2/5
f 323/2/5 321/2/5 320/2/5
f 323/2/5 319/2/5 318/2/5
f 323/2/5 318/2/5 317/2/5
f 324/2/5 322/2/5 323/2/5
f 325/2/5 322/2/5 324/2/5
f 326/2/5 322/2/5 325/2/5
f 327/2/5 322/2/5 326/2/5
f 328/2/5 322/2/5 327/2/5
f 329/2/5 323/2/5 302/2/5
f 329/1/5 324/1/5 323/1/5
f 330/2/5 325/2/5 324/2/5
f 330/1/5 324/1/5 329/1/5
f 331/1/5 326/1/5 325/1/5
f 331/2/5 325/2/5 330/2/5
f 332/2/5 327/2/5 326/2/5
f 332/1/5 326/1/5 331/1/5
f 333/1/5 328/1/5 327/1/5
f 333/2/5 327/2/5 332/2/5
f 334/1/5 328/1/5 333/1/5
f 335/2/5 332/2/5 331/2/5
f 335/2/5 329/2/5 302/2/5
f 335/2/5 334/2/5 333/2/5
f 335/2/5 333/2/5 332/2/5
f 335/2/5 331/2/5 330/2/5
f 335/2/5 330/2/5 329/2/5
f 336/2/5 334/2/5 335/2/5
f 337/2/5 334/2/5 336/2/5
f 338/2/5 334/2/5 337/2/5
f 339/2/5 334/2/5 338/2/5
f 340/2/5 334/2/5 339/2/5
f 341/1/5 340/1/5 339/1/5
f 342/1/5 340/1/5 341/1/5
f 343/1/5 302/1/5 301/1/5
f 343/1/5 301/1/5 290/1/5
f 344/2/5 335/2/5 302/2/5
f 344/1/5 302/1/5 343/1/5
f 345/1/5 336/1/5 335/1/5
f 345/2/5 335/2/5 344/2/5
f 346/2/5 337/2/5 336/2/5
f 346/1/5 336/1/5 345/1/5
f 347/1/5 338/1/5 337/1/5
f 347/2/5 337/2/5 346/2/5
f 348/2/5 339/2/5 338/2/5
f 348/1/5 338/1/5 347/1/5
f 349/1/5 341/1/5 339/1/5
f 349/2/5 339/2/5 348/2/5
f 350/1/5 341/1/5 349/1/5
f 353/1/5 352/1/5 351/1/5
f 354/1/5 352/1/5 353/1/5
f 355/1/5 352/1/5 354/1/5
f 359/2/5 357/2/5 356/2/5
f 360/1/5 358/1/5 357/1/5
f 360/2/5 357/2/5 359/2/5
f 361/1/5 358/1/5 360/1/5
f 371/1/5 363/1/5 362/1/5
f 372/1/5 363/1/5 371/1/5
f 373/2/5 365/2/5 364/2/5
f 374/1/5 366/1/5 365/1/5
f 374/2/5 365/2/5 373/2/5
f 375/2/5 367/2/5 366/2/5
f 375/1/5 366/1/5 374/1/5
f 376/1/5 368/1/5 367/1/5
f 376/2/5 367/2/5 375/2/5
f 377/2/5 369/2/5 368/2/5
f 377/1/5 368/1/5 376/1/5
f 378/1/5 370/1/5 369/1/5
f 378/2/5 369/2/5 377/2/5
f 379/1/5 370/1/5 378/1/5
f 381/1/5 380/1/5 379/1/5
f 382/1/5 380/1/5 381/1/5
f 392/1/5 384/1/5 383/1/5
f 393/1/5 384/1/5 392/1/5
f 394/1/5 386/1/5 385/1/5
f 395/2/5 387/2/5 386/2/5
f 395/1/5 386/1/5 394/1/5
f 396/1/5 388/1/5 387/1/5
f 396/2/5 387/2/5 395/2/5
f 397/2/5 389/2/5 388/2/5
f 397/1/5 388/1/5 396/1/5
f 398/1/5 390/1/5 389/1/5
f 398/2/5 389/2/5 397/2/5
f 399/2/5 391/2/5 390/2/5
f 399/1/5 390/1/5 398/1/5
f 400/1/5 392/1/5 391/1/5
f 400/2/5 391/2/5 399/2/5
f 401/1/5 392/1/5 400/1/5
f 402/1/6 403/1/6 404/1/6
f 404/1/6 403/1/6 405/1/6
f 405/1/6 403/1/6 406/1/6
f 407/2/6 408/2/6 410/2/6
f 408/1/6 409/1/6 411/1/6
f 410/2/6 408/2/6 411/2/6
f 411/1/6 409/1/6 412/1/6
f 413/2/6 414/2/6 417/2/6
f 417/2/6 414/2/6 418/2/6
f 414/1/6 415/1/6 419/1/6
f 418/2/6 414/2/6 419/2/6
f 419/1/6 415/1/6 420/1/6
f 417/1/6 418/1/6 421/1/6
f 416/1/6 417/1/6 421/1/6
f 419/2/6 420/2/6 421/2/6
f 418/2/6 419/2/6 421/2/6
f 421/2/6 420/2/6 422/2/6
f 420/1/6 415/1/6 423/1/6
f 422/2/6 420/2/6 423/2/6
f 423/1/6 415/1/6 424/1/6
f 421/1/6 422/1/6 425/1/6
f 422/2/6 423/2/6 425/2/6
f 423/2/6 424/2/6 425/2/6
f 425/2/6 424/2/6 426/2/6
f 424/1/6 415/1/6 427/1/6
f 426/2/6 424/2/6 427/2/6
f 427/1/6 415/1/6 428/1/6
f 425/1/6 426/1/6 430/1/6
f 416/1/6 421/1/6 430/1/6
f 421/1/6 425/1/6 430/1/6
f 430/1/6 426/1/6 431/1/6
f 426/2/6 427/2/6 432/2/6
f 431/1/6 426/1/6 432/1/6
f 432/2/6 427/2/6 433/2/6
f 430/2/6 431/2/6 435/2/6
f 429/2/6 430/2/6 435/2/6
f 435/2/6 431/2/6 436/2/6
f 432/1/6 433/1/6 437/1/6
f 436/2/6 431/2/6 437/2/6
f 431/1/6 432/1/6 437/1/6
f 437/1/6 433/1/6 438/1/6
f 435/1/6 436/1/6 445/1/6
f 434/1/6 435/1/6 445/1/6
f 437/2/6 438/2/6 446/2/6
f 445/1/6 436/1/6 446/1/6
f 436/2/6 437/2/6 446/2/6
f 438/2/6 439/2/6 446/2/6
f 446/2/6 439/2/6 447/2/6
f 439/1/6 440/1/6 448/1/6
f 447/2/6 439/2/6 448/2/6
f 440/2/6 441/2/6 449/2/6
f 448/1/6 440/1/6 449/1/6
f 441/1/6 442/1/6 450/1/6
f 449/2/6 441/2/6 450/2/6
f 442/2/6 443/2/6 451/2/6
f 450/1/6 442/1/6 451/1/6
f 443/1/6 444/1/6 452/1/6
f 451/2/6 443/2/6 452/2/6
f 452/1/6 444/1/6 453/1/6
f 453/1/6 454/1/6 455/1/6
f 455/1/6 454/1/6 456/1/6
f 457/1/6 458/1/6 466/1/6
f 466/1/6 458/1/6 467/1/6
f 459/1/6 460/1/6 468/1/6
f 460/2/6 461/2/6 469/2/6
f 468/1/6 460/1/6 469/1/6
f 461/1/6 462/1/6 470/1/6
f 469/2/6 461/2/6 470/2/6
f 462/2/6 463/2/6 471/2/6
f 470/1/6 462/1/6 471/1/6
f 463/1/6 464/1/6 472/1/6
f 471/2/6 463/2/6 472/2/6
f 464/2/6 465/2/6 473/2/6
f 472/1/6 464/1/6 473/1/6
f 465/1/6 466/1/6 474/1/6
f 473/2/6 465/2/6 474/2/6
f 474/1/6 466/1/6 475/1/6
f 482/1/6 483/1/6 484/1/6
f 477/2/6 478/2/6 486/2/6
f 478/1/6 479/1/6 486/1/6
f 479/2/6 480/2/6 487/2/6
f 486/1/6 479/1/6 487/1/6
f 480/1/6 481/1/6 488/1/6
f 487/2/6 480/2/6 488/2/6
f 481/2/6 482/2/6 489/2/6
f 488/1/6 481/1/6 489/1/6
f 484/1/6 485/1/6 490/1/6
f 489/2/6 482/2/6 490/2/6
f 482/1/6 484/1/6 490/1/6
f 490/1/6 485/1/6 491/1/6
f 488/2/6 489/2/6 492/2/6
f 487/2/6 488/2/6 492/2/6
f 490/2/6 491/2/6 492/2/6
f 489/2/6 490/2/6 492/2/6
f 486/2/6 487/2/6 492/2/6
f 477/2/6 486/2/6 492/2/6
f 492/2/6 491/2/6 493/2/6
f 493/2/6 491/2/6 494/2/6
f 494/2/6 491/2/6 495/2/6
f 495/2/6 491/2/6 496/2/6
f 496/2/6 491/2/6 497/2/6
f 477/2/6 492/2/6 498/2/6
f 492/1/6 493/1/6 498/1/6
f 493/2/6 494/2/6 499/2/6
f 498/1/6 493/1/6 499/1/6
f 494/1/6 495/1/6 500/1/6
f 499/2/6 494/2/6 500/2/6
f 495/2/6 496/2/6 501/2/6
f 500/1/6 495/1/6 501/1/6
f 496/1/6 497/1/6 502/1/6
f 501/2/6 496/2/6 502/2/6
f 502/1/6 497/1/6 503/1/6
f 500/2/6 501/2/6 504/2/6
f 477/2/6 498/2/6 504/2/6
f 502/2/6 503/2/6 504/2/6
f 501/2/6 502/2/6 504/2/6
f 499/2/6 500/2/6 504/2/6
f 498/2/6 499/2/6 504/2/6
f 504/2/6 503/2/6 505/2/6
f 505/2/6 503/2/6 506/2/6
f 506/2/6 503/2/6 507/2/6
f 507/2/6 503/2/6 508/2/6
f 508/2/6 503/2/6 509/2/6
f 477/2/6 504/2/6 510/2/6
f 504/1/6 505/1/6 510/1/6
f 505/2/6 506/2/6 511/2/6
f 510/1/6 505/1/6 511/1/6
f 506/1/6 507/1/6 512/1/6
f 511/2/6 506/2/6 512/2/6
f 507/2/6 508/2/6 513/2/6
f 512/1/6 507/1/6 513/1/6
f 508/1/6 509/1/6 514/1/6
f 513/2/6 508/2/6 514/2/6
f 514/1/6 509/1/6 515/1/6
f 512/2/6 513/2/6 516/2/6
f 477/2/6 510/2/6 516/2/6
f 514/2/6 515/2/6 516/2/6
f 513/2/6 514/2/6 516/2/6
f 511/2/6 512/2/6 516/2/6
f 510/2/6 511/2/6 516/2/6
f 516/2/6 515/2/6 517/2/6
f 517/2/6 515/2/6 518/2/6
f 518/2/6 515/2/6 519/2/6
f 519/2/6 515/2/6 520/2/6
f 520/2/6 515/2/6 521/2/6
f 520/1/6 521/1/6 522/1/6
f 522/1/6 521/1/6 523/1/6
f 476/1/6 477/1/6 524/1/6
f 477/2/6 516/2/6 525/2/6
f 524/1/6 477/1/6 525/1/6
f 516/1/6 517/1/6 526/1/6
f 525/2/6 516/2/6 526/2/6
f 517/2/6 518/2/6 527/2/6
f 526/1/6 517/1/6 527/1/6
f 518/1/6 519/1/6 528/1/6
f 527/2/6 518/2/6 528/2/6
f 519/2/6 520/2/6 529/2/6
f 528/1/6 519/1/6 529/1/6
f 520/1/6 522/1/6 530/1/6
f 529/2/6 520/2/6 530/2/6
f 530/1/6 522/1/6 531/1/6
